<?xml version="1.0" encoding="utf-8"?>
<!-- Generator: Adobe Illustrator 27.5.0, SVG Export Plug-In . SVG Version: 6.00 Build 0)  -->
<svg version="1.1" id="a" xmlns="http://www.w3.org/2000/svg" xmlns:xlink="http://www.w3.org/1999/xlink" x="0px" y="0px"
	 viewBox="0 0 4195 4195.012" style="enable-background:new 0 0 4195 4195.012;" xml:space="preserve">
<path d="M1768.236,2021.883c-59.507,0-128.509-22.167-178.054-57.608c-79.617-56.964-115.667-153.387-86.903-221.452
	l-191.416-136.943c-31.025,22.503-51.064,53.917-59.657,93.58c-19.359,89.34,20.021,217.222,105.29,342.745l456.434,292.29
	c96.777-11.004,173.7-80.041,228.791-205.758l-184.845-132.235c-22.565,17.433-54.35,25.4-89.623,25.4L1768.236,2021.883z"/>
<path d="M1623.698,1484.013c-105.052-105.043-275.97-105.061-381.074-0.08l-928.792,928.792
	c-101.828,101.837-101.828,267.527,0,369.364l633.42,633.42l1303.967-1303.967l-627.511-627.52L1623.698,1484.013z
	 M1832.151,2376.604c-60.32,165.787-153.608,227.661-225.895,249.59c-60.514,183.697-165.442,242.418-248.804,257.67
	c-69.893,215.765-202.791,263.835-300.663,265.584c-109.794,0-238.038-55.595-356.664-157.105
	c-110.872-94.878-199.815-218.396-237.914-330.39c-41.985-123.421-20.772-224.26,59.737-283.945
	c7.065-5.255,16.595-5.793,24.225-1.369l209.697,121.567c-90.109-160.921-86.179-305.379,15.861-381.03
	c7.074-5.264,16.603-5.785,24.225-1.369l192.485,111.587c-86.832-167.703-77.7-314.926,29.135-387.053
	c7.313-4.937,16.842-5.052,24.26-0.292l231.635,148.336c-58.165-109.529-82.081-216.842-64.427-298.287
	c12.329-56.884,43.248-100.601,91.919-129.93c7.542-4.539,17.08-4.177,24.243,0.954l757.565,541.959
	c8.319,5.953,11.463,16.833,7.595,26.309c-41.588,101.828-119.73,224.596-258.209,247.214L1832.151,2376.604z"/>
<path d="M2197.946,2431.139c-0.45,0-0.901,0-1.351,0c-57.591,0-124.861,54.341-180.253,145.748
	c-54.818,90.453-89.72,203.577-91.071,295.205c-2.349,158.624,109.953,337.738,262.033,339.99
	c63.26,0,130.054-34.222,181.418-94.242c55.418-64.744,86.664-149.219,87.98-237.87c1.352-91.707-30.045-205.82-81.939-297.801
	c-52.875-93.703-118.979-150.164-176.817-151.02V2431.139z"/>
<path d="M2187.313,3212.064C2186.448,3212.064,2188.17,3212.082,2187.313,3212.064L2187.313,3212.064z"/>
<path d="M2711,2571.323l-428.562-428.562L978.471,3446.728l434.461,434.453c101.846,101.828,267.527,101.819,369.364,0
	L2711,2952.477l0,0c50.906-50.905,78.937-118.591,78.937-190.577S2761.905,2622.228,2711,2571.323L2711,2571.323z M1639.94,3803.357
	c-165.071-2.447-308.947-182.267-305.944-384.801c1.484-100.521,37.923-219.183,97.465-317.434
	c64.409-106.279,143.752-167.014,218.008-167.014c0.671,0,1.342,0,2.014,0c74.813,1.113,153.043,64.338,214.625,173.479
	c56.363,99.894,89.128,219.562,87.636,320.145c-2.976,201.131-150.11,375.625-313.795,375.625L1639.94,3803.357z M2402.292,3146.534
	c-59.79,69.849-139.115,109.68-215.305,109.68c-165.071-2.447-308.85-182.267-305.856-384.793
	c1.484-100.521,37.923-219.182,97.465-317.434c64.992-107.251,144.821-168.056,220.021-167.006
	c74.813,1.113,153.043,64.338,214.625,173.479c56.363,99.894,89.128,219.571,87.636,320.154
	c-1.466,98.923-36.475,193.368-98.578,265.928L2402.292,3146.534z"/>
<path d="M1495.066,2277.761c-56.46,0-120.26-18.211-167.888-48.715c-82.434-52.795-123.404-147.24-98.172-216.701l-198.199-126.919
	c-105.078,84.898-48.662,258.695,35.185,386.93l533.941,309.539c80.606-27.113,145.032-99.832,187.627-211.861l-191.186-122.432
	c-24.252,20.834-60.885,30.168-101.29,30.168L1495.066,2277.761z"/>
<path d="M1650.82,2978.274c-0.45,0-0.901,0-1.351,0c-57.591,0-124.861,54.341-180.253,145.748
	c-54.818,90.453-89.72,203.577-91.071,295.205c-2.349,158.624,110.112,337.738,262.192,339.99
	c150.658,0,266.908-174.495,269.249-332.121c1.351-91.707-30.045-205.812-81.94-297.792
	c-52.875-93.703-118.979-150.164-176.817-151.021L1650.82,2978.274z"/>
<path d="M1640.328,3759.199C1639.366,3759.199,1641.291,3759.217,1640.328,3759.199L1640.328,3759.199z"/>
<path d="M1120.351,2453.615c66.034,38.267,162.219,45.765,206.138,20.807l-296.229-171.739
	c-8.258,49.466,29.356,115.72,90.1,150.932H1120.351z"/>
<path d="M1350.988,2191.865c64.285,41.173,160.046,52.901,205.026,29.895l-288.36-184.66
	c-10.421,49.051,24.216,116.904,83.335,154.756V2191.865z"/>
<path d="M1615.874,1928.356c62.077,44.405,157.114,61.053,203.215,40.387l-278.487-199.232
	c-12.93,48.45,18.175,117.99,75.272,158.836V1928.356z"/>
<path d="M1006.255,2794.153c-53.378,0-112.356-15.137-157.838-41.5c-84.695-49.095-129.789-141.641-107.648-212.144l-203.63-118.043
	c-69.461,61.203-56.902,155.401-33.119,225.285c86.885,255.375,372.782,457.556,552.752,457.565
	c119.871-2.146,207.958-80.235,257.812-232.156l-196.476-113.901c-25.603,24.031-66.696,34.903-111.843,34.903L1006.255,2794.153z"
	/>
<path d="M1056.763,3105.308C1055.359,3105.334,1058.176,3105.308,1056.763,3105.308L1056.763,3105.308z"/>
<path d="M870.567,2714.448c66.043,38.285,162.227,45.783,206.138,20.807l-296.238-171.73
	c-8.249,49.466,29.356,115.72,90.091,150.923L870.567,2714.448z"/>
<path d="M1256.039,2533.321c-53.378,0-112.347-15.137-157.838-41.5c-84.695-49.104-129.789-141.65-107.648-212.153L786.94,2161.625
	c-101.184,89.411-37.172,260.558,52.097,384.802l507.728,294.348c100.141-16.965,173.311-93.615,217.602-228.447l-196.477-113.901
	c-25.603,24.031-66.696,34.903-111.843,34.903L1256.039,2533.321z"/>
<path d="M2567.089,1622.863c-10.713-79.52-3.409-162.616,25.082-243.328c46.56-131.926,141.712-237.817,267.916-298.172
	c75.634-36.174,156.999-53.246,238.453-51.214c-39.566-154.049-154.297-280.43-305.14-333.675
	c-120.781-42.648-250.941-35.697-366.502,19.571c-115.552,55.268-202.694,152.23-245.342,273.02
	c-46.277,131.123-37.729,267.544,23.448,374.301c84.068,146.684,208.858,235.883,362.086,259.508V1622.863z"/>
<path d="M3274.315,1381.451c-28.261-12.815-57.9-18.882-87.079-18.882c-80.527,0-157.609,46.181-192.979,124.155
	c-48.185,106.244-0.954,231.882,105.281,280.068c51.462,23.333,108.929,25.241,161.83,5.352
	c52.893-19.889,94.878-59.172,118.22-110.633c23.342-51.462,25.25-108.938,5.361-161.83
	c-19.889-52.901-59.18-94.887-110.642-118.229L3274.315,1381.451z M3319.709,1624.974c-15.323,33.79-42.886,59.587-77.621,72.649
	c-15.906,5.979-32.438,8.955-48.936,8.955c-19.527,0-39-4.169-57.317-12.479c-33.79-15.314-59.587-42.877-72.64-77.612
	c-13.062-34.726-11.808-72.463,3.515-106.244c31.644-69.752,114.131-100.751,183.865-69.116
	c33.79,15.314,59.587,42.886,72.64,77.612c13.062,34.726,11.808,72.463-3.515,106.244L3319.709,1624.974z"/>
<path d="M2575.267,1668.416c-157.759-20.03-288.493-102.402-381.41-239.884c-53.899,239.142,75.333,486.956,304.469,567.818
	c101.608,35.892,210.722,36.554,311.773,2.579c-121.116-75.078-204.354-195.611-234.832-330.505V1668.416z"/>
<path d="M3232.338,1481.328c-12.656-5.732-25.929-8.452-38.991-8.452c-36.06,0-70.582,20.683-86.417,55.604
	c-10.457,23.042-11.304,48.777-2.402,72.472c8.902,23.686,26.495,42.489,49.545,52.928c23.05,10.474,48.786,11.313,72.472,2.402
	c23.687-8.902,42.489-26.495,52.946-49.536c21.575-47.585,0.424-103.842-47.143-125.417H3232.338z"/>
<path d="M3245.674,1101.604c-52.601-18.573-106.333-27.378-159.181-27.378c-197.695,0-383.238,123.227-452.681,319.995
	c-88.016,249.369,43.257,523.855,292.626,611.87c120.807,42.648,250.967,35.689,366.538-19.597
	c115.561-55.268,202.694-152.23,245.324-273.038c42.639-120.798,35.68-250.967-19.588-366.538
	c-55.268-115.561-152.239-202.685-273.037-245.324L3245.674,1101.604z M3419.815,1679.747
	c-28.217,62.21-78.963,109.706-142.904,133.746c-29.277,11.004-59.728,16.489-90.1,16.489c-35.954,0-71.792-7.675-105.511-22.98
	c-128.411-58.244-185.499-210.095-127.254-338.506s210.095-185.49,338.515-127.246c62.201,28.199,109.697,78.946,133.737,142.895
	C3450.328,1548.077,3448.032,1617.546,3419.815,1679.747L3419.815,1679.747z"/>
<path d="M2956.262,2076.206c-26.742,0-53.537,4.831-79.316,14.528c-56.284,21.161-100.963,62.969-125.797,117.725
	c-51.276,113.053-1.016,246.737,112.029,298.013c54.765,24.834,115.915,26.866,172.207,5.705
	c56.284-21.161,100.963-62.969,125.797-117.725c51.276-113.053,1.016-246.737-112.029-298.013
	c-29.683-13.459-61.247-20.224-92.891-20.224V2076.206z M3095.484,2354.728c-24.358,53.696-77.445,85.508-132.889,85.508
	c-20.092,0-40.493-4.177-59.958-13.009c-35.441-16.064-62.492-44.979-76.182-81.409c-13.689-36.421-12.382-75.996,3.692-111.428
	c33.18-73.161,119.668-105.705,192.847-72.499C3096.146,2195.071,3128.664,2281.585,3095.484,2354.728L3095.484,2354.728z"/>
<path d="M2782.086,313.835c-49.324-49.333-114.917-76.499-184.678-76.499c-69.761,0-135.353,27.166-184.686,76.499
	L1355.837,1370.721c103.656-26.177,218.158,1.148,299.082,82.072l1087.293,1087.302c59.242,59.242,91.875,138.011,91.875,221.797
	c0,26.292-3.224,52.089-9.459,76.941l1056.541-1056.541c101.828-101.837,101.828-267.527,0-369.364L2782.068,313.835H2782.086z
	 M3579.941,1728.162c-46.56,131.926-141.712,237.826-267.915,298.181c-65.769,31.458-135.892,48.406-206.633,51.002
	c107.931,71.783,151.241,213.557,96,335.336c-29.71,65.504-83.15,115.517-150.482,140.829
	c-30.831,11.587-62.89,17.363-94.878,17.363c-37.852,0-75.598-8.081-111.11-24.19c-135.221-61.327-195.337-221.24-134.002-356.452
	c29.709-65.504,83.149-115.517,150.481-140.829c9.953-3.745,20.048-6.809,30.213-9.335c-10.439-4.168-20.71-8.575-30.734-13.344
	c-64.974,27.369-133.781,41.297-202.791,41.297c-58.792,0-117.699-9.98-174.468-30.027
	c-263.747-93.076-406.324-388.175-321.461-661.151c-63.323-116.577-71.624-262.608-22.255-402.473
	c46.578-131.917,141.738-237.808,267.933-298.164c126.204-60.355,268.357-67.95,400.257-21.372
	c169.328,59.772,297.024,203.921,336.669,378.531c38.965,4.469,77.709,13.221,115.605,26.601
	c131.926,46.56,237.817,141.712,298.181,267.915C3618.915,1454.082,3626.51,1596.245,3579.941,1728.162L3579.941,1728.162z"/>
<path d="M2962.966,2193.048c-38.647,0-75.634,22.159-92.608,59.578c-11.208,24.702-12.117,52.283-2.579,77.665
	c9.538,25.382,28.394,45.527,53.096,56.734c50.985,23.086,111.26,0.442,134.39-50.525c23.121-50.976,0.459-111.269-50.517-134.399
	c-13.556-6.147-27.784-9.052-41.773-9.052L2962.966,2193.048z"/>
<path d="M3988.95,1183.306l-54.438,54.438c-8.62,8.628-22.609,8.628-31.22,0L2957.269,291.73c-4.142-4.142-6.465-9.75-6.465-15.614
	c0-5.864,2.323-11.472,6.465-15.614l54.438-54.438l-66.952-66.952c-185.49-185.481-487.301-185.481-672.791,0L139.108,2271.976
	c-185.481,185.49-185.472,487.292,0,672.782l66.952,66.952l54.438-54.438c8.284-8.284,22.944-8.284,31.22,0l946.023,946.022
	c8.628,8.628,8.628,22.6,0,31.22l-54.438,54.438l66.952,66.952c89.711,89.703,209.176,139.106,336.395,139.106
	s246.684-49.404,336.387-139.106L4055.902,1923.04c89.703-89.703,139.098-209.167,139.098-336.387s-49.404-246.693-139.098-336.395
	l-66.961-66.961L3988.95,1183.306z M3912.397,1813.519L1813.516,3912.401c-59.525,59.525-137.711,89.287-215.897,89.287
	c-78.186,0-156.381-29.762-215.906-89.287L282.612,2813.309c-119.05-119.041-119.05-312.762,0-431.812l928.704-928.704l0,0
	l0.088-0.088L2381.502,282.615c57.67-57.67,134.346-89.438,215.906-89.438c81.56,0,158.236,31.767,215.897,89.438l1099.101,1099.092
	c119.05,119.041,119.05,312.762,0,431.812H3912.397z"/>
<path d="M1033.942,1041.947l-97.103,97.095c-8.628,8.62-8.628,22.6,0,31.22c4.31,4.31,9.962,6.465,15.614,6.465
	c5.652,0,11.304-2.155,15.614-6.465l97.103-97.094c8.629-8.62,8.629-22.6,0-31.22c-8.62-8.629-22.609-8.629-31.22,0H1033.942z"/>
<path d="M814.716,1261.174l-527.511,527.502c-8.629,8.628-8.629,22.6,0,31.22c4.31,4.31,9.962,6.465,15.614,6.465
	c5.652,0,11.305-2.155,15.614-6.465l527.511-527.502c8.628-8.628,8.628-22.6,0-31.22c-8.62-8.629-22.609-8.629-31.22,0H814.716z"/>
</svg>
