<?xml version="1.0" encoding="utf-8"?>
<!-- Generator: Adobe Illustrator 27.5.0, SVG Export Plug-In . SVG Version: 6.00 Build 0)  -->
<svg version="1.1" id="Ñëîé_1" xmlns="http://www.w3.org/2000/svg" xmlns:xlink="http://www.w3.org/1999/xlink" x="0px" y="0px"
	 viewBox="0 0 2000 2400" style="enable-background:new 0 0 2000 2400;" xml:space="preserve">
<rect y="0.001" style="fill:#FFFFFF;" width="2000" height="2400"/>
<g>
	<g>
		<path style="fill:#73C435;" d="M532.233,182.012c-181.006,0-328.29,147.243-328.29,328.29c0,181.006,147.284,328.25,328.29,328.25
			s328.29-147.243,328.29-328.25C860.523,329.255,713.239,182.012,532.233,182.012z M532.233,764.266
			c-50.342,0-99.074-14.809-140.885-42.817l-10.624-7.083l59.799-59.799c-10.462-10.745-17.263-21.368-21.287-28.732
			c-7.847-14.527-11.912-28.773-13.923-41.167l-77.143,77.143l-7.083-10.624c-28.008-41.811-42.817-90.543-42.817-140.885
			c0-140.04,113.924-253.964,253.964-253.964c50.382,0,99.075,14.769,140.926,42.777l10.583,7.083l-24.466,24.467l1.328,16.982
			c0.926,12.837,0.201,31.026-6.6,51.026l7.284,1.127l1.127,16.941c0.322,5.312,0.362,10.624,0.04,15.896l73.843-73.843
			l7.122,10.583c27.968,41.851,42.777,90.543,42.777,140.925C786.197,650.302,672.273,764.266,532.233,764.266z"/>
		<path style="fill:#73C435;" d="M627.887,398.471c-38.57-1.199-76.603,15.864-94.809,50.222
			c-18.284-34.783-58.42-52.803-98.149-50.061c-12.636-24.668-12.354-47.525-11.67-57.264
			c53.587-8.318,105.031,22.568,108.128,76.982c2.978-54.118,53.86-85.121,108.088-76.982
			C640.82,360.497,637.077,380.476,627.887,398.471z"/>
		<path style="fill:#73C435;" d="M629.497,475.413c-38.709-2.672-79.428,14.631-98.109,50.02
			c-17.658-33.451-57.142-52.543-94.889-50.181c-12.434-24.668-12.233-47.445-11.509-57.103
			c50.85-9.694,104.94,21.728,108.089,76.982c2.708-54.187,55.978-86.202,108.169-76.982
			C642.517,437.82,638.479,457.822,629.497,475.413z"/>
		<path style="fill:#73C435;" d="M627.928,552.032c-36.189-2.337-76.356,15.43-94.849,50.181
			c-18.638-35.278-57.667-51.673-98.189-50.061c-12.596-24.668-12.314-47.404-11.63-57.183
			c53.451-8.351,105.517,22.918,108.128,76.942c2.452-47.762,46.451-85.742,108.088-76.942
			C640.161,504.668,640.443,527.445,627.928,552.032z"/>
		<path style="fill:#73C435;" d="M533.199,688.33c0,0-0.081,0-0.121,0c-0.081,0-0.081,0-0.161,0
			c-61.727,0-112.508-53.195-107.928-116.58c51.517-9.792,104.983,22.391,108.089,76.901c2.487-49.152,48.336-85.692,108.169-76.901
			C645.111,635.892,595.564,687.827,533.199,688.33z"/>
	</g>
	<g>
		<path style="fill:#49493F;" d="M350.423,934.004v17.948h23.983c-3.42,9.215-11.066,13.803-22.938,13.803
			c-8.531,0-15.372-2.455-20.483-7.364c-5.151-4.91-7.686-11.228-7.686-18.994c0-7.847,2.495-14.326,7.485-19.357
			c4.99-5.03,11.267-7.565,18.874-7.565c4.869,0,9.255,1.006,13.159,2.978c3.863,1.932,6.801,4.467,8.773,7.525l17.384-9.98
			c-3.823-6.157-9.215-11.107-16.177-14.849c-6.962-3.783-14.648-5.634-22.978-5.634c-13.159,0-24.306,4.507-33.4,13.562
			c-9.095,9.054-13.642,20.121-13.642,33.159c0,13.079,4.588,24.104,13.803,33.079c9.175,8.934,20.724,13.44,34.648,13.44
			c12.797,0,23.34-3.984,31.67-11.992c8.33-7.968,12.515-18.672,12.515-32.073v-7.686H350.423z"/>
		<path style="fill:#49493F;" d="M427.404,964.225v-69.939h-20.483v89.658h52.515v-19.719H427.404z"/>
		<path style="fill:#49493F;" d="M515.131,894.286v58.914c0,8.37-4.668,12.555-14.085,12.555c-9.376,0-14.084-4.185-14.084-12.555
			v-58.914h-20.483v60.724c0,9.376,3.259,16.861,9.738,22.415c6.479,5.553,14.769,8.33,24.829,8.33
			c10.101,0,18.39-2.776,24.869-8.33c6.479-5.554,9.738-13.039,9.738-22.415v-60.724H515.131z"/>
		<path style="fill:#49493F;" d="M543.984,894.286v19.718h23.018v69.94h20.523v-69.94h23.058v-19.718H543.984z"/>
		<path style="fill:#49493F;" d="M640.04,964.225V948.33h31.992v-19.437H640.04v-14.89h35.212v-19.718h-55.734v89.658h56.378
			v-19.719H640.04z"/>
		<path style="fill:#49493F;" d="M737.344,894.286v48.692l-34.567-48.692h-15.373v89.658h20.483v-48.652l34.608,48.652h15.372
			v-89.658H737.344z"/>
		<path style="fill:#49493F;" d="M453.803,1039.558v-19.759h-54.447v89.658h20.483v-32.917h33.32v-19.718h-33.32v-17.263H453.803z"
			/>
		<path style="fill:#49493F;" d="M516.056,1076.539c4.95-2.535,8.934-6.157,11.952-10.825c3.058-4.628,4.547-9.698,4.547-15.171
			c0-8.531-2.978-15.774-8.934-21.771c-5.996-5.956-13.239-8.974-21.811-8.974h-35.855v89.658h20.483V1080h9.738l16.942,29.457
			h22.012L516.056,1076.539z M509.054,1058.752c-2.012,2.213-4.426,3.34-7.243,3.34h-15.372v-23.058h15.372
			c2.817,0,5.232,1.086,7.243,3.34c2.012,2.213,3.018,4.949,3.018,8.168C512.072,1053.803,511.066,1056.539,509.054,1058.752z"/>
		<path style="fill:#49493F;" d="M565.231,1089.738v-15.855h32.032v-19.477h-32.032v-14.849h35.211v-19.759h-55.694v89.658h56.338
			v-19.718H565.231z"/>
		<path style="fill:#49493F;" d="M633.119,1089.738v-15.855h31.992v-19.477h-31.992v-14.849h35.211v-19.759h-55.694v89.658h56.338
			v-19.718H633.119z"/>
	</g>
</g>
<g>
	<path style="fill:#73C435;" d="M1454.97,182.052c-180.966,2.576-326.116,151.952-323.501,332.958
		c2.616,181.006,151.952,326.117,332.958,323.541c181.006-2.616,326.157-151.992,323.541-332.998S1635.976,179.436,1454.97,182.052z
		 M1463.381,764.226c-50.343,0.724-99.276-13.36-141.53-40.765l-10.704-6.962l48.21-49.618
		c4.829-11.268,11.871-22.374,21.327-33.682c1.007-1.167,1.812-2.133,2.697-3.099c1.891-2.213,4.185-4.708,6.519-7.123
		c2.495-2.576,5.03-5.071,7.525-7.485c-5.514-5.755-10.825-11.791-15.654-18.27c-8.813-11.831-15.936-24.749-21.167-38.31
		l-102.776,105.794l-7.243-10.503c-28.572-41.408-44.064-89.899-44.789-140.241c-2.053-140.041,110.222-255.614,250.262-257.626
		c50.342-0.724,99.275,13.4,141.488,40.765l10.744,6.962l-48.088,49.457c0,0.04-0.04,0.04-0.04,0.04
		c-4.91,11.388-11.992,22.535-21.408,33.803c-1.087,1.288-2.173,2.575-3.341,3.823c-1.73,1.972-3.822,4.265-5.996,6.478
		c-2.454,2.576-4.989,4.869-7.524,7.284c5.594,5.794,10.905,11.871,15.734,18.35c8.813,11.791,15.896,24.708,21.207,38.31
		l102.736-105.755l7.243,10.503c28.612,41.408,44.104,89.94,44.829,140.282C1715.654,646.64,1603.38,762.213,1463.381,764.226z"/>
	<g>
		<path style="fill:#73C435;" d="M1533.883,339.316c-9.598,24.045-30.549,43.42-50.382,60.201
			c-5.604-4.357-16.379-11.351-18.028-12.314c25.852-16.958,47.521-31.218,61.328-51.63c5.835-8.611,10.141-18.431,12.556-29.135
			C1540.08,317.344,1538.229,328.732,1533.883,339.316z"/>
		<path style="fill:#73C435;" d="M1545.191,711.751c-2.696-10.664-7.324-20.362-13.36-28.813
			c-14.984-20.84-38.113-34.501-62.736-49.819c3.666-2.334,14.98-10.511,17.545-12.756c20.309,16.037,41.924,35.181,52.113,58.712
			C1543.381,689.457,1545.594,700.805,1545.191,711.751z"/>
		<path style="fill:#73C435;" d="M1454.809,594.527c-4.647,4.158-8.032,6.814-19.034,15.976
			c-12.834-10.413-22.229-20.497-30.141-31.066c-23.221-31.135-30.846-68.267-18.471-104.628
			c8.896-25.618,25.32-46.421,45.755-64.104c3.885,3.109,15.3,11.902,19.477,15.493c-16.249,15.52-31.766,36.085-38.351,57.465
			c-8.996,29.391-2.858,54.903,13.763,80.121C1434.537,574.107,1445.656,586.434,1454.809,594.527z"/>
		<path style="fill:#73C435;" d="M1515.774,577.867c-26.319,37.467-57.144,50.63-88.692,73.722
			c-21.308,15.612-40.568,33.426-47.002,62.536c-1.813-27.434,12.057-50.508,31.268-70.503c27.935-29.087,57.191-43.542,80-77.988
			c24.04-36.857,24.427-72.668,0.282-108.894c-33.676-49.37-89.934-66.722-110.946-115.251c-4.627-10.422-6.841-21.73-6.438-32.676
			c2.696,10.664,7.284,20.362,13.36,28.813c30.715,42.708,86.711,50.396,126.157,103.46
			C1544.384,482.093,1547.425,532.545,1515.774,577.867z"/>
	</g>
	<g>
		<path style="fill:#49493F;" d="M1353.159,934.004v17.948h23.943c-3.421,9.215-11.026,13.803-22.897,13.803
			c-8.571,0-15.372-2.455-20.523-7.364c-5.11-4.91-7.686-11.228-7.686-18.994c0-7.847,2.495-14.326,7.525-19.357
			c4.989-5.03,11.268-7.565,18.873-7.565c4.869,0,9.256,1.006,13.118,2.978c3.903,1.932,6.802,4.467,8.773,7.525l17.424-9.98
			c-3.822-6.157-9.255-11.107-16.177-14.849c-6.962-3.783-14.647-5.634-23.019-5.634c-13.158,0-24.265,4.507-33.359,13.562
			s-13.643,20.121-13.643,33.159c0,13.079,4.588,24.104,13.763,33.079c9.176,8.934,20.725,13.44,34.648,13.44
			c12.837,0,23.38-3.984,31.71-11.992c8.33-7.968,12.475-18.672,12.475-32.073v-7.686H1353.159z"/>
		<path style="fill:#49493F;" d="M1478.793,894.286l-24.306,39.839l-24.347-39.839h-20.482v89.658h20.482v-52.113l23.18,38.028
			h2.293l23.18-38.028v52.113h20.523v-89.658H1478.793z"/>
		<path style="fill:#49493F;" d="M1590.503,905.956c-9.055-8.974-20.08-13.44-33.038-13.44c-12.998,0-24.024,4.467-33.078,13.44
			c-9.015,8.974-13.562,20.04-13.562,33.159c0,13.159,4.547,24.225,13.562,33.199c9.054,8.934,20.08,13.44,33.078,13.44
			c12.958,0,23.983-4.507,33.038-13.44c9.055-8.974,13.562-20.04,13.562-33.199C1604.064,925.996,1599.558,914.93,1590.503,905.956z
			 M1576.097,958.35c-4.99,4.95-11.228,7.404-18.632,7.404c-7.444,0-13.642-2.455-18.632-7.404
			c-5.03-4.95-7.525-11.348-7.525-19.235c0-7.847,2.495-14.246,7.525-19.195c4.99-4.95,11.188-7.445,18.632-7.445
			c7.404,0,13.642,2.495,18.632,7.445c4.99,4.95,7.485,11.348,7.485,19.195C1583.582,947.002,1581.087,953.4,1576.097,958.35z"/>
		<path style="fill:#49493F;" d="M1376.338,1039.558v-19.759h-54.406v89.658h20.483v-32.917h33.279v-19.718h-33.279v-17.263
			H1376.338z"/>
		<path style="fill:#49493F;" d="M1438.592,1076.539c4.949-2.535,8.934-6.157,11.991-10.825c3.019-4.628,4.548-9.698,4.548-15.171
			c0-8.531-3.019-15.774-8.974-21.771c-5.996-5.956-13.239-8.974-21.771-8.974h-35.855v89.658h20.482V1080h9.739l16.901,29.457
			h22.012L1438.592,1076.539z M1431.63,1058.752c-2.013,2.213-4.427,3.34-7.243,3.34h-15.373v-23.058h15.373
			c2.816,0,5.23,1.086,7.243,3.34c1.972,2.213,2.978,4.949,2.978,8.168C1434.607,1053.803,1433.602,1056.539,1431.63,1058.752z"/>
		<path style="fill:#49493F;" d="M1487.767,1089.738v-15.855h32.032v-19.477h-32.032v-14.849h35.212v-19.759h-55.695v89.658h56.339
			v-19.718H1487.767z"/>
		<path style="fill:#49493F;" d="M1555.654,1089.738v-15.855h32.031v-19.477h-32.031v-14.849h35.211v-19.759h-55.694v89.658h56.338
			v-19.718H1555.654z"/>
	</g>
</g>
<g>
	<g>
		<g>
			<g>
				<g>
					<g>
						<path style="fill:#73C435;" d="M527.525,1286.398c-181.006,2.615-326.157,151.992-323.542,332.998
							c2.616,180.966,151.992,326.116,332.998,323.501c180.966-2.615,326.117-151.952,323.501-332.958
							C857.867,1428.934,708.491,1283.782,527.525,1286.398z M608.33,1555.654l13.36-14.165h33.441l78.994-81.288l7.244,10.503
							c28.572,41.449,44.064,89.939,44.788,140.282c2.052,140.04-110.221,255.573-250.261,257.625
							c-50.342,0.725-99.276-13.4-141.489-40.764l-10.744-6.963l85.875-86.841h-105.11l-34.044,35.051l-7.244-10.503
							c-28.611-41.408-44.104-89.939-44.829-140.282c-2.012-140,110.262-255.573,250.262-257.585
							c50.382-0.725,99.316,13.36,141.529,40.765l10.704,6.921l-72.475,75.654V1555.654z"/>
					</g>
				</g>
			</g>
		</g>
		<g>
			<g>
				<rect x="587.565" y="1600.442" style="fill:#73C435;" width="90.544" height="90.544"/>
			</g>
		</g>
		<g>
			<g>
				<polygon style="fill:#73C435;" points="574.326,1591.871 574.326,1671.026 539.155,1707.203 539.155,1563.38 594.246,1505.513 
					594.246,1570.181 				"/>
			</g>
		</g>
		<g>
			<g>
				<polygon style="fill:#73C435;" points="722.535,1648.209 692.233,1679.437 691.026,1596.057 721.328,1564.949 				"/>
			</g>
		</g>
		<g>
			<g>
				<polygon style="fill:#73C435;" points="680.845,1587.324 597.425,1587.324 627.767,1554.97 711.066,1554.97 				"/>
			</g>
		</g>
		<g>
			<g>
				<g>
					<rect x="375.332" y="1569.859" style="fill:#73C435;" width="149.738" height="147.605"/>
				</g>
			</g>
			<g>
				<g>
					<polygon style="fill:#73C435;" points="583.139,1495.533 526.921,1555.493 383.018,1555.493 439.235,1495.533 					"/>
				</g>
			</g>
		</g>
	</g>
	<g>
		<path style="fill:#49493F;" d="M392.193,2056.941c-1.248-2.857-2.656-5.15-4.226-6.922c-1.569-1.729-3.903-3.42-6.921-4.989
			c-3.018-1.569-5.513-2.696-7.485-3.38c-1.972-0.685-4.749-1.61-8.33-2.697c-6.56-1.972-10.906-3.742-12.998-5.392
			c-2.092-1.61-3.139-3.541-3.139-5.755c0-1.892,0.845-3.501,2.495-4.788c1.65-1.328,4.024-2.013,7.123-2.013
			c3.903,0,7.082,0.886,9.457,2.616c2.415,1.771,4.427,4.346,6.036,7.767l17.264-10.101c-3.219-6.6-7.646-11.59-13.32-15.051
			c-5.634-3.461-12.113-5.191-19.436-5.191c-8.21,0-15.292,2.455-21.207,7.405c-5.956,4.949-8.893,11.589-8.893,19.879
			c0,4.064,0.684,7.727,2.092,10.865c1.409,3.179,3.461,5.795,6.157,7.887c2.696,2.093,5.433,3.783,8.25,5.071
			c2.817,1.287,6.117,2.414,9.859,3.46c7.203,1.973,12.073,3.662,14.688,5.151c2.616,1.529,3.904,3.581,3.904,6.237
			c0,4.869-4.064,7.284-12.153,7.284c-8.974,0-15.251-4.146-18.832-12.436l-17.707,10.262c2.576,6.842,6.922,12.233,13.038,16.218
			c6.077,3.943,13.723,5.955,22.857,5.955c9.9,0,17.907-2.454,24.065-7.363c6.157-4.91,9.215-11.63,9.215-20.161
			C394.044,2063.059,393.441,2059.799,392.193,2056.941z"/>
		<path style="fill:#49493F;" d="M452.314,2002.816v58.914c0,8.37-4.668,12.556-14.085,12.556c-9.376,0-14.085-4.186-14.085-12.556
			v-58.914h-20.483v60.725c0,9.376,3.219,16.861,9.738,22.414c6.479,5.554,14.769,8.33,24.829,8.33
			c10.101,0,18.35-2.776,24.869-8.33c6.479-5.553,9.738-13.038,9.738-22.414v-60.725H452.314z"/>
		<path style="fill:#49493F;" d="M531.348,2042.535v17.907h23.943c-3.42,9.256-11.066,13.844-22.897,13.844
			c-8.572,0-15.372-2.455-20.523-7.364c-5.11-4.91-7.686-11.228-7.686-18.994c0-7.888,2.495-14.326,7.525-19.356
			c4.99-5.03,11.268-7.565,18.874-7.565c4.869,0,9.255,1.006,13.119,2.938c3.903,1.972,6.801,4.508,8.773,7.565l17.425-9.979
			c-3.823-6.157-9.255-11.106-16.217-14.85c-6.921-3.782-14.607-5.634-22.978-5.634c-13.159,0-24.266,4.508-33.36,13.562
			c-9.095,9.055-13.642,20.121-13.642,33.159c0,13.078,4.588,24.104,13.763,33.078c9.175,8.934,20.725,13.44,34.648,13.44
			c12.796,0,23.38-3.983,31.71-11.991c8.33-7.968,12.475-18.672,12.475-32.072v-7.687H531.348z"/>
		<path style="fill:#49493F;" d="M633.562,2002.816h-26.157l-30.463,89.658h22.415l4.467-14.084h33.32l4.467,14.084h22.414
			L633.562,2002.816z M609.98,2059.195l10.503-32.918l10.503,32.918H609.98z"/>
		<path style="fill:#49493F;" d="M721.811,2059.558c4.95-2.535,8.934-6.157,11.952-10.825c3.058-4.628,4.547-9.698,4.547-15.171
			c0-8.531-2.978-15.775-8.974-21.771c-5.956-5.956-13.199-8.975-21.77-8.975H671.71v89.658h20.483v-29.456h9.738l16.942,29.456
			h22.012L721.811,2059.558z M714.809,2041.771c-2.012,2.213-4.427,3.34-7.244,3.34h-15.372v-23.058h15.372
			c2.817,0,5.231,1.086,7.244,3.34c2.012,2.213,3.018,4.909,3.018,8.169S716.821,2039.558,714.809,2041.771z"/>
		<path style="fill:#49493F;" d="M453.803,2148.088v-19.758h-54.447v89.658h20.483v-32.918h33.32v-19.718h-33.32v-17.265H453.803z"
			/>
		<path style="fill:#49493F;" d="M516.056,2185.07c4.95-2.535,8.934-6.157,11.952-10.825c3.058-4.627,4.547-9.698,4.547-15.171
			c0-8.531-2.978-15.774-8.934-21.771c-5.996-5.956-13.239-8.974-21.811-8.974h-35.855v89.658h20.483v-29.457h9.738l16.942,29.457
			h22.012L516.056,2185.07z M509.054,2167.283c-2.012,2.214-4.426,3.341-7.243,3.341h-15.372v-23.059h15.372
			c2.817,0,5.232,1.087,7.243,3.34c2.012,2.213,3.018,4.95,3.018,8.169C512.072,2162.334,511.066,2165.07,509.054,2167.283z"/>
		<path style="fill:#49493F;" d="M565.231,2198.27v-15.896h32.032v-19.437h-32.032v-14.85h35.211v-19.758h-55.694v89.658h56.338
			v-19.719H565.231z"/>
		<path style="fill:#49493F;" d="M633.119,2198.27v-15.896h31.992v-19.437h-31.992v-14.85h35.211v-19.758h-55.694v89.658h56.338
			v-19.719H633.119z"/>
	</g>
</g>
<g>
	<g>
		<g>
			<path style="fill:#73C435;" d="M1459.719,1286.358c-181.007,0-328.29,147.283-328.29,328.289
				c0,181.047,147.283,328.29,328.29,328.29c181.006,0,328.289-147.243,328.289-328.29
				C1788.008,1433.642,1640.725,1286.358,1459.719,1286.358z M1459.719,1868.611c-50.343,0-99.075-14.809-140.926-42.776
				l-10.584-7.123l55.453-55.452c-16.74-20.846-27.767-46.438-30.704-74.407l-77.304,77.305l-7.123-10.584
				c-27.968-41.851-42.776-90.583-42.776-140.926c0-140.04,113.923-253.963,253.964-253.963c50.342,0,99.074,14.809,140.885,42.816
				l10.624,7.083l-74.406,74.406c12.354,20.241,25.835,43.34,38.229,66.881l88.731-88.732l7.083,10.624
				c28.008,41.811,42.816,90.543,42.816,140.885C1713.682,1754.688,1599.759,1868.611,1459.719,1868.611z"/>
			<path style="fill:#73C435;" d="M1557.626,1569.296c-12.072-23.179-25.554-46.479-38.028-67.083
				c-23.863-39.437-44.186-69.014-44.186-69.014s-110.623,161.167-119.194,232.395c-0.403,2.856-0.563,5.594-0.563,8.169
				c0,27.404,9.215,52.676,24.668,72.837c21.891,28.531,56.338,46.922,95.09,46.922c66.117,0,119.719-53.603,119.719-119.759
				C1595.131,1649.135,1578.471,1609.416,1557.626,1569.296z M1527.123,1581.006c2.092,3.823,0.724,8.571-3.059,10.664
				c-1.207,0.685-2.495,1.006-3.783,1.006c-2.776,0-5.433-1.488-6.881-4.064l-21.489-38.913c-2.093-3.782-0.724-8.571,3.059-10.664
				c3.783-2.093,8.571-0.725,10.664,3.059L1527.123,1581.006z M1491.268,1759.638c-5.191,0.926-10.543,1.449-15.855,1.449
				c-23.3,0-45.191-9.095-61.73-25.594c-3.058-3.099-3.058-8.049,0-11.106c3.099-3.059,8.049-3.059,11.107,0
				c13.561,13.521,31.509,21.006,50.623,21.006c4.387,0,8.732-0.402,12.998-1.208c33.964-6.237,58.592-35.854,58.592-70.422
				c0-5.473-2.093-16.941-12.193-40.644c-1.69-3.984,0.161-8.572,4.146-10.262c4.023-1.73,8.611,0.161,10.302,4.145
				c9.054,21.248,13.44,36.539,13.44,46.761C1562.696,1715.896,1532.676,1751.992,1491.268,1759.638z"/>
		</g>
	</g>
	<g>
		<path style="fill:#49493F;" d="M1211.63,2072.757v-69.94h-20.483v89.658h52.516v-19.718H1211.63z"/>
		<path style="fill:#49493F;" d="M1304.104,2002.816h-26.116l-30.503,89.658h22.414l4.507-14.084h33.28l4.507,14.084h22.414
			L1304.104,2002.816z M1280.523,2059.195l10.543-32.918l10.463,32.918H1280.523z"/>
		<path style="fill:#49493F;" d="M1394.205,2071.349c-3.702,1.972-7.847,2.938-12.354,2.938c-7.928,0-14.286-2.415-19.035-7.284
			c-4.708-4.869-7.082-11.308-7.082-19.356c0-8.008,2.374-14.446,7.082-19.315c4.749-4.869,11.107-7.324,19.035-7.324
			c4.507,0,8.611,0.966,12.313,2.897c3.662,1.932,6.479,4.628,8.45,8.129l17.666-10.262c-3.943-6.398-9.295-11.469-16.137-15.171
			c-6.841-3.702-14.285-5.554-22.293-5.554c-13.4,0-24.508,4.467-33.36,13.36c-8.854,8.934-13.28,20-13.28,33.239
			c0,13.24,4.427,24.347,13.28,33.24c8.853,8.934,19.96,13.399,33.36,13.399c8.128,0,15.573-1.851,22.414-5.593
			c6.841-3.702,12.152-8.773,16.016-15.171l-17.666-10.262C1400.725,2066.68,1397.947,2069.376,1394.205,2071.349z"/>
		<path style="fill:#49493F;" d="M1423.461,2002.816v19.719h23.059v69.939h20.522v-69.939h23.018v-19.719H1423.461z"/>
		<path style="fill:#49493F;" d="M1569.738,2014.487c-9.054-8.975-20.08-13.441-33.038-13.441c-12.998,0-23.984,4.467-33.038,13.441
			c-9.055,8.974-13.602,20.04-13.602,33.158c0,13.159,4.547,24.226,13.602,33.199c9.054,8.934,20.04,13.44,33.038,13.44
			c12.958,0,23.984-4.507,33.038-13.44c9.055-8.974,13.601-20.04,13.601-33.199
			C1583.34,2034.527,1578.793,2023.461,1569.738,2014.487z M1555.332,2066.881c-4.99,4.95-11.188,7.405-18.632,7.405
			s-13.642-2.455-18.632-7.405c-4.99-4.949-7.484-11.388-7.484-19.235c0-7.847,2.494-14.245,7.484-19.194
			c4.99-4.95,11.188-7.445,18.632-7.445s13.642,2.495,18.632,7.445c4.99,4.949,7.484,11.348,7.484,19.194
			C1562.816,2055.493,1560.322,2061.932,1555.332,2066.881z"/>
		<path style="fill:#49493F;" d="M1654.487,2056.941c-1.248-2.857-2.656-5.15-4.226-6.922c-1.609-1.729-3.903-3.42-6.922-4.989
			c-3.058-1.569-5.553-2.696-7.525-3.38c-1.931-0.685-4.708-1.61-8.289-2.697c-6.6-1.972-10.946-3.742-12.998-5.392
			c-2.093-1.61-3.139-3.541-3.139-5.755c0-1.892,0.805-3.501,2.494-4.788c1.65-1.328,4.024-2.013,7.083-2.013
			c3.943,0,7.082,0.886,9.497,2.616c2.374,1.771,4.386,4.346,5.996,7.767l17.304-10.101c-3.26-6.6-7.687-11.59-13.32-15.051
			s-12.112-5.191-19.477-5.191c-8.169,0-15.251,2.455-21.167,7.405c-5.956,4.949-8.934,11.589-8.934,19.879
			c0,4.064,0.724,7.727,2.133,10.865c1.408,3.179,3.461,5.795,6.157,7.887c2.655,2.093,5.433,3.783,8.249,5.071
			c2.817,1.287,6.117,2.414,9.859,3.46c7.163,1.973,12.072,3.662,14.647,5.151c2.616,1.529,3.903,3.581,3.903,6.237
			c0,4.869-4.023,7.284-12.152,7.284c-8.974,0-15.252-4.146-18.833-12.436l-17.666,10.262c2.575,6.842,6.881,12.233,12.998,16.218
			c6.116,3.943,13.722,5.955,22.856,5.955c9.9,0,17.948-2.454,24.105-7.363c6.116-4.91,9.215-11.63,9.215-20.161
			C1656.338,2063.059,1655.694,2059.799,1654.487,2056.941z"/>
		<path style="fill:#49493F;" d="M1686.438,2072.757v-15.896h31.992v-19.437h-31.992v-14.89h35.212v-19.719h-55.735v89.658h56.379
			v-19.718H1686.438z"/>
		<path style="fill:#49493F;" d="M1376.338,2148.088v-19.758h-54.406v89.658h20.483v-32.918h33.279v-19.718h-33.279v-17.265
			H1376.338z"/>
		<path style="fill:#49493F;" d="M1438.592,2185.07c4.949-2.535,8.934-6.157,11.991-10.825c3.019-4.627,4.548-9.698,4.548-15.171
			c0-8.531-3.019-15.774-8.974-21.771c-5.996-5.956-13.239-8.974-21.771-8.974h-35.855v89.658h20.482v-29.457h9.739l16.901,29.457
			h22.012L1438.592,2185.07z M1431.63,2167.283c-2.013,2.214-4.427,3.341-7.243,3.341h-15.373v-23.059h15.373
			c2.816,0,5.23,1.087,7.243,3.34c1.972,2.213,2.978,4.95,2.978,8.169C1434.607,2162.334,1433.602,2165.07,1431.63,2167.283z"/>
		<path style="fill:#49493F;" d="M1487.767,2198.27v-15.896h32.032v-19.437h-32.032v-14.85h35.212v-19.758h-55.695v89.658h56.339
			v-19.719H1487.767z"/>
		<path style="fill:#49493F;" d="M1555.654,2198.27v-15.896h32.031v-19.437h-32.031v-14.85h35.211v-19.758h-55.694v89.658h56.338
			v-19.719H1555.654z"/>
	</g>
</g>
</svg>
