<?xml version="1.0" encoding="utf-8"?>
<!-- Generator: Adobe Illustrator 27.5.0, SVG Export Plug-In . SVG Version: 6.00 Build 0)  -->
<svg version="1.1" id="Layer_1" xmlns="http://www.w3.org/2000/svg" xmlns:xlink="http://www.w3.org/1999/xlink" x="0px" y="0px"
	 viewBox="0 0 4000 4000" style="enable-background:new 0 0 4000 4000;" xml:space="preserve">
<rect x="0" style="fill:#FFFFFF;" width="4000" height="4000"/>
<g>
	<g>
		<path d="M2905.388,2159.043c-95.7,103.872-220.309,156.303-370.855,156.303c-16.219,0-32.746-0.618-49.522-1.857
			c-40.979-2.971-80.844-10.4-119.038-21.913c12.876-30.271,26.185-60.417,39.679-89.821
			c81.463-177.783,176.73-350.799,283.264-514.345c31.818-48.84,18.261-114.952-30.27-147.513
			c-17.704-11.823-38.255-18.075-59.55-18.075c-36.522,0-70.135,18.199-90.006,48.779
			c-111.238,170.787-210.529,350.675-294.964,534.587c-12.752,27.608-25.565,56.207-38.008,85.053
			c-81.958-67.286-143.675-158.221-173.573-263.393c-12.752-44.818-19.066-89.758-19.066-134.576
			c0-121.328,46.427-241.233,137.547-352.718c77.563-94.833,179.64-172.149,295.273-223.527l610.726-271.689
			c14.671-6.5,31.508-5.819,45.622,1.857c14.052,7.676,23.771,21.48,26.247,37.327
			C3104.094,1017.26,3223.194,1814.311,2905.388,2159.043z"/>
	</g>
	<g>
		<path d="M1795.174,2002.06c-13.866,34.479-32.746,66.421-55.836,95.143c-8.047-10.709-16.156-21.356-24.142-31.941
			c-11.019-14.548-22.037-28.969-32.87-43.084c-2.043-2.724-10.152-13.309-12.442-16.343
			c-89.634-117.056-182.302-238.075-251.57-364.912c-18.818-34.356-54.907-55.712-94.091-55.712
			c-17.89,0-35.656,4.518-51.255,13.124c-25.194,13.68-43.517,36.398-51.564,63.882c-8.109,27.547-4.952,56.517,8.79,81.588
			c77.068,141.074,174.75,268.716,269.15,392.087l13.928,18.2c10.338,13.556,20.737,27.175,31.075,40.731
			c6.995,9.285,13.99,18.509,20.985,27.918c-7.057,2.663-14.238,5.2-21.48,7.552c-42.217,13.619-85.301,20.366-127.642,20.366
			c-71.559,0-141.075-19.251-200.872-56.888c-79.359-49.956-145.841-132.162-197.715-244.203
			c-18.942-40.918-57.445-239.995-86.354-399.702c-15.414-85.053-30.27-171.716-40.855-237.827
			c-5.324-33.366-9.347-60.046-11.947-79.235c-4.519-33.736-6.747-50.698,7.057-69.207c11.328-15.166,30.27-22.966,48.965-20.18
			c0.062,0,0.062,0,0.124,0c16.59,2.538,409.668,63.388,674.547,264.074c85.301,64.563,152.155,158.964,188.306,265.807
			C1835.782,1786.517,1834.978,1903.264,1795.174,2002.06z"/>
		<path d="M2642.243,1657.018c-108.886,167.136-204.71,341.39-287.226,521.525c-14.3,31.198-28.166,62.644-41.598,94.277
			c-82.02,191.834-148.998,390.231-200.563,594.074l-39.06,154.322c-5.881,23.338-26.866,38.875-49.893,38.875
			c-1.671,0-3.281-0.062-4.952-0.31c-1.609,0.186-3.343,0.31-4.952,0.31c-25.627,0-47.85-19.128-51.069-45.189
			c-18.694-150.421-50.017-280.478-95.639-397.597c-60.045-154.012-154.693-291.063-250.146-418.396
			c-9.471-12.69-18.942-25.194-28.413-37.698c-11.576-15.29-23.275-30.579-34.913-45.808c-3.281-4.272-6.562-8.604-9.842-12.875
			c-93.286-121.885-189.792-247.918-264.879-385.403c-13.68-24.946-4.519-56.27,20.49-69.887
			c24.947-13.68,56.207-4.457,69.888,20.49c71.311,130.551,165.34,253.365,256.275,372.155c4.024,5.324,8.109,10.586,12.133,15.909
			c11.019,14.361,21.975,28.723,32.932,43.145c9.966,13.125,19.994,26.371,29.961,39.742
			c99.415,132.656,198.149,276.083,262.465,441.238c25.442,65.244,46.674,133.956,63.945,207.372
			c51.564-192.825,116.623-380.822,194.93-563.062c13.742-32.065,27.918-63.944,42.589-95.638
			c83.692-182.24,180.878-358.413,291.063-527.592c15.661-24.08,48.036-30.765,71.93-14.795
			C2651.033,1601.863,2657.594,1633.433,2642.243,1657.018z"/>
		<path d="M2642.243,1657.018c-108.886,167.136-204.71,341.39-287.226,521.525c-14.3,31.198-28.166,62.644-41.598,94.277
			c-82.02,191.834-148.998,390.231-200.563,594.074l-39.06,154.322c-5.881,23.338-26.866,38.875-49.893,38.875
			c-1.671,0-3.281-0.062-4.952-0.31c-1.609,0.186-3.343,0.31-4.952,0.31c-25.627,0-47.85-19.128-51.069-45.189
			c-18.694-150.421-50.017-280.478-95.639-397.597c-60.045-154.012-154.693-291.063-250.146-418.396
			c-9.471-12.69-18.942-25.194-28.413-37.698c-11.576-15.29-23.275-30.579-34.913-45.808c-3.281-4.272-6.562-8.604-9.842-12.875
			c-93.286-121.885-189.792-247.918-264.879-385.403c-13.68-24.946-4.519-56.27,20.49-69.887
			c24.947-13.68,56.207-4.457,69.888,20.49c71.311,130.551,165.34,253.365,256.275,372.155c4.024,5.324,8.109,10.586,12.133,15.909
			c11.019,14.361,21.975,28.723,32.932,43.145c9.966,13.125,19.994,26.371,29.961,39.742
			c99.415,132.656,198.149,276.083,262.465,441.238c25.442,65.244,46.674,133.956,63.945,207.372
			c51.564-192.825,116.623-380.822,194.93-563.062c13.742-32.065,27.918-63.944,42.589-95.638
			c83.692-182.24,180.878-358.413,291.063-527.592c15.661-24.08,48.036-30.765,71.93-14.795
			C2651.033,1601.863,2657.594,1633.433,2642.243,1657.018z"/>
	</g>
</g>
</svg>
