<?xml version="1.0" standalone="no"?>
<!DOCTYPE svg PUBLIC "-//W3C//DTD SVG 20010904//EN"
 "http://www.w3.org/TR/2001/REC-SVG-20010904/DTD/svg10.dtd">
<svg version="1.0" xmlns="http://www.w3.org/2000/svg"
 width="422.000000pt" height="422.000000pt" viewBox="0 0 422.000000 422.000000"
 preserveAspectRatio="xMidYMid meet">
<metadata>
Created by potrace 1.14, written by Peter Selinger 2001-2017
</metadata>
<g transform="translate(0.000000,422.000000) scale(0.100000,-0.100000)"
fill="#000000" stroke="none">
<path d="M2664 2880 c-9 -19 -24 -69 -36 -109 -37 -136 -7 -276 75 -346 46
-39 169 -91 225 -94 21 -2 13 -21 -10 -21 -20 0 -20 -1 -4 -18 15 -17 16 -51
14 -323 l-3 -304 -39 -3 c-21 -2 -44 2 -50 8 -6 6 -11 63 -11 148 -2 160 -11
197 -65 246 -45 40 -88 51 -165 41 -38 -4 -55 -3 -55 5 0 27 -20 -5 -34 -54
-20 -68 -20 -88 0 -56 23 36 82 79 125 90 50 14 104 -8 120 -47 11 -25 19
-256 11 -294 -7 -30 -82 -63 -145 -64 -52 0 -61 3 -83 28 -29 34 -30 65 -4
117 30 58 137 130 195 130 14 0 25 5 25 10 0 31 -159 -43 -218 -102 -74 -73
-92 -149 -47 -193 13 -14 32 -25 42 -26 10 0 26 -2 36 -4 27 -5 114 23 158 51
l39 24 15 -30 c15 -29 15 -30 -5 -30 -11 0 -20 -7 -20 -15 0 -13 29 -15 201
-15 156 0 200 3 197 13 -3 7 -32 14 -79 17 l-74 5 -3 118 -3 117 32 40 32 40
17 -38 c9 -20 43 -71 76 -112 112 -142 117 -150 104 -165 -15 -19 -5 -22 70
-19 82 2 81 2 45 20 -16 8 -44 34 -61 57 -18 23 -63 83 -101 132 -38 50 -81
106 -96 126 l-27 35 33 45 c58 80 90 109 151 139 l61 29 -74 1 c-64 0 -72 -2
-61 -15 10 -12 -2 -34 -71 -127 -46 -62 -94 -124 -106 -137 l-23 -24 0 173 c0
147 2 176 17 192 15 17 15 18 -11 18 -40 0 -24 15 31 30 61 17 161 65 191 93
58 54 94 184 80 292 -9 68 -38 184 -47 186 -3 1 -133 2 -289 3 l-284 2 -14
-36z"/>
<path d="M340 2310 c0 -3 18 -6 39 -6 22 1 37 4 34 9 -5 9 -73 6 -73 -3z"/>
<path d="M430 2311 c0 -4 21 -13 48 -20 55 -14 126 -61 171 -113 71 -82 94
-231 52 -336 -55 -136 -172 -215 -320 -214 -253 1 -411 264 -295 493 42 83 97
130 204 171 41 16 42 17 10 12 -112 -19 -216 -122 -253 -249 -28 -99 0 -244
59 -302 7 -8 17 -20 21 -28 13 -23 112 -84 156 -96 166 -47 336 24 412 171 87
169 30 366 -136 472 -31 20 -129 50 -129 39z"/>
<path d="M923 2296 c15 -12 17 -40 17 -319 0 -281 -1 -307 -17 -316 -10 -6
-13 -11 -8 -12 65 -10 138 0 101 14 -14 6 -16 37 -16 269 0 174 3 259 10 252
5 -5 54 -75 107 -154 91 -134 100 -144 131 -145 19 -1 31 3 29 9 -3 6 -10 10
-16 8 -18 -4 -14 4 44 90 31 44 54 83 51 85 -2 3 -22 -21 -43 -54 -39 -60 -53
-74 -65 -70 -4 1 -61 81 -125 177 l-118 175 -50 3 c-44 2 -48 0 -32 -12z"/>
<path d="M1480 2285 c-9 -23 -59 -104 -70 -115 -14 -12 -51 -80 -43 -79 4 0
29 34 55 75 26 40 51 74 55 74 5 0 8 -126 8 -280 0 -209 -3 -282 -13 -292 -21
-21 -14 -24 43 -24 60 0 61 1 42 20 -18 19 -16 608 2 630 12 14 9 16 -28 16
-35 0 -43 -4 -51 -25z"/>
<path d="M3933 2287 c-7 -15 -20 -30 -28 -32 -54 -17 -52 -15 -32 -26 16 -9
17 -33 17 -285 0 -234 -2 -275 -15 -280 -29 -11 -5 -21 47 -18 67 2 65 2 45
17 -15 11 -17 45 -19 332 -3 264 -5 315 -15 292z"/>
<path d="M4060 2215 c-10 -12 -10 -18 0 -30 24 -29 66 -11 55 24 -7 24 -37 28
-55 6z"/>
<path d="M317 2210 c-16 -5 -35 -15 -44 -22 -9 -7 -18 -11 -20 -10 -7 6 -58
-41 -82 -75 -12 -18 -18 -33 -12 -33 6 0 17 12 25 28 30 57 115 105 191 106
25 1 45 4 45 9 0 9 -67 8 -103 -3z"/>
<path d="M430 2212 c0 -4 21 -16 47 -26 48 -20 104 -67 116 -99 3 -9 11 -17
17 -17 12 0 -13 39 -49 77 -30 32 -131 82 -131 65z"/>
<path d="M1687 2110 c-3 -8 -11 -34 -17 -58 -6 -24 -14 -51 -17 -60 -3 -9 7
-2 22 16 38 46 108 84 157 86 33 1 45 -5 67 -30 31 -34 37 -85 11 -89 -8 -2
-30 -5 -48 -8 -19 -3 -58 -20 -89 -39 -112 -67 -182 -186 -140 -241 40 -53
126 -54 229 -3 66 33 66 34 72 12 6 -24 61 -60 77 -51 6 5 5 11 -5 18 -13 10
-16 39 -17 157 -1 156 -8 185 -53 232 -48 50 -82 61 -162 54 -53 -4 -74 -2
-77 7 -3 8 -6 8 -10 -3z m240 -259 l-2 -115 -40 -23 c-77 -43 -162 -41 -192 4
-51 77 36 198 169 238 70 20 67 24 65 -104z"/>
<path d="M1799 1804 c-10 -12 -9 -18 4 -31 13 -13 19 -14 31 -4 16 14 12 37
-9 45 -7 2 -19 -2 -26 -10z"/>
<path d="M2160 2108 c-32 -9 -79 -51 -81 -73 0 -5 -2 -19 -4 -30 -7 -34 14
-80 46 -104 17 -13 63 -34 102 -47 39 -13 81 -34 94 -46 65 -61 -20 -161 -116
-136 -19 5 -54 30 -82 59 -27 28 -49 46 -49 41 0 -11 31 -116 36 -121 2 -2 10
1 17 8 11 8 27 8 68 -2 90 -23 170 7 203 77 22 46 20 68 -6 102 -33 43 -46 50
-128 74 -41 12 -85 31 -97 43 -34 30 -31 81 6 118 51 50 128 33 197 -43 19
-22 37 -38 38 -36 2 1 -6 31 -17 66 -15 46 -23 59 -29 49 -6 -12 -15 -14 -41
-6 -52 15 -120 18 -157 7z"/>
<path d="M3465 2055 c-17 -64 -15 -102 4 -53 9 25 67 70 111 86 55 21 125 -9
138 -59 5 -22 8 -221 3 -285 -1 -16 -73 -52 -118 -60 -122 -19 -173 81 -91
180 33 41 133 96 173 96 14 0 25 5 25 10 0 31 -161 -44 -218 -101 -75 -76 -94
-151 -50 -195 44 -44 151 -34 239 22 l38 24 13 -27 c14 -29 55 -56 71 -46 5 3
3 9 -4 13 -9 6 -13 48 -15 157 -2 191 -17 228 -109 275 -32 17 -51 19 -104 14
-37 -3 -69 -1 -76 4 -9 7 -17 -8 -30 -55z"/>
<path d="M4095 2091 c-3 -10 -19 -24 -35 -31 -27 -11 -28 -14 -15 -34 19 -30
18 -342 -1 -361 -8 -7 -14 -15 -14 -17 0 -4 107 -2 120 1 3 1 -3 6 -12 12 -16
9 -18 31 -18 229 0 202 -7 257 -25 201z"/>
<path d="M280 2055 c-7 -8 -9 -15 -6 -15 4 0 14 7 22 15 9 8 11 15 6 15 -5 0
-15 -7 -22 -15z"/>
<path d="M200 2040 c-9 -6 -10 -10 -3 -10 6 0 15 5 18 10 8 12 4 12 -15 0z"/>
<path d="M235 2040 c3 -5 2 -10 -3 -10 -6 0 -13 -8 -16 -17 -6 -16 -6 -16 12
0 10 9 23 14 27 10 5 -5 3 0 -4 10 -14 18 -26 24 -16 7z"/>
<path d="M481 2028 c-1 -10 -6 -18 -13 -18 -6 0 -4 -6 6 -13 11 -8 16 -20 13
-28 -4 -10 -6 -9 -6 4 -1 10 -6 15 -11 12 -6 -3 -13 0 -16 8 -3 8 -19 14 -37
14 -18 0 -24 -2 -14 -4 29 -7 19 -19 -14 -17 -18 1 -36 8 -40 16 -6 9 -9 7 -9
-9 0 -20 4 -22 34 -17 19 3 37 1 40 -4 3 -5 -17 -8 -44 -7 -27 1 -55 -2 -62
-8 -10 -7 -10 -8 2 -4 8 2 37 1 63 -3 26 -4 47 -4 47 -1 0 3 22 6 50 5 39 0
47 2 39 12 -7 8 -7 14 1 19 5 3 10 12 9 18 0 9 -2 9 -6 0 -2 -7 -9 -13 -14
-13 -6 0 -8 3 -6 8 3 4 1 16 -4 27 -6 17 -8 17 -8 3z m-23 -59 c11 0 13 -2 4
-6 -22 -9 -42 5 -35 24 7 17 8 17 11 1 2 -10 11 -18 20 -19z"/>
<path d="M577 2023 c3 -13 11 -23 19 -23 18 0 27 17 13 26 -8 4 -9 3 -5 -4 11
-19 -5 -14 -20 6 -12 15 -12 15 -7 -5z"/>
<path d="M295 1999 c4 -5 -3 -9 -14 -9 -28 0 -34 -15 -13 -31 16 -13 16 -13 2
5 -14 17 -13 18 7 12 12 -4 24 -2 28 4 3 6 10 8 14 6 4 -3 8 1 8 7 0 7 -9 14
-19 14 -10 1 -16 -2 -13 -8z"/>
<path d="M537 1990 c3 -11 10 -20 17 -21 6 0 2 -4 -9 -9 -19 -8 -19 -9 3 -9
17 -1 22 5 22 25 0 14 -4 23 -10 19 -5 -3 -10 -1 -10 4 0 6 -4 11 -9 11 -5 0
-7 -9 -4 -20z"/>
<path d="M177 1962 c-31 -32 -35 -62 -9 -63 9 0 30 -2 45 -3 16 -1 31 2 33 6
3 4 -15 8 -40 8 -25 0 -46 4 -46 9 0 5 12 23 26 40 32 39 27 40 -9 3z"/>
<path d="M589 1981 c7 -5 17 -15 22 -22 6 -10 8 -8 7 7 -1 12 -10 21 -22 22
-15 1 -17 -1 -7 -7z"/>
<path d="M580 1959 c0 -5 5 -7 10 -4 6 3 10 8 10 11 0 2 -4 4 -10 4 -5 0 -10
-5 -10 -11z"/>
<path d="M395 1920 c-3 -5 -1 -10 4 -10 6 0 11 5 11 10 0 6 -2 10 -4 10 -3 0
-8 -4 -11 -10z"/>
<path d="M265 1900 c3 -5 8 -10 11 -10 2 0 4 5 4 10 0 6 -5 10 -11 10 -5 0 -7
-4 -4 -10z"/>
<path d="M156 1845 c4 -8 10 -15 15 -15 5 0 9 -6 9 -14 0 -20 56 -65 109 -88
74 -31 153 -25 228 18 41 24 108 102 97 113 -4 3 -9 0 -12 -7 -9 -28 -67 -84
-106 -104 -23 -12 -67 -22 -101 -25 -51 -3 -69 1 -115 24 -35 18 -66 43 -85
70 -30 42 -49 56 -39 28z"/>
<path d="M2634 1825 c-4 -9 -2 -21 4 -27 15 -15 44 -1 40 19 -4 23 -36 29 -44
8z"/>
<path d="M3601 1807 c-16 -16 -14 -34 5 -41 21 -8 34 1 34 24 0 22 -23 33 -39
17z"/>
<path d="M2509 1537 c-3 -94 -1 -138 4 -144 8 -8 10 10 9 96 -1 61 -11 101
-13 48z"/>
<path d="M2780 1523 c0 -21 -4 -33 -8 -27 -29 43 -94 1 -87 -57 6 -42 44 -67
71 -47 7 5 18 7 25 6 9 -2 12 18 13 75 1 44 -2 81 -6 84 -5 2 -8 -13 -8 -34z
m-11 -37 c31 -37 -9 -103 -46 -80 -37 23 -24 94 17 94 10 0 23 -6 29 -14z"/>
<path d="M2830 1550 c0 -5 5 -10 11 -10 5 0 7 5 4 10 -3 6 -8 10 -11 10 -2 0
-4 -4 -4 -10z"/>
<path d="M3199 1548 c-1 -18 -1 -130 0 -145 2 -31 16 -9 16 24 0 31 3 36 23
38 18 1 28 -7 40 -34 21 -45 21 -46 28 -39 3 4 -2 20 -11 38 -15 29 -15 33 0
44 22 16 26 47 7 69 -18 20 -102 25 -103 5z m93 -16 c5 -5 8 -18 6 -28 -2 -14
-14 -20 -46 -22 -40 -3 -42 -2 -40 25 1 15 3 31 5 35 5 10 62 3 75 -10z"/>
<path d="M3862 1473 l3 -88 45 3 c30 2 51 9 62 22 16 20 14 60 -4 60 -5 0 -4
9 2 20 24 44 -5 70 -78 70 l-33 0 3 -87z m84 69 c16 -3 24 -26 15 -41 -9 -14
-49 -23 -71 -16 -10 3 -15 15 -14 32 1 16 3 28 3 29 1 1 50 -2 67 -4z m8 -78
c20 -8 21 -38 2 -53 -8 -7 -29 -11 -47 -9 -29 3 -33 6 -32 31 1 15 1 29 2 32
1 7 56 6 75 -1z"/>
<path d="M3605 1531 c3 -6 -3 -14 -12 -20 -15 -9 -16 -10 -2 -11 11 0 16 -10
16 -37 1 -70 2 -73 26 -73 20 1 20 2 5 11 -13 7 -18 23 -18 54 0 33 4 45 18
48 16 4 16 5 0 6 -10 0 -18 8 -18 16 0 8 -5 15 -11 15 -5 0 -8 -4 -4 -9z"/>
<path d="M2600 1510 c-7 -4 -19 -6 -27 -3 -10 4 -13 -9 -13 -56 0 -34 4 -61 9
-61 5 0 8 21 6 46 -2 39 1 47 21 56 38 18 52 4 52 -47 0 -26 3 -50 7 -53 3 -4
5 20 3 52 -2 49 -7 60 -24 66 -11 5 -27 4 -34 0z"/>
<path d="M2903 1510 c-13 -5 -23 -14 -23 -19 0 -5 12 -4 27 4 20 10 31 11 40
3 21 -17 15 -38 -10 -38 -28 0 -67 -26 -67 -45 0 -22 35 -36 62 -26 13 5 28 9
33 10 18 2 9 93 -11 108 -20 15 -21 15 -51 3z m57 -72 c0 -21 -13 -34 -38 -41
-31 -7 -42 21 -17 39 24 17 55 18 55 2z"/>
<path d="M3010 1515 c-6 -32 -4 -118 2 -121 5 -3 8 17 8 45 0 45 3 51 24 57
37 9 46 -2 46 -57 0 -28 4 -48 8 -45 5 3 8 26 7 52 -2 55 -24 78 -60 64 -16
-6 -25 -5 -29 3 -2 7 -5 8 -6 2z"/>
<path d="M3361 1499 c-12 -11 -22 -25 -22 -32 -4 -46 13 -76 47 -81 24 -4 54
11 54 26 0 9 -3 9 -12 0 -25 -25 -78 -8 -78 25 0 9 14 12 50 10 43 -3 50 -1
50 15 0 20 -30 50 -54 54 -8 1 -24 -7 -35 -17z m69 -19 c10 -19 8 -20 -35 -20
-43 0 -45 1 -35 20 6 12 21 20 35 20 14 0 29 -8 35 -20z"/>
<path d="M3489 1501 c-28 -23 -19 -39 33 -55 41 -14 43 -40 5 -44 -19 -2 -33
3 -43 15 -14 19 -19 7 -6 -14 9 -14 62 -20 80 -9 33 20 0 66 -47 66 -14 0 -21
6 -21 19 0 24 36 34 54 15 8 -8 18 -14 23 -14 10 1 -36 40 -47 40 -4 0 -18 -9
-31 -19z"/>
<path d="M3693 1508 c-13 -6 -24 -19 -24 -30 -1 -10 -2 -24 -3 -30 -6 -39 41
-75 74 -58 47 25 50 98 4 119 -14 6 -26 11 -27 10 -1 0 -12 -5 -24 -11z m53
-16 c28 -17 15 -92 -16 -92 -46 0 -63 33 -44 84 6 17 40 21 60 8z"/>
<path d="M4025 1500 c-21 -23 -11 -27 11 -5 15 14 43 10 56 -9 10 -16 -1 -26
-28 -26 -13 0 -33 -9 -45 -21 -20 -20 -20 -21 -3 -40 12 -14 25 -18 39 -14 11
4 28 7 38 6 10 0 17 8 17 20 0 10 -4 19 -10 19 -5 0 -10 -5 -10 -10 0 -19 -44
-29 -59 -15 -22 22 3 44 45 40 29 -3 34 0 34 18 0 30 -11 43 -41 50 -19 5 -31
1 -44 -13z"/>
<path d="M2830 1450 c0 -33 4 -60 8 -60 4 0 8 27 8 60 1 33 -3 60 -8 60 -4 0
-8 -27 -8 -60z"/>
<path d="M4140 1448 c0 -32 4 -58 8 -58 5 0 8 17 7 38 -2 49 3 62 29 72 18 7
16 8 -11 8 l-33 -1 0 -59z"/>
</g>
</svg>
