<?xml version="1.0" encoding="utf-8"?>
<!-- Generator: Adobe Illustrator 27.5.0, SVG Export Plug-In . SVG Version: 6.00 Build 0)  -->
<svg version="1.1" id="Capa_1" xmlns="http://www.w3.org/2000/svg" xmlns:xlink="http://www.w3.org/1999/xlink" x="0px" y="0px"
	 viewBox="0 0 2122 2122" style="enable-background:new 0 0 2122 2122;" xml:space="preserve">
<g>
	<path style="fill:#AEC7AA;" d="M1877.153,948.532c0-27.989-3.112-55.529-9.116-82.437l-0.001-0.005
		c-8.777-39.284-23.717-77.21-44.095-113.224l0.004,0.008c-60.458-106.921-168.193-197.238-305.565-261.049
		c-137.416-63.788-304.699-101.08-485.177-101.091c-180.487,0.011-347.774,37.303-485.192,101.091
		c-137.372,63.81-245.108,154.127-305.566,261.049l0.003-0.008c-20.376,36.014-35.321,73.939-44.1,113.224l-0.001,0.007
		c-5.999,26.906-9.111,54.446-9.111,82.435c0,9.128,0.308,18.23,0.993,27.322l-0.001-0.008l0.001,0.02
		c0.001,0.004,0.001,0.009,0.001,0.013v-0.003c1.697,23.188,5.56,46.006,11.38,68.358
		c22.291,380.559,387.79,683.218,835.427,683.218c31.176,0,61.949-1.469,92.248-4.339
		c418.572-39.513,744.238-344.886,744.238-715.738c0-2.205-0.068-4.398-0.091-6.599c1.155-8.256,2.122-16.55,2.727-24.908
		c0.001-0.008,0.001-0.018,0.002-0.026C1876.844,966.754,1877.153,957.656,1877.153,948.532z"/>
	<path style="fill:#C0D1B8;" d="M1877.153,948.532c0-27.989-3.112-55.529-9.116-82.437l-0.001-0.005
		c-8.777-39.284-23.717-77.21-44.095-113.224l0.004,0.008c-60.458-106.921-168.193-197.238-305.565-261.049
		c-137.416-63.788-304.699-101.08-485.177-101.091c-180.487,0.011-347.774,37.303-485.192,101.091
		c-137.372,63.81-245.108,154.127-305.566,261.049l0.003-0.008c-20.376,36.014-35.321,73.939-44.1,113.224l-0.001,0.007
		c-5.999,26.906-9.111,54.446-9.111,82.435c0,9.128,0.308,18.23,0.993,27.322l-0.001-0.008l0.001,0.02
		c0.001,0.004,0.001,0.009,0.001,0.013v-0.003c1.697,23.188,5.56,46.006,11.38,68.358c2.444,9.379,5.194,18.685,8.332,27.889
		c21.466,62.964,58.884,121.594,108.954,174.046c75.132,78.682,178.722,143.604,300.972,188.986
		c122.259,45.367,263.235,71.17,413.334,71.175c168.377-0.013,325.274-32.472,457.149-88.631
		c18.938-8.065,37.364-16.615,55.23-25.632c71.135-35.912,133.465-79.181,184.384-128.296
		c50.908-49.111,90.422-104.103,115.653-163.391l0.901-2.12l-0.903,2.125c13.656-32.059,23.028-65.387,27.816-99.609
		c1.155-8.256,2.122-16.55,2.727-24.908c0.001-0.008,0.001-0.018,0.002-0.026C1876.844,966.754,1877.153,957.656,1877.153,948.532z"
		/>
	<path style="fill:#8C9E86;" d="M1841.054,872.115l0.001,0.005c-8.149-36.462-22.042-71.818-41.177-105.64l1.129,1.998l-1.132-2.006
		c-56.672-100.419-159.721-187.659-293.136-249.572c-133.372-61.935-296.877-98.53-473.537-98.52
		c-176.669-0.01-340.178,36.585-473.55,98.52c-133.418,61.913-236.466,149.154-293.138,249.572l-0.004,0.008
		c-19.136,33.823-33.034,69.179-41.181,105.64l0.001-0.007c-5.567,24.982-8.448,50.48-8.448,76.42c0,8.516,0.286,16.93,0.916,25.267
		l0.003,0.033c1.837,25.115,6.397,49.767,13.445,73.87c1.519,5.191,3.111,10.364,4.862,15.501
		c19.979,58.612,55.055,113.875,102.784,163.878c47.719,49.995,108.076,94.679,178.281,131.981
		c140.402,74.629,320.13,119.641,516.028,119.624c2.383,0,4.743-0.06,7.122-0.073c138.698-0.771,269.137-24.038,383.008-64.452
		c115.831-41.095,214.495-99.897,287.44-170.285c48.643-46.924,85.852-98.952,109.408-154.318l0.003-0.005
		c8.734-20.512,15.523-41.499,20.408-62.87c0.004-0.017,0.009-0.036,0.012-0.054c3.961-17.348,6.693-34.945,7.986-52.788
		l0.002-0.041c0.63-8.337,0.916-16.751,0.916-25.267C1849.507,922.591,1846.626,897.095,1841.054,872.115z"/>
	<path style="fill:#A4BC9B;" d="M1846.519,1098.26l-0.901,2.12c-25.23,59.288-64.744,114.28-115.653,163.391
		c-50.919,49.115-113.249,92.384-184.384,128.296c-17.866,9.017-36.292,17.567-55.23,25.632
		c-52.421,76.827-119.615,144.062-194.022,200.255c-52.633,39.766-108.755,74.346-167.045,105.16
		c418.572-39.513,744.238-344.886,744.238-715.738c0-2.205-0.068-4.398-0.091-6.599c-4.788,34.222-14.159,67.549-27.816,99.609
		L1846.519,1098.26z"/>
	<path style="fill:#D26214;" d="M1837.77,1008.554c-0.028-0.153-0.061-0.305-0.089-0.458c-0.9-4.937-1.917-9.848-2.997-14.744
		c-0.267-1.209-0.537-2.417-0.815-3.623c-1.152-5.011-2.37-10.007-3.71-14.972c-0.061-0.227-0.13-0.453-0.192-0.679
		c-1.295-4.766-2.7-9.504-4.163-14.226c-0.37-1.192-0.742-2.384-1.123-3.573c-1.564-4.89-3.191-9.764-4.936-14.606
		c-0.117-0.324-0.245-0.645-0.363-0.969c-1.655-4.56-3.408-9.091-5.221-13.606c-0.477-1.186-0.955-2.373-1.442-3.556
		c-1.956-4.752-3.973-9.486-6.101-14.185c-0.193-0.426-0.401-0.846-0.594-1.271c-1.982-4.338-4.05-8.649-6.175-12.941
		c-0.588-1.189-1.178-2.377-1.779-3.562c-2.325-4.594-4.709-9.169-7.197-13.708c-0.295-0.536-0.605-1.065-0.901-1.6
		c-2.271-4.101-4.616-8.175-7.019-12.23c-0.704-1.188-1.407-2.375-2.122-3.559c-2.674-4.429-5.406-8.837-8.235-13.208
		c-0.414-0.638-0.847-1.269-1.263-1.905c-2.526-3.862-5.119-7.697-7.765-11.511c-0.823-1.188-1.647-2.376-2.482-3.56
		c-3.004-4.255-6.062-8.487-9.215-12.681c-0.543-0.723-1.108-1.438-1.656-2.159c-2.754-3.626-5.566-7.225-8.428-10.802
		c-0.949-1.186-1.895-2.374-2.857-3.555c-3.317-4.077-6.685-8.129-10.142-12.142c-0.678-0.786-1.377-1.562-2.061-2.346
		c-2.962-3.402-5.978-6.778-9.04-10.133c-1.077-1.179-2.151-2.361-3.24-3.535c-3.608-3.887-7.266-7.749-11.004-11.57
		c-0.826-0.844-1.675-1.675-2.507-2.516c-3.15-3.182-6.348-6.339-9.587-9.473c-1.198-1.16-2.396-2.321-3.607-3.474
		c-0.638-0.609-1.259-1.227-1.902-1.833c-0.906-0.855-1.873-1.675-2.787-2.527c-4.485-4.184-9.048-8.324-13.692-12.418
		c-1.662-1.465-3.323-2.931-5.005-4.384c-5.356-4.625-10.8-9.197-16.358-13.7c-0.658-0.534-1.294-1.083-1.955-1.614
		c-6.211-4.994-12.569-9.894-19.023-14.732c-1.731-1.297-3.497-2.571-5.245-3.857c-4.945-3.638-9.956-7.23-15.036-10.774
		c-1.948-1.359-3.889-2.721-5.856-4.065c-6.356-4.345-12.789-8.632-19.348-12.829c-0.417-0.267-0.82-0.545-1.237-0.811
		c-6.987-4.454-14.114-8.799-21.322-13.081c-2.017-1.198-4.062-2.371-6.095-3.556c-5.473-3.188-11.006-6.325-16.601-9.412
		c-2.142-1.182-4.276-2.373-6.437-3.54c-7.482-4.044-15.032-8.028-22.718-11.889c-76.195-38.278-162.319-67.498-255.147-85.403
		c-68.433-13.206-140.521-20.246-214.928-20.246c-93.169,0-182.655,11.06-265.909,31.389
		c-126.952,30.984-239.474,83.574-328.575,151.454c-122.258,93.133-200.384,215.065-211.321,349.614
		c1.519,5.191,3.111,10.364,4.862,15.501c19.979,58.612,55.055,113.875,102.784,163.878
		c47.719,49.995,108.076,94.679,178.281,131.981c140.402,74.629,320.13,119.641,516.028,119.624c2.383,0,4.743-0.06,7.122-0.073
		c138.698-0.771,269.137-24.038,383.008-64.452c115.831-41.095,214.495-99.897,287.44-170.285
		c48.643-46.924,85.852-98.952,109.408-154.318l0.003-0.005c8.734-20.512,15.523-41.499,20.408-62.87
		c0.004-0.017,0.009-0.036,0.012-0.054c-0.126-0.936-0.27-1.868-0.402-2.804C1839.476,1018.716,1838.687,1013.621,1837.77,1008.554z
		"/>
	<path style="fill:#AE3617;" d="M1507.126,620.893c-76.195-38.278-162.319-67.498-255.147-85.403
		c-68.433-13.206-140.521-20.246-214.928-20.246c-93.169,0-182.655,11.06-265.909,31.389
		c-126.952,30.984-239.474,83.574-328.575,151.454c-0.341,20.161-6.187,41.023-12.185,60.524
		c-18.733,60.818-38.514,125.934-20.161,186.882c18.353,60.948,93.125,108.496,147.137,74.855
		c54.485-33.961,51.294-121.216,103.288-158.877c37.876-27.433,94.524-16.522,128.146,15.97
		c30.874,29.839,44.823,73.306,47.807,116.406c-9.788-0.948-19.637-1.126-29.371-0.316c-50.972,4.246-98.193,30.021-136.974,63.374
		c38.383,43.013,90.441,75.591,147.644,82.699c9.76,1.212,19.654,1.539,29.527,1.123c29.9,70.36,118.149,98.703,195.769,101.868
		c76.536,3.126,153.642-8.848,225.608-35.026c36.896-13.417,73.281-31.133,100.331-59.566
		c27.026-28.453,43.401-69.325,34.621-107.562c-13.272-57.63-75.727-89.23-133.53-101.671c-28.282-6.102-57.545-9.676-83.722-21.988
		c-26.178-12.312-49.442-35.876-51.567-64.733c-2.981-40.531,35.108-72.09,72.492-88.039
		c78.28-33.389,166.767-31.559,251.469-23.372C1560.076,750.443,1542.829,687.604,1507.126,620.893z"/>
	<path style="fill:#9F2916;" d="M1840.2,1023.824c-0.724-5.108-1.513-10.203-2.43-15.27c-0.028-0.153-0.061-0.305-0.089-0.458
		c-0.9-4.937-1.917-9.848-2.997-14.744c-0.267-1.209-0.537-2.417-0.815-3.623c-1.152-5.011-2.37-10.007-3.71-14.972
		c-0.061-0.227-0.13-0.453-0.192-0.679c-1.295-4.766-2.7-9.504-4.163-14.226c-0.37-1.192-0.742-2.384-1.123-3.573
		c-1.564-4.89-3.191-9.764-4.936-14.606c-0.117-0.324-0.245-0.645-0.363-0.969c-1.655-4.56-3.408-9.091-5.221-13.606
		c-0.477-1.186-0.955-2.373-1.442-3.556c-1.956-4.752-3.973-9.486-6.101-14.185c-0.193-0.426-0.401-0.846-0.594-1.271
		c-1.982-4.338-4.05-8.649-6.175-12.941c-0.588-1.189-1.178-2.377-1.779-3.562c-2.325-4.594-4.709-9.169-7.197-13.708
		c-0.295-0.536-0.605-1.065-0.901-1.6c-2.271-4.101-4.616-8.175-7.019-12.23c-0.704-1.188-1.407-2.375-2.122-3.559
		c-2.674-4.429-5.406-8.837-8.235-13.208c-0.414-0.638-0.847-1.269-1.263-1.905c-2.526-3.862-5.119-7.697-7.765-11.511
		c-0.823-1.188-1.647-2.376-2.482-3.56c-3.004-4.255-6.062-8.487-9.215-12.681c-0.543-0.723-1.108-1.438-1.656-2.159
		c-2.754-3.626-5.566-7.225-8.428-10.802c-0.949-1.186-1.895-2.374-2.857-3.555c-3.317-4.077-6.685-8.129-10.142-12.142
		c-0.678-0.786-1.377-1.562-2.061-2.346c-2.962-3.402-5.978-6.778-9.04-10.133c-1.077-1.179-2.151-2.361-3.24-3.535
		c-3.608-3.887-7.266-7.749-11.004-11.57c-0.826-0.844-1.675-1.675-2.507-2.516c-3.15-3.182-6.348-6.339-9.587-9.473
		c-1.198-1.16-2.396-2.321-3.607-3.474c-0.638-0.609-1.259-1.227-1.902-1.833c-0.001,0.02-0.005,0.038-0.007,0.057
		c-1.071,12.123-5.559,23.799-16.514,34.776c-33.111,33.155-98.714,13.164-128.21,49.593c-19.371,23.902-11.634,60.224,4.804,86.253
		c10.581,16.74,24.195,31.469,36.308,47.133c-0.118,0.057-0.239,0.108-0.357,0.165c-9.023,4.303-17.052,11.564-19.572,21.15
		c-2.646,10.107,1.223,20.699,5.53,30.227c3.864,8.521,8.137,16.84,12.789,24.948c7.462,12.989,19.68,26.396,34.499,28.322
		c-0.119,2.911-0.251,5.823-0.487,8.718c-9.379,113.771-101.501,205.298-203.279,257.037
		c-101.778,51.717-215.717,73.919-322.217,115.067c-17.776,6.848-37.185,16.938-48.805,31.081
		c138.698-0.771,269.137-24.038,383.008-64.452c115.831-41.095,214.495-99.897,287.44-170.285
		c48.643-46.924,85.852-98.952,109.408-154.318l0.003-0.005c8.734-20.512,15.523-41.499,20.408-62.87
		C1840.462,1025.729,1840.334,1024.775,1840.2,1023.824z"/>
	<path style="fill:#4F9F33;" d="M1052.374,808.988c-21.164-46.565-61.345-82.344-105.807-107.622
		c-27.571,50.624-40.711,110.614-28.137,166.872c12.575,56.258,53.335,107.386,108.341,124.621
		c15.615-21.625,31.61-60.638,37.11-86.733C1070.713,873.735,1066.021,839.012,1052.374,808.988z"/>
	<path style="fill:#217B34;" d="M967.142,790.579c22.046,41.798,34.997,87.915,37.871,135.086c0.419,6.797,11.055,6.845,10.636,0
		c-2.996-49.096-16.375-96.945-39.328-140.453C973.129,779.158,963.951,784.525,967.142,790.579z"/>
	<path style="fill:#4F9F33;" d="M902.567,1015.414c-19.844-12.204-42.709-19.314-65.966-21.567
		c-9.788-0.948-19.637-1.126-29.371-0.316c-50.972,4.246-98.193,30.021-136.974,63.374c38.383,43.013,90.441,75.591,147.644,82.699
		c9.76,1.212,19.654,1.539,29.527,1.123c48-2.02,95.476-23.015,124.304-61.16C956.633,1057.582,925.286,1029.382,902.567,1015.414z"
		/>
	<path style="fill:#217B34;" d="M904.34,1067.289c-47.294-13.724-96.828-17.011-145.544-10.058
		c-6.748,0.962-3.879,11.208,2.826,10.253c46.767-6.675,94.548-3.101,139.893,10.058
		C908.097,1079.455,910.908,1069.197,904.34,1067.289z"/>
	<path style="fill:#4F9F33;" d="M1289.952,1007.312c-28.194-17.34-62.47-24.619-95.337-21.881
		c-50.972,4.244-98.192,30.022-136.974,63.372c38.378,43.013,90.441,75.59,147.644,82.699
		c57.208,7.108,119.074-14.047,153.832-60.036C1344.013,1049.482,1312.671,1021.28,1289.952,1007.312z"/>
	<path style="fill:#217B34;" d="M1149.007,1059.382c46.768-6.675,94.548-3.101,139.893,10.058c6.582,1.912,9.393-8.346,2.826-10.251
		c-47.294-13.727-96.828-17.013-145.549-10.061C1139.434,1050.091,1142.303,1060.337,1149.007,1059.382z"/>
	<path style="fill:#4D0F0E;" d="M1342.357,618.913c6.84,0,6.85-10.634,0-10.634C1335.512,608.279,1335.502,618.913,1342.357,618.913
		z"/>
	<path style="fill:#4D0F0E;" d="M1282.937,811.765c-6.84,0-6.85,10.633,0,10.633
		C1289.782,822.398,1289.792,811.765,1282.937,811.765z"/>
	<path style="fill:#4D0F0E;" d="M1577.333,729.054c-0.901,0.251-1.681,0.706-2.344,1.367l-0.833,1.077
		c-0.482,0.828-0.721,1.722-0.726,2.682v1.885c-0.029,0.731,0.127,1.413,0.458,2.047c0.215,0.66,0.58,1.23,1.101,1.712
		c0.477,0.519,1.053,0.884,1.71,1.099c0.634,0.333,1.316,0.484,2.047,0.458c0.472-0.063,0.945-0.127,1.413-0.19
		c0.901-0.254,1.686-0.709,2.348-1.367l0.828-1.077c0.482-0.828,0.726-1.722,0.726-2.682v-1.885
		c0.029-0.731-0.122-1.415-0.458-2.049c-0.215-0.658-0.58-1.227-1.096-1.71c-0.482-0.519-1.053-0.884-1.71-1.098
		c-0.634-0.334-1.321-0.488-2.051-0.458C1578.278,728.927,1577.806,728.991,1577.333,729.054z"/>
	<path style="fill:#4D0F0E;" d="M1526.001,1050.705l1.077,0.831c0.828,0.48,1.725,0.724,2.685,0.726h1.881
		c0.735,0.027,1.417-0.124,2.051-0.458c0.658-0.214,1.228-0.58,1.71-1.099c0.516-0.482,0.882-1.052,1.096-1.712
		c0.336-0.634,0.487-1.316,0.458-2.047c-0.063-0.472-0.127-0.943-0.19-1.415c-0.248-0.899-0.706-1.681-1.364-2.346l-1.077-0.831
		c-0.828-0.48-1.725-0.723-2.684-0.726h-1.881c-0.736-0.027-1.418,0.124-2.051,0.458c-0.658,0.214-1.228,0.582-1.71,1.099
		c-0.516,0.482-0.887,1.052-1.101,1.713c-0.331,0.633-0.482,1.315-0.458,2.048c0.063,0.47,0.127,0.94,0.19,1.413
		C1524.885,1049.258,1525.343,1050.04,1526.001,1050.705z"/>
	<path style="fill:#4D0F0E;" d="M1481.835,965.129c-0.482,0.828-0.726,1.722-0.726,2.682v1.885
		c-0.029,0.731,0.122,1.413,0.458,2.047c0.214,0.66,0.58,1.23,1.097,1.712c0.482,0.519,1.052,0.885,1.715,1.099
		c0.634,0.334,1.316,0.484,2.047,0.458c0.473-0.063,0.941-0.127,1.413-0.19c0.901-0.253,1.681-0.709,2.349-1.367l0.828-1.077
		c0.483-0.828,0.726-1.722,0.726-2.682v-1.885c0.03-0.731-0.122-1.415-0.458-2.049c-0.214-0.658-0.58-1.227-1.096-1.71
		c-0.483-0.519-1.053-0.885-1.715-1.099c-0.633-0.334-1.315-0.485-2.046-0.458c-0.472,0.063-0.94,0.127-1.413,0.19
		c-0.901,0.251-1.681,0.709-2.348,1.367L1481.835,965.129z"/>
	<path style="fill:#4D0F0E;" d="M1424.247,1162.213c-6.84,0-6.85,10.634,0,10.634
		C1431.093,1172.846,1431.102,1162.213,1424.247,1162.213z"/>
	<path style="fill:#4D0F0E;" d="M1655.989,886.803l-1.077-0.831c-0.829-0.48-1.725-0.723-2.685-0.726
		c-0.468,0.063-0.94,0.127-1.413,0.19c-0.902,0.253-1.681,0.709-2.344,1.366l-1.885,1.885c-0.516,0.48-0.887,1.05-1.101,1.71
		c-0.331,0.633-0.482,1.316-0.458,2.048c-0.024,0.731,0.127,1.415,0.458,2.049c0.214,0.658,0.585,1.228,1.101,1.71l1.077,0.831
		c0.829,0.482,1.725,0.723,2.685,0.726c0.468-0.063,0.94-0.127,1.413-0.19c0.896-0.251,1.681-0.709,2.344-1.367
		c0.628-0.629,1.257-1.257,1.885-1.883c0.516-0.482,0.882-1.052,1.096-1.712c0.336-0.634,0.487-1.316,0.458-2.049
		c0.029-0.731-0.122-1.413-0.458-2.046C1656.87,887.855,1656.505,887.285,1655.989,886.803z"/>
	<path style="fill:#4D0F0E;" d="M1712.51,862.308c-0.629-0.626-1.252-1.254-1.881-1.883c-0.482-0.519-1.052-0.885-1.715-1.099
		c-0.634-0.334-1.316-0.485-2.047-0.458c-0.731-0.027-1.413,0.124-2.046,0.458c-0.663,0.214-1.233,0.58-1.715,1.099l-0.828,1.077
		c-0.482,0.828-0.726,1.722-0.726,2.682c0.063,0.472,0.127,0.943,0.19,1.413c0.253,0.901,0.706,1.683,1.364,2.346l1.886,1.885
		c0.482,0.519,1.052,0.885,1.71,1.099c0.634,0.334,1.321,0.484,2.052,0.458c0.73,0.026,1.413-0.124,2.046-0.458
		c0.658-0.215,1.233-0.58,1.71-1.099l0.833-1.077c0.482-0.828,0.721-1.722,0.726-2.682c-0.063-0.472-0.127-0.942-0.19-1.413
		C1713.625,863.755,1713.172,862.973,1712.51,862.308z"/>
	<path style="fill:#4D0F0E;" d="M510.455,794.462c0.482,0.519,1.053,0.887,1.71,1.101c0.634,0.331,1.316,0.485,2.047,0.458
		l1.417-0.19c0.896-0.253,1.681-0.709,2.344-1.369l0.833-1.074c0.478-0.831,0.721-1.725,0.726-2.685v-1.883
		c0.025-0.733-0.127-1.415-0.458-2.048c-0.214-0.66-0.585-1.23-1.101-1.71c-0.482-0.519-1.053-0.887-1.71-1.101
		c-0.634-0.331-1.316-0.484-2.051-0.458c-0.468,0.063-0.94,0.127-1.413,0.19c-0.897,0.253-1.681,0.709-2.344,1.369l-0.833,1.075
		c-0.477,0.831-0.721,1.725-0.726,2.684v1.883c-0.024,0.733,0.127,1.415,0.458,2.049
		C509.569,793.412,509.934,793.982,510.455,794.462z"/>
	<path style="fill:#4D0F0E;" d="M346.529,988.201c6.84,0,6.85-10.633,0-10.633C339.683,977.568,339.674,988.201,346.529,988.201z"/>
	<path style="fill:#4D0F0E;" d="M348.575,1091.37c0.658-0.214,1.228-0.58,1.71-1.099c0.521-0.482,0.887-1.052,1.101-1.71
		c0.332-0.636,0.482-1.318,0.458-2.049c-0.063-0.473-0.126-0.943-0.19-1.413c-0.253-0.901-0.711-1.683-1.37-2.346l-1.077-0.833
		c-0.828-0.48-1.72-0.721-2.68-0.726h-1.885c-0.731-0.027-1.418,0.126-2.051,0.458c-0.658,0.214-1.227,0.582-1.71,1.101
		c-0.516,0.479-0.882,1.05-1.097,1.71c-0.336,0.634-0.487,1.316-0.458,2.049c0.063,0.47,0.126,0.94,0.19,1.413
		c0.249,0.901,0.707,1.683,1.365,2.346l1.077,0.831c0.828,0.482,1.725,0.723,2.685,0.726h1.885
		C347.259,1091.855,347.941,1091.704,348.575,1091.37z"/>
	<path style="fill:#4D0F0E;" d="M740.311,950.518c6.841,0,6.85-10.631,0-10.631C733.466,939.886,733.456,950.518,740.311,950.518z"
		/>
	<path style="fill:#4D0F0E;" d="M700.745,903.414c6.84,0,6.85-10.631,0-10.631C693.9,892.783,693.89,903.414,700.745,903.414z"/>
	<path style="fill:#4D0F0E;" d="M642.333,1003.275c6.846,0,6.855-10.634,0-10.634
		C635.493,992.641,635.483,1003.275,642.333,1003.275z"/>
	<path style="fill:#4D0F0E;" d="M693.208,1258.303c-6.846,0-6.855,10.633,0,10.633
		C700.048,1268.936,700.058,1258.303,693.208,1258.303z"/>
	<path style="fill:#4D0F0E;" d="M879.726,1276.817l-1.077-0.831c-0.828-0.48-1.725-0.723-2.685-0.726
		c-0.467,0.063-0.94,0.127-1.413,0.19c-0.901,0.253-1.681,0.709-2.343,1.367l-1.885,1.885c-0.516,0.483-0.887,1.053-1.101,1.71
		c-0.331,0.634-0.482,1.318-0.458,2.049c-0.025,0.733,0.127,1.415,0.458,2.048c0.214,0.658,0.585,1.23,1.101,1.71l1.077,0.833
		c0.828,0.48,1.725,0.721,2.685,0.723c0.467-0.063,0.94-0.127,1.413-0.188c0.901-0.253,1.681-0.709,2.343-1.369
		c0.629-0.629,1.257-1.255,1.885-1.883c0.517-0.482,0.887-1.052,1.101-1.712c0.331-0.634,0.482-1.316,0.458-2.047
		c0.024-0.733-0.127-1.415-0.458-2.048C880.613,1277.869,880.243,1277.299,879.726,1276.817z"/>
	<path style="fill:#4D0F0E;" d="M777.992,1358.161c-6.84,0-6.855,10.633,0,10.633
		C784.832,1368.795,784.847,1358.161,777.992,1358.161z"/>
	<path style="fill:#4D0F0E;" d="M887.273,1384.541c-6.845,0-6.855,10.631,0,10.631
		C894.114,1395.172,894.124,1384.541,887.273,1384.541z"/>
	<path style="fill:#4D0F0E;" d="M785.529,1210.529c6.84,0,6.85-10.634,0-10.634C778.689,1199.896,778.674,1210.529,785.529,1210.529
		z"/>
	<path style="fill:#4D0F0E;" d="M1049.305,1380.101c6.845,0,6.855-10.634,0-10.634
		C1042.464,1369.467,1042.454,1380.101,1049.305,1380.101z"/>
	<path style="fill:#4D0F0E;" d="M1162.362,1361.586l1.077,0.831c0.828,0.48,1.725,0.723,2.685,0.726h1.885
		c0.731,0.027,1.413-0.124,2.047-0.458c0.658-0.214,1.228-0.58,1.71-1.099c0.521-0.482,0.886-1.052,1.101-1.712
		c0.331-0.634,0.487-1.316,0.458-2.047c-0.063-0.473-0.127-0.943-0.19-1.415c-0.253-0.899-0.706-1.681-1.369-2.346l-1.077-0.831
		c-0.828-0.48-1.72-0.723-2.68-0.726h-1.885c-0.731-0.027-1.413,0.124-2.046,0.458c-0.663,0.214-1.233,0.582-1.715,1.099
		c-0.516,0.483-0.882,1.052-1.096,1.713c-0.336,0.633-0.487,1.315-0.458,2.048c0.063,0.47,0.127,0.94,0.19,1.413
		C1161.251,1360.14,1161.704,1360.921,1162.362,1361.586z"/>
	<path style="fill:#4D0F0E;" d="M1117.134,1284.01c6.845,0,6.855-10.633,0-10.633
		C1110.294,1273.377,1110.284,1284.01,1117.134,1284.01z"/>
	<path style="fill:#4D0F0E;" d="M1525.991,1133.28c6.84,0,6.855-10.634,0-10.634
		C1519.151,1122.646,1519.141,1133.28,1525.991,1133.28z"/>
	<path style="fill:#4D0F0E;" d="M1601.358,1230.042c-6.84,0-6.855,10.634,0,10.634
		C1608.198,1240.676,1608.208,1230.042,1601.358,1230.042z"/>
	<path style="fill:#4D0F0E;" d="M1710.629,1176.958l-1.077-0.831c-0.828-0.48-1.725-0.723-2.685-0.726h-1.885
		c-0.731-0.027-1.413,0.124-2.047,0.458c-0.658,0.214-1.228,0.582-1.71,1.099c-0.521,0.482-0.887,1.052-1.101,1.712
		c-0.331,0.634-0.488,1.316-0.458,2.049c0.063,0.47,0.127,0.94,0.19,1.413c0.253,0.899,0.711,1.681,1.369,2.346l1.077,0.831
		c0.828,0.48,1.72,0.723,2.68,0.726h1.885c0.731,0.027,1.413-0.124,2.047-0.458c0.663-0.214,1.233-0.58,1.715-1.099
		c0.516-0.482,0.882-1.052,1.097-1.713c0.336-0.633,0.487-1.315,0.458-2.046c-0.063-0.473-0.127-0.943-0.19-1.415
		C1711.74,1178.405,1711.287,1177.623,1710.629,1176.958z"/>
	<path style="fill:#F7AA66;" d="M640.74,1184.944c-1.296-1.065-2.611-2.105-3.888-3.148c-7.318-6.019-13.929-12.867-19.674-20.373
		c-6.143-8.039-12.628-17.693-22.689-18.714c-6.675-0.682-13.013,2.765-18.607,6.465c-21.842,14.397-39.873,33.917-61.267,48.974
		c-8.614,6.039-17.822,11.42-25.16,18.97l-1.232,1.318c-6.719,7.401-11.396,17.16-10.1,26.987
		c1.383,10.356,8.974,18.692,16.565,25.878c6.806,6.424,13.91,12.507,21.286,18.246c15.396,11.973,38.533,21.627,55.035,6.253
		c18.31-17.077,32.516-35.769,53.847-49.932c7.976-5.296,16.419-10.166,22.777-17.332c6.334-7.167,10.334-17.289,7.42-26.412
		C652.76,1194.895,646.781,1189.77,640.74,1184.944z"/>
	<path style="fill:#F7AA66;" d="M511.99,1168.079c8.161-4.989,14.957-13.491,14.85-23.069c-0.068-7.586-4.278-14.239-8.633-20.626
		c-0.925-1.398-1.88-2.782-2.796-4.151c-5.223-7.903-9.535-16.39-12.818-25.253c-3.518-9.488-6.879-20.623-16.195-24.552
		c-6.183-2.612-13.252-1.179-19.688,0.716c-25.101,7.35-48.073,20.714-72.945,28.824c-10.008,3.244-20.39,5.683-29.617,10.745
		c-0.531,0.28-1.053,0.589-1.569,0.896c-8.594,5.101-15.932,13.057-17.578,22.831c-1.72,10.307,3.089,20.504,8.234,29.603
		c4.618,8.139,9.622,16.039,14.991,23.693c11.201,15.966,30.48,31.99,50.772,22.139c22.519-10.945,41.584-24.643,66.134-31.917
		C494.309,1175.239,503.81,1173.06,511.99,1168.079z"/>
	<path style="fill:#F7AA66;" d="M1474.683,845.731c-0.926-1.396-1.881-2.78-2.797-4.151c-5.223-7.9-9.535-16.389-12.818-25.252
		c-3.518-9.488-6.879-20.621-16.195-24.551c-6.183-2.611-13.252-1.179-19.688,0.714c-25.101,7.349-48.073,20.713-72.945,28.823
		c-10.007,3.245-20.39,5.683-29.617,10.745c-0.531,0.283-1.053,0.59-1.569,0.899c-8.594,5.101-15.936,13.057-17.578,22.828
		c-1.72,10.307,3.089,20.504,8.234,29.605c4.619,8.136,9.622,16.036,14.992,23.693c11.201,15.966,30.479,31.988,50.772,22.139
		c22.519-10.947,41.583-24.643,66.134-31.92c9.179-2.719,18.679-4.894,26.86-9.878c8.161-4.989,14.957-13.491,14.85-23.067
		C1483.243,858.773,1479.039,852.118,1474.683,845.731z"/>
	<path style="fill:#F7AA66;" d="M1400.856,1276.841c-3.654-8.738-6.3-17.883-7.868-27.203c-1.681-9.978-2.904-21.545-11.318-27.148
		c-5.588-3.722-12.799-3.637-19.474-2.979c-26.037,2.526-51.104,11.359-77.052,14.675c-10.436,1.316-21.092,1.771-31.104,5.018
		c-0.575,0.176-1.14,0.383-1.705,0.59c-9.398,3.403-18.095,9.846-21.54,19.14c-3.62,9.801-0.799,20.719,2.553,30.621
		c3.016,8.858,6.456,17.554,10.295,26.078c8.019,17.779,23.966,37.125,45.74,31.242c24.165-6.543,45.457-16.434,70.932-18.989
		c9.525-0.955,19.265-1.315,28.234-4.682c8.955-3.374,17.218-10.455,18.904-19.883c1.349-7.467-1.54-14.79-4.624-21.878
		C1402.177,1279.896,1401.499,1278.359,1400.856,1276.841z"/>
	<path style="fill:#4D0F0E;" d="M1460.047,1337.438c-6.84,0-6.855,10.631,0,10.631
		C1466.888,1348.068,1466.902,1337.438,1460.047,1337.438z"/>
	<path style="fill:#4D0F0E;" d="M994.659,1165.655c-0.482-0.519-1.052-0.887-1.71-1.101c-0.634-0.332-1.321-0.485-2.052-0.456
		c-0.472,0.063-0.94,0.124-1.413,0.188c-0.901,0.254-1.681,0.709-2.343,1.37l-0.833,1.074c-0.482,0.831-0.721,1.725-0.726,2.685
		v1.883c-0.029,0.733,0.127,1.415,0.458,2.049c0.215,0.66,0.58,1.23,1.101,1.712c0.477,0.516,1.048,0.885,1.71,1.099
		c0.633,0.331,1.316,0.485,2.046,0.458c0.473-0.063,0.945-0.127,1.413-0.19c0.901-0.253,1.686-0.708,2.348-1.366l0.829-1.077
		c0.482-0.831,0.726-1.725,0.726-2.685v-1.883c0.029-0.733-0.122-1.415-0.458-2.049
		C995.541,1166.707,995.176,1166.135,994.659,1165.655z"/>
	<path style="fill:#4D0F0E;" d="M1098.294,1169.75c-6.84,0-6.85,10.633,0,10.633
		C1105.134,1180.383,1105.149,1169.75,1098.294,1169.75z"/>
	<path style="fill:#4D0F0E;" d="M1026.698,1096.269c-6.84,0-6.855,10.634,0,10.634
		C1033.539,1106.902,1033.549,1096.269,1026.698,1096.269z"/>
	<path style="fill:#4D0F0E;" d="M1107.717,956.172c6.84,0,6.85-10.634,0-10.634C1100.871,945.538,1100.862,956.172,1107.717,956.172
		z"/>
	<path style="fill:#4D0F0E;" d="M1105.831,738.284c-6.84,0-6.855,10.634,0,10.634
		C1112.671,748.917,1112.686,738.284,1105.831,738.284z"/>
	<path style="fill:#4D0F0E;" d="M1446.858,682.971c6.841,0,6.855-10.631,0-10.631
		C1440.018,672.34,1440.003,682.971,1446.858,682.971z"/>
	<path style="fill:#4D0F0E;" d="M815.673,804.228c-6.841,0-6.85,10.634,0,10.634C822.518,814.861,822.528,804.228,815.673,804.228z"
		/>
	<path style="fill:#4D0F0E;" d="M638.577,792.598c0.482,0.516,1.052,0.884,1.71,1.099c0.633,0.334,1.315,0.484,2.046,0.458
		c0.473-0.063,0.945-0.127,1.413-0.19c0.901-0.253,1.686-0.709,2.348-1.366l0.833-1.077c0.477-0.828,0.721-1.725,0.726-2.684v-1.883
		c0.024-0.731-0.127-1.415-0.458-2.048c-0.214-0.658-0.585-1.228-1.101-1.71c-0.482-0.519-1.052-0.884-1.71-1.099
		c-0.634-0.334-1.316-0.487-2.052-0.458c-0.468,0.063-0.94,0.127-1.413,0.19c-0.901,0.251-1.681,0.706-2.343,1.367l-0.833,1.077
		c-0.482,0.828-0.721,1.722-0.726,2.682v1.883c-0.029,0.733,0.127,1.415,0.458,2.049
		C637.69,791.546,638.056,792.116,638.577,792.598z"/>
	<path style="fill:#4D0F0E;" d="M717.7,777.85c-6.841,0-6.855,10.634,0,10.634C724.54,788.484,724.555,777.85,717.7,777.85z"/>
	<path style="fill:#4D0F0E;" d="M627.264,698.045c6.841,0,6.85-10.633,0-10.633C620.418,687.412,620.409,698.045,627.264,698.045z"
		/>
	<path style="fill:#4D0F0E;" d="M350.295,856.313c6.84,0,6.855-10.634,0-10.634C343.454,845.68,343.44,856.313,350.295,856.313z"/>
	<path style="fill:#4D0F0E;" d="M420.009,1037.188c6.841,0,6.85-10.631,0-10.631
		C413.165,1026.556,413.155,1037.188,420.009,1037.188z"/>
	<path style="fill:#4D0F0E;" d="M1009.738,656.593c6.846,0,6.855-10.631,0-10.631
		C1002.898,645.963,1002.888,656.593,1009.738,656.593z"/>
	<path style="fill:#F7AA66;" d="M839.877,662.589c-5.227-7.903-9.539-16.39-12.823-25.252c-3.513-9.489-6.879-20.624-16.195-24.553
		c-6.182-2.612-13.252-1.179-19.683,0.716c-25.106,7.35-48.078,20.714-72.95,28.824c-10.002,3.245-20.385,5.683-29.617,10.745
		c-0.531,0.28-1.047,0.589-1.564,0.896c-8.599,5.101-15.936,13.057-17.583,22.83c-1.72,10.305,3.089,20.505,8.239,29.603
		c4.619,8.139,9.622,16.039,14.986,23.693c11.201,15.966,30.485,31.99,50.772,22.139c22.518-10.945,41.588-24.643,66.134-31.917
		c9.179-2.719,18.68-4.897,26.865-9.878c8.161-4.989,14.953-13.493,14.85-23.069c-0.073-7.586-4.283-14.239-8.638-20.626
		C841.744,665.341,840.788,663.958,839.877,662.589z"/>
	<path style="fill:#F7AA66;" d="M598.499,851c-5.228-7.9-9.539-16.387-12.823-25.249c-3.513-9.491-6.879-20.624-16.195-24.553
		c-6.183-2.611-13.252-1.179-19.683,0.716c-25.106,7.347-48.078,20.714-72.95,28.823c-10.003,3.242-20.385,5.681-29.617,10.743
		c-0.531,0.283-1.048,0.59-1.564,0.899c-8.599,5.101-15.936,13.057-17.583,22.831c-1.72,10.304,3.089,20.501,8.239,29.603
		c4.618,8.136,9.622,16.036,14.987,23.693c11.201,15.966,30.484,31.99,50.772,22.139c22.519-10.948,41.589-24.643,66.134-31.917
		c9.179-2.721,18.679-4.896,26.864-9.88c8.161-4.989,14.953-13.491,14.85-23.067c-0.073-7.586-4.283-14.239-8.638-20.628
		C600.365,853.755,599.41,852.371,598.499,851z"/>
	<path style="fill:#F7AA66;" d="M1267.292,646.576c-0.477-1.61-0.979-3.213-1.452-4.792c-2.665-9.089-4.287-18.47-4.813-27.908
		c-0.565-10.102-0.502-21.734-8.249-28.231c-5.135-4.317-12.316-5.03-19.021-5.113c-26.153-0.373-52.044,5.635-78.202,6.061
		c-10.519,0.153-21.155-0.575-31.469,1.544c-0.589,0.115-1.174,0.256-1.759,0.397c-9.72,2.343-19.075,7.786-23.527,16.641
		c-4.677,9.342-3.084,20.504-0.848,30.716c2.017,9.138,4.473,18.161,7.347,27.057c6.002,18.556,19.713,39.547,42.002,36.11
		c24.741-3.829,47.001-11.303,72.599-11.025c9.574,0.102,19.294,0.821,28.58-1.53c9.272-2.365,18.266-8.489,20.989-17.671
		C1271.633,661.56,1269.573,653.963,1267.292,646.576z"/>
	<path style="fill:#4D0F0E;" d="M1045.539,575.578c6.84,0,6.855-10.634,0-10.634
		C1038.698,564.944,1038.684,575.578,1045.539,575.578z"/>
	<path style="fill:#4D0F0E;" d="M932.491,568.041c6.84,0,6.855-10.633,0-10.633C925.651,557.407,925.636,568.041,932.491,568.041z"
		/>
	<path style="fill:#4D0F0E;" d="M881.622,694.276c6.841,0,6.85-10.633,0-10.633C874.776,683.643,874.767,694.276,881.622,694.276z"
		/>
	<path style="fill:#4D0F0E;" d="M723.352,618.913c6.84,0,6.855-10.634,0-10.634C716.511,608.279,716.501,618.913,723.352,618.913z"
		/>
	<path style="fill:#4D0F0E;" d="M883.503,946.751c6.845,0,6.855-10.633,0-10.633C876.662,936.118,876.652,946.751,883.503,946.751z"
		/>
	<path style="fill:#4D0F0E;" d="M512.331,947.421c-6.84,0-6.855,10.633,0,10.633C519.172,958.055,519.181,947.421,512.331,947.421z"
		/>
	<path style="fill:#4D0F0E;" d="M550.012,698.045c6.841,0,6.855-10.633,0-10.633C543.172,687.412,543.162,698.045,550.012,698.045z"
		/>
	<path style="fill:#4D0F0E;" d="M558.742,1085.153c6.841,0,6.85-10.631,0-10.631
		C551.898,1074.522,551.888,1085.153,558.742,1085.153z"/>
	<path style="fill:#4D0F0E;" d="M682.718,1346.376c-6.84,0-6.85,10.633,0,10.633
		C689.558,1357.009,689.573,1346.376,682.718,1346.376z"/>
	<path style="fill:#4D0F0E;" d="M1002.372,1291.287c6.841,0,6.855-10.634,0-10.634
		C995.531,1280.653,995.522,1291.287,1002.372,1291.287z"/>
	<path style="fill:#4D0F0E;" d="M969.509,1407.618c-6.841,0-6.85,10.633,0,10.633
		C976.355,1418.251,976.365,1407.618,969.509,1407.618z"/>
	<path style="fill:#4D0F0E;" d="M1212.988,1171.614c-6.845,0-6.855,10.631,0,10.631
		C1219.828,1182.245,1219.838,1171.614,1212.988,1171.614z"/>
	<path style="fill:#4D0F0E;" d="M1227.921,869.884c-6.84,0-6.85,10.631,0,10.631
		C1234.766,880.515,1234.776,869.884,1227.921,869.884z"/>
	<path style="fill:#E68C49;" d="M640.74,1184.944c0.132,5.72,0.809,11.929-2.339,16.034c-6.568,8.548-20.287,6.295-29.408,12.015
		c-8.399,5.253-11.186,15.886-16.034,24.519c-6.762,12.08-18.738,21.118-32.195,24.329c-13.461,3.211-28.224,0.553-39.708-7.145
		c-8.609-5.785-15.225-14.078-21.028-22.67c-2.938-4.339-5.783-8.89-9.846-12.185c-0.619-0.511-1.277-0.979-1.959-1.403
		c-6.719,7.401-11.396,17.16-10.1,26.987c1.383,10.356,8.974,18.692,16.565,25.878c6.806,6.424,13.91,12.507,21.286,18.246
		c15.396,11.973,38.533,21.627,55.035,6.253c18.31-17.077,32.516-35.769,53.847-49.932c7.976-5.296,16.419-10.166,22.777-17.332
		c6.334-7.167,10.334-17.289,7.42-26.412C652.76,1194.895,646.781,1189.77,640.74,1184.944z"/>
	<path style="fill:#E68C49;" d="M692.686,730.092c11.201,15.966,30.485,31.99,50.772,22.139
		c22.518-10.945,41.588-24.643,66.134-31.917c9.179-2.719,18.68-4.897,26.865-9.878c8.161-4.989,14.953-13.493,14.85-23.069
		c-0.073-7.586-4.283-14.239-8.638-20.626c-1.554,5.505-2.729,11.639-6.943,14.641c-8.794,6.241-21.242,0.058-31.644,2.848
		c-9.569,2.553-15.357,11.9-22.523,18.728c-10.013,9.561-24.112,14.685-37.925,13.8c-13.808-0.882-27.137-7.759-35.854-18.49
		c-6.534-8.058-10.422-17.929-13.447-27.846c-1.53-5.008-2.919-10.195-5.832-14.539c-0.438-0.669-0.93-1.311-1.457-1.917
		c-8.599,5.101-15.936,13.057-17.583,22.83c-1.72,10.305,3.089,20.505,8.239,29.603
		C682.319,714.537,687.322,722.438,692.686,730.092z"/>
	<path style="fill:#E68C49;" d="M436.322,894.813c4.618,8.136,9.622,16.036,14.987,23.693c11.201,15.966,30.484,31.99,50.772,22.139
		c22.519-10.948,41.589-24.643,66.134-31.917c9.179-2.721,18.679-4.896,26.864-9.88c8.161-4.989,14.953-13.491,14.85-23.067
		c-0.073-7.586-4.283-14.239-8.638-20.628c-1.555,5.505-2.729,11.641-6.943,14.64c-8.794,6.244-21.242,0.061-31.644,2.848
		c-9.569,2.555-15.357,11.9-22.524,18.731c-10.012,9.559-24.112,14.685-37.924,13.8c-13.808-0.884-27.138-7.758-35.854-18.489
		c-6.534-8.059-10.422-17.93-13.447-27.847c-1.53-5.009-2.918-10.195-5.832-14.538c-0.439-0.67-0.93-1.311-1.457-1.917
		c-8.599,5.101-15.936,13.057-17.583,22.831C426.363,875.514,431.171,885.711,436.322,894.813z"/>
	<path style="fill:#F7AA66;" d="M1583.141,964.101c2.509,4.59,3.425,9.881,4.497,15.006c2.119,10.151,5.101,20.331,10.88,28.945
		c7.712,11.476,20.365,19.525,34.041,21.652c13.671,2.126,28.176-1.703,39.011-10.322c7.756-6.154,14.363-14.94,24.127-16.619
		c10.606-1.839,22.451,5.442,31.766,0.017c4.468-2.607,6.192-8.612,8.238-13.954c-0.794-1.474-1.623-2.938-2.407-4.387
		c-4.492-8.339-8.019-17.181-10.489-26.305c-2.646-9.766-4.989-21.159-13.915-25.912c-5.919-3.159-13.091-2.37-19.669-1.065
		c-25.666,5.052-49.749,16.29-75.25,22.122c-10.26,2.329-20.818,3.82-30.47,8.027c-0.434,0.183-0.856,0.388-1.28,0.59
		c-0.118,0.057-0.239,0.108-0.357,0.165C1582.332,962.712,1582.766,963.394,1583.141,964.101z"/>
	<path style="fill:#E68C49;" d="M1727.462,1002.781c-9.316,5.425-21.16-1.856-31.766-0.017c-9.764,1.678-16.37,10.465-24.127,16.619
		c-10.835,8.619-25.34,12.448-39.011,10.322c-13.676-2.127-26.329-10.176-34.041-21.652c-5.778-8.614-8.76-18.794-10.88-28.945
		c-1.072-5.126-1.988-10.417-4.497-15.006c-0.375-0.707-0.809-1.389-1.276-2.039c-9.023,4.303-17.052,11.564-19.572,21.15
		c-2.646,10.107,1.223,20.699,5.53,30.227c3.864,8.521,8.137,16.84,12.789,24.948c7.462,12.989,19.68,26.396,34.499,28.322
		c4.475,0.581,9.178,0.16,14.071-1.691c12.852-4.869,24.76-10.63,37.027-15.693c2.692-1.111,5.412-2.175,8.152-3.198
		c7.525-2.81,15.267-5.265,23.566-6.928c9.384-1.878,19.04-3.189,27.64-7.413c8.58-4.234,16.117-12.087,16.872-21.634
		c0.614-7.561-2.977-14.568-6.738-21.323C1733.655,994.169,1731.93,1000.174,1727.462,1002.781z"/>
	<path style="fill:#E68C49;" d="M511.99,1168.079c8.161-4.989,14.957-13.491,14.85-23.069c-0.068-7.586-4.278-14.239-8.633-20.626
		c-1.559,5.505-2.733,11.64-6.943,14.641c-8.794,6.241-21.242,0.058-31.644,2.848c-9.574,2.553-15.357,11.9-22.529,18.728
		c-10.012,9.562-24.107,14.684-37.919,13.8c-13.813-0.882-27.138-7.759-35.854-18.49c-6.533-8.058-10.421-17.927-13.447-27.846
		c-1.53-5.008-2.918-10.195-5.832-14.538c-0.444-0.67-0.935-1.311-1.462-1.917c-8.594,5.101-15.932,13.057-17.578,22.831
		c-1.72,10.307,3.089,20.504,8.234,29.603c4.618,8.139,9.622,16.039,14.991,23.693c11.201,15.966,30.48,31.99,50.772,22.139
		c22.519-10.945,41.584-24.643,66.134-31.917C494.309,1175.239,503.81,1173.06,511.99,1168.079z"/>
	<path style="fill:#E68C49;" d="M1105.3,662.949c6.002,18.556,19.713,39.547,42.002,36.11c24.741-3.829,47.001-11.303,72.599-11.025
		c9.574,0.102,19.294,0.821,28.58-1.53c9.272-2.365,18.266-8.489,20.989-17.671c2.163-7.272,0.102-14.869-2.178-22.256
		c-3.113,4.801-6.041,10.319-10.947,11.944c-10.241,3.376-20.317-6.197-31.079-6.597c-9.9-0.378-18.182,6.85-27.045,11.264
		c-12.385,6.19-27.366,6.933-40.302,2.022c-12.94-4.911-23.65-15.408-28.819-28.229c-3.874-9.625-4.682-20.202-4.653-30.573
		c0.015-5.237,0.215-10.602-1.291-15.613c-0.224-0.767-0.507-1.525-0.828-2.26c-9.72,2.343-19.075,7.786-23.527,16.641
		c-4.677,9.342-3.084,20.504-0.848,30.716C1099.969,645.03,1102.425,654.052,1105.3,662.949z"/>
	<path style="fill:#E68C49;" d="M1468.466,889.426c8.161-4.989,14.957-13.491,14.85-23.067c-0.073-7.586-4.278-14.241-8.633-20.628
		c-1.559,5.505-2.733,11.642-6.943,14.64c-8.794,6.241-21.242,0.059-31.644,2.848c-9.574,2.555-15.357,11.9-22.528,18.731
		c-10.012,9.559-24.112,14.682-37.92,13.8c-13.813-0.884-27.138-7.758-35.854-18.489c-6.534-8.058-10.422-17.93-13.447-27.847
		c-1.535-5.008-2.918-10.195-5.837-14.54c-0.438-0.668-0.93-1.308-1.457-1.915c-8.594,5.101-15.936,13.057-17.578,22.828
		c-1.72,10.307,3.089,20.504,8.234,29.605c4.619,8.136,9.622,16.036,14.992,23.693c11.201,15.966,30.479,31.988,50.772,22.139
		c22.519-10.947,41.583-24.643,66.134-31.92C1450.785,896.586,1460.286,894.411,1468.466,889.426z"/>
	<path style="fill:#E68C49;" d="M1243.643,1315.633c8.019,17.779,23.966,37.125,45.74,31.242
		c24.165-6.543,45.457-16.434,70.932-18.989c9.525-0.955,19.265-1.315,28.234-4.682c8.955-3.374,17.218-10.455,18.904-19.883
		c1.349-7.467-1.54-14.79-4.624-21.878c-2.563,5.115-4.862,10.923-9.559,13.081c-9.807,4.49-20.882-3.912-31.62-3.118
		c-9.881,0.719-17.31,8.819-25.632,14.188c-11.62,7.52-26.431,9.915-39.829,6.465c-13.403-3.449-25.208-12.697-31.766-24.867
		c-4.911-9.14-6.884-19.562-8.005-29.871c-0.565-5.206-0.959-10.56-3.011-15.374c-0.307-0.738-0.672-1.459-1.072-2.153
		c-9.398,3.403-18.095,9.846-21.54,19.14c-3.62,9.801-0.799,20.719,2.553,30.621
		C1236.364,1298.412,1239.804,1307.109,1243.643,1315.633z"/>
	<path style="fill:#4D0F0E;" d="M804.029,1248.958c-2.655,0.816-4.897,2.594-7.016,4.395c-7.625,6.48-14.86,13.919-24.224,17.457
		c-13.749,5.191-34.592,9.815-34.505,29.238c0.054,12.092,8.892,13.269,19.333,13.756c30.992,1.454,64.307,3.449,65.871-34.785
		c0.287-7.04,0.511-14.394-2.466-20.777C818.041,1251.857,810.762,1246.883,804.029,1248.958z"/>
	<path style="fill:#4D0F0E;" d="M1758.921,1076.878c-2.767-0.234-5.51,0.577-8.146,1.454c-9.501,3.159-18.991,7.357-28.999,7.135
		c-14.694-0.324-35.751-3.827-42.933,14.219c-4.468,11.235,3.289,15.63,12.789,19.988c28.2,12.931,58.358,27.238,74.1-7.639
		c2.894-6.424,5.856-13.157,5.476-20.193C1770.833,1084.807,1765.942,1077.473,1758.921,1076.878z"/>
	<path style="fill:#4D0F0E;" d="M374.967,921.862c2.07-4.575,4.185-9.374,3.854-14.411c-0.327-5.038-3.961-10.322-9.096-10.799
		c-2.027-0.19-4.029,0.37-5.949,0.979c-6.923,2.19-13.832,5.121-21.15,4.887c-10.748-0.341-26.178-3.006-31.294,9.856
		c-3.181,8.007,2.524,11.21,9.506,14.399C341.554,936.242,363.717,946.705,374.967,921.862z"/>
	<path style="fill:#4D0F0E;" d="M914.937,658.435c1.934-0.636,3.547-1.947,5.067-3.272c5.471-4.77,10.636-10.212,17.442-12.921
		c9.993-3.973,25.203-7.684,24.76-21.518c-0.273-8.614-6.782-9.277-14.456-9.415c-22.777-0.414-47.274-1.172-47.678,26.1
		c-0.073,5.021-0.098,10.263,2.212,14.751C904.599,656.65,910.036,660.048,914.937,658.435z"/>
	<path style="fill:#4D0F0E;" d="M1001.471,1324.495c-22.777-0.417-47.269-1.172-47.674,26.1c-0.073,5.021-0.097,10.263,2.212,14.75
		c2.31,4.49,7.752,7.888,12.653,6.275c1.934-0.636,3.542-1.946,5.062-3.271c5.476-4.77,10.641-10.214,17.447-12.921
		c9.993-3.973,25.199-7.683,24.76-21.517C1015.653,1325.297,1009.144,1324.634,1001.471,1324.495z"/>
	<path style="fill:#4D0F0E;" d="M1564.281,1280.03c-22.777-0.414-47.274-1.171-47.673,26.1c-0.078,5.021-0.102,10.263,2.212,14.75
		c2.309,4.49,7.747,7.888,12.653,6.275c1.929-0.636,3.542-1.946,5.062-3.271c5.471-4.77,10.636-10.212,17.442-12.921
		c9.992-3.973,25.204-7.683,24.76-21.517C1578.464,1280.831,1571.954,1280.169,1564.281,1280.03z"/>
	<path style="fill:#4D0F0E;" d="M1369.436,691.621c1.934-0.636,3.542-1.946,5.062-3.271c5.476-4.77,10.641-10.212,17.442-12.921
		c9.993-3.973,25.204-7.683,24.765-21.518c-0.278-8.614-6.787-9.277-14.461-9.415c-22.777-0.414-47.269-1.169-47.673,26.1
		c-0.073,5.02-0.102,10.263,2.212,14.752C1359.092,689.836,1364.534,693.234,1369.436,691.621z"/>
	<path style="fill:#4D0F0E;" d="M820.248,859.17c-0.073,5.021-0.098,10.265,2.212,14.753c2.314,4.49,7.751,7.886,12.653,6.276
		c1.934-0.636,3.542-1.949,5.062-3.272c5.477-4.77,10.641-10.214,17.447-12.921c9.992-3.973,25.199-7.686,24.76-21.52
		c-0.278-8.614-6.787-9.274-14.461-9.413C845.144,832.657,820.652,831.901,820.248,859.17z"/>
	<path style="fill:#4D0F0E;" d="M1244.155,799.419c-3.128-3.961-9.116-6.256-13.618-3.737c-1.773,0.996-3.103,2.59-4.346,4.18
		c-4.458,5.73-8.482,12.061-14.645,16.022c-9.048,5.813-23.264,12.366-20.185,25.861c1.92,8.399,8.433,7.803,15.995,6.473
		c22.431-3.951,46.621-7.9,41.797-34.743C1248.262,808.535,1247.283,803.383,1244.155,799.419z"/>
</g>
</svg>
