<?xml version="1.0" encoding="utf-8"?>
<!-- Generator: Adobe Illustrator 27.5.0, SVG Export Plug-In . SVG Version: 6.00 Build 0)  -->
<svg version="1.1" id="Capa_1" xmlns="http://www.w3.org/2000/svg" xmlns:xlink="http://www.w3.org/1999/xlink" x="0px" y="0px"
	 viewBox="0 0 2279 1975" style="enable-background:new 0 0 2279 1975;" xml:space="preserve">
<path style="fill:#7A2F29;" d="M1660.183,1425.843c307.579-197.936,390.615-547.06,390.615-678.613
	c0-183.612-401.512-333.266-904.06-340.233v-0.166c-2.472,0.02-4.94,0.046-7.406,0.073c-2.467-0.027-4.935-0.052-7.405-0.073v0.166
	c-502.548,6.967-904.06,156.621-904.06,340.233c0,36.96,6.588,91.133,22.827,154.268c-0.001-0.003-0.002-0.007-0.003-0.01
	c30.083,116.966,93.418,264.808,209.986,391.518c0.011,0.012,0.021,0.024,0.033,0.036c1.872,2.035,3.758,4.064,5.658,6.087
	c0.132,0.141,0.264,0.281,0.395,0.421c0.831,0.883,1.664,1.765,2.499,2.646c0.103,0.109,0.207,0.218,0.31,0.328
	c1.863,1.963,3.74,3.92,5.63,5.872c0.199,0.206,0.4,0.411,0.599,0.617c0.717,0.739,1.436,1.477,2.157,2.214
	c0.256,0.261,0.511,0.523,0.767,0.785c0.913,0.93,1.826,1.86,2.745,2.788l0.049,0.049c2.058,2.079,4.132,4.152,6.221,6.218
	l0.167,0.166c2.058,2.034,4.132,4.062,6.22,6.082l0.197,0.19c1.008,0.974,2.018,1.946,3.033,2.917l0.375,0.358
	c0.963,0.921,1.929,1.84,2.899,2.757l0.2,0.19c0.965,0.913,1.934,1.823,2.905,2.733l0.656,0.614
	c0.941,0.879,1.884,1.757,2.831,2.633l0.655,0.604c0.796,0.736,1.595,1.469,2.395,2.203l0.726,0.665
	c0.922,0.843,1.847,1.684,2.775,2.524l0.848,0.766c0.794,0.717,1.589,1.432,2.387,2.147l0.949,0.849
	c0.799,0.714,1.601,1.426,2.405,2.138l1.067,0.944c0.883,0.778,1.766,1.556,2.653,2.332l1.06,0.924
	c0.638,0.556,1.278,1.111,1.918,1.666l1.221,1.057c0.855,0.738,1.712,1.474,2.572,2.209l1.226,1.046
	c0.668,0.57,1.338,1.138,2.009,1.706c0.526,0.445,1.052,0.89,1.58,1.334c0.653,0.549,1.307,1.099,1.962,1.647
	c0.484,0.405,0.968,0.809,1.454,1.213c0.836,0.696,1.673,1.391,2.513,2.085l1.356,1.116c0.534,0.439,1.07,0.878,1.606,1.316
	c0.68,0.556,1.362,1.111,2.044,1.666c0.63,0.511,1.26,1.023,1.892,1.533c0.532,0.43,1.066,0.859,1.6,1.288
	c0.526,0.422,1.052,0.843,1.579,1.264c0.859,0.687,1.721,1.372,2.584,2.056l1.235,0.978c0.606,0.478,1.212,0.955,1.82,1.432
	c0.568,0.445,1.137,0.889,1.706,1.333c0.792,0.618,1.586,1.235,2.382,1.85l1.327,1.025c0.937,0.722,1.877,1.443,2.819,2.163
	l1.317,1.005c0.603,0.458,1.207,0.916,1.813,1.374l1.337,1.007c0.995,0.749,1.993,1.496,2.993,2.242l1.146,0.853
	c0.665,0.494,1.331,0.987,1.999,1.48l0.331,0.243c1.338,0.986,2.681,1.969,4.028,2.949l0.922,0.67
	c1.281,0.929,2.567,1.856,3.857,2.78l0.568,0.407c0.714,0.511,1.43,1.02,2.146,1.529l0.744,0.527
	c1.284,0.909,2.571,1.816,3.863,2.719l0.722,0.505c0.735,0.513,1.471,1.025,2.209,1.537l0.081,0.056
	c1.489,1.032,2.985,2.059,4.486,3.084l0.818,0.557c1.47,1.001,2.945,1.999,4.425,2.993l0.144,0.097
	c0.788,0.53,1.579,1.057,2.37,1.584l0.463,0.308c1.431,0.952,2.867,1.899,4.308,2.844l0.607,0.398
	c2.363,1.546,4.739,3.084,7.128,4.611l0.685,0.437c2.41,1.537,4.833,3.066,7.27,4.585l0.355,0.22
	c1.558,0.97,3.122,1.936,4.692,2.899l0.413,0.253c2.483,1.52,4.98,3.031,7.49,4.531l0.566,0.338
	c2.533,1.511,5.081,3.012,7.644,4.503l0.128,0.074c1.633,0.95,3.272,1.895,4.917,2.836l0.602,0.344
	c2.552,1.458,5.12,2.905,7.701,4.342l0.515,0.286c4.342,2.413,8.724,4.797,13.146,7.151l0.587,0.312
	c2.652,1.409,5.319,2.807,8.001,4.193l0.41,0.212c1.767,0.913,3.54,1.821,5.319,2.724l0.114,0.057
	c2.732,1.385,5.48,2.759,8.242,4.122l0.508,0.251c2.737,1.348,5.49,2.685,8.257,4.01l0.546,0.26c1.727,0.826,3.461,1.648,5.2,2.465
	l0.376,0.177c0.941,0.441,1.884,0.881,2.828,1.32l0.086,0.04c1.81,0.841,3.626,1.675,5.449,2.506l0.686,0.312
	c2.785,1.266,5.583,2.52,8.397,3.763l0.652,0.287c1.699,0.749,3.404,1.493,5.114,2.233l0.626,0.271
	c0.915,0.395,1.831,0.789,2.749,1.182l0.782,0.333c1.591,0.678,3.187,1.354,4.788,2.025l1.131,0.474
	c2.753,1.15,5.52,2.288,8.301,3.416l1.124,0.454c1.572,0.635,3.149,1.266,4.729,1.893l0.988,0.392
	c0.902,0.357,1.805,0.713,2.71,1.068l0.833,0.325c1.662,0.649,3.33,1.295,5.001,1.936l1.055,0.404
	c1.719,0.656,3.442,1.308,5.17,1.957l0.683,0.256c0.9,0.337,1.802,0.672,2.705,1.006l1.253,0.462
	c1.544,0.569,3.092,1.135,4.644,1.697l1.223,0.442c0.898,0.323,1.796,0.646,2.696,0.967c0.484,0.173,0.969,0.344,1.453,0.516
	c1.466,0.52,2.936,1.037,4.408,1.551l1.417,0.493c1.462,0.508,2.928,1.011,4.397,1.513c0.519,0.177,1.037,0.355,1.557,0.531
	c0.851,0.288,1.702,0.575,2.555,0.862c0.584,0.196,1.168,0.391,1.753,0.586c1.369,0.457,2.742,0.911,4.117,1.362
	c0.593,0.195,1.184,0.389,1.778,0.583c0.85,0.277,1.702,0.554,2.555,0.829c0.793,0.256,1.588,0.509,2.383,0.764
	c1.161,0.371,2.324,0.741,3.488,1.108c0.624,0.197,1.249,0.393,1.875,0.589c1.198,0.375,2.398,0.748,3.601,1.118
	c0.816,0.251,1.632,0.503,2.45,0.753c0.788,0.241,1.579,0.48,2.369,0.719c0.769,0.233,1.54,0.464,2.31,0.695
	c1.182,0.354,2.365,0.706,3.551,1.056c0.757,0.224,1.515,0.447,2.275,0.669c0.776,0.227,1.552,0.454,2.331,0.679
	c1.235,0.358,2.474,0.714,3.714,1.068c0.761,0.217,1.525,0.432,2.287,0.648c0.794,0.224,1.588,0.447,2.384,0.669
	c0.962,0.269,1.924,0.537,2.89,0.803c1.036,0.286,2.073,0.571,3.113,0.854c0.78,0.213,1.562,0.424,2.344,0.635
	c0.865,0.233,1.731,0.465,2.599,0.696c1.115,0.297,2.232,0.593,3.351,0.887c0.84,0.22,1.68,0.441,2.521,0.659
	c0.769,0.2,1.538,0.4,2.309,0.598c1.297,0.333,2.597,0.665,3.899,0.994c0.714,0.18,1.429,0.359,2.144,0.538
	c0.915,0.229,1.833,0.457,2.751,0.684c0.864,0.214,1.728,0.427,2.594,0.638c1.185,0.289,2.373,0.577,3.563,0.863
	c0.697,0.168,1.395,0.334,2.093,0.5c1.061,0.252,2.124,0.503,3.188,0.752c0.98,0.23,1.961,0.458,2.944,0.685
	c0.961,0.222,1.923,0.444,2.887,0.663c0.721,0.165,1.442,0.329,2.164,0.492c1.375,0.31,2.752,0.618,4.132,0.923
	c0.701,0.155,1.404,0.308,2.106,0.462c1.039,0.227,2.079,0.453,3.12,0.677c0.586,0.126,1.169,0.254,1.756,0.378
	c1.464,0.313,2.932,0.622,4.402,0.929c0.655,0.137,1.311,0.273,1.967,0.409c1.343,0.278,2.689,0.553,4.037,0.826
	c0.68,0.138,1.361,0.274,2.043,0.411c1.14,0.228,2.282,0.456,3.426,0.681c0.662,0.13,1.324,0.261,1.988,0.39
	c1.474,0.287,2.951,0.571,4.43,0.853c0.635,0.12,1.272,0.24,1.908,0.36c1.159,0.218,2.318,0.433,3.48,0.648
	c0.593,0.109,1.185,0.22,1.779,0.329c1.502,0.274,3.008,0.546,4.517,0.815c0.617,0.11,1.236,0.219,1.855,0.328
	c1.555,0.274,3.11,0.547,4.672,0.815c0.505,0.087,1.011,0.172,1.517,0.258c1.263,0.215,2.528,0.428,3.795,0.639
	c0.601,0.1,1.201,0.2,1.802,0.299c1.575,0.259,3.154,0.516,4.735,0.769c0.565,0.09,1.13,0.179,1.695,0.269
	c1.319,0.208,2.641,0.416,3.964,0.62c0.515,0.08,1.029,0.16,1.544,0.239c1.591,0.243,3.186,0.483,4.783,0.72
	c0.581,0.086,1.162,0.172,1.743,0.257c1.656,0.243,3.314,0.483,4.976,0.72l1.235,0.173c1.432,0.202,2.867,0.401,4.303,0.598
	c0.513,0.07,1.026,0.141,1.539,0.21c1.662,0.225,3.326,0.446,4.995,0.664c0.569,0.075,1.139,0.147,1.708,0.221
	c1.448,0.187,2.898,0.371,4.352,0.553l1.115,0.14c1.738,0.215,3.482,0.426,5.228,0.635c0.518,0.062,1.036,0.123,1.554,0.184
	c1.761,0.207,3.525,0.413,5.293,0.612l0.998,0.112c1.591,0.178,3.184,0.353,4.781,0.526l1.338,0.144
	c1.767,0.188,3.537,0.372,5.312,0.553l1.441,0.145c1.658,0.167,3.319,0.331,4.984,0.491l0.741,0.072
	c1.801,0.172,3.607,0.339,5.415,0.503c0.544,0.049,1.089,0.099,1.633,0.147c1.806,0.161,3.614,0.32,5.427,0.474l1.026,0.085
	c1.644,0.138,3.292,0.272,4.942,0.403l1.266,0.101c1.841,0.144,3.687,0.285,5.536,0.421l1.384,0.101
	c1.798,0.13,3.599,0.258,5.405,0.381l0.468,0.033c1.916,0.13,3.839,0.254,5.763,0.375l1.363,0.085
	c1.93,0.119,3.863,0.235,5.801,0.345l0.815,0.046c1.787,0.101,3.578,0.197,5.372,0.29l1.066,0.056
	c1.946,0.099,3.896,0.194,5.851,0.284l1.248,0.057c1.895,0.086,3.794,0.168,5.697,0.246l0.401,0.017
	c1.989,0.08,3.983,0.154,5.98,0.226l1.285,0.046c1.974,0.068,3.951,0.133,5.934,0.192l0.989,0.028
	c1.812,0.052,3.629,0.102,5.449,0.147l1.052,0.027c1.982,0.048,3.969,0.091,5.96,0.129l1.296,0.024
	c2.06,0.039,4.123,0.074,6.192,0.102v0.123c2.475-0.007,4.942-0.021,7.405-0.041c1.231,0.01,2.464,0.019,3.698,0.026
	s2.47,0.012,3.707,0.016v-0.123c1.584-0.022,3.164-0.047,4.742-0.074c0.531-0.009,1.061-0.02,1.592-0.03
	c1.026-0.019,2.051-0.039,3.075-0.061c0.653-0.014,1.304-0.028,1.956-0.043c0.93-0.021,1.86-0.043,2.789-0.066
	c0.645-0.016,1.289-0.032,1.933-0.049c0.973-0.025,1.944-0.052,2.915-0.079c0.6-0.018,1.2-0.034,1.799-0.052
	c1.114-0.033,2.227-0.069,3.338-0.105l1.305-0.041c1.575-0.053,3.147-0.108,4.717-0.167l0.521-0.02
	c1.364-0.051,2.727-0.105,4.087-0.161c0.503-0.02,1.004-0.042,1.506-0.064c1.069-0.045,2.137-0.091,3.203-0.138
	c0.496-0.022,0.991-0.045,1.486-0.068c1.145-0.053,2.288-0.107,3.43-0.162l1.179-0.057c1.25-0.062,2.499-0.126,3.746-0.192
	l0.957-0.049c4.729-0.253,9.435-0.532,14.115-0.837l0.785-0.052c1.369-0.089,2.735-0.182,4.099-0.276l0.503-0.035
	c1.433-0.1,2.862-0.202,4.29-0.307l0.459-0.033c1.365-0.101,2.727-0.204,4.088-0.309c0.429-0.033,0.856-0.068,1.285-0.101
	c0.969-0.076,1.939-0.152,2.907-0.23c0.341-0.027,0.681-0.056,1.022-0.083c1.056-0.086,2.112-0.173,3.166-0.262
	c0.321-0.027,0.641-0.055,0.961-0.083c1.038-0.088,2.075-0.177,3.111-0.268c0.374-0.033,0.747-0.066,1.121-0.1
	c1.03-0.091,2.059-0.184,3.087-0.278c0.3-0.028,0.599-0.055,0.899-0.083c1.069-0.099,2.136-0.198,3.202-0.3
	c0.318-0.031,0.636-0.061,0.953-0.091c1.076-0.103,2.15-0.207,3.223-0.313c0.258-0.026,0.516-0.052,0.773-0.077
	c1.214-0.121,2.426-0.243,3.636-0.367l0.289-0.03c1.334-0.137,2.667-0.277,3.997-0.418c0.018-0.002,0.035-0.003,0.052-0.005
	c163.948-17.459,295.769-67.569,401.216-135.436"/>
<path style="fill:#541B1C;" d="M1962.089,733.962c0-45.438-32.467-88.322-90.014-126.164
	c-136.274-89.635-413.229-150.974-732.758-150.974c-454.364,0-822.748,124.066-822.748,277.146c0,12.555,2.461,24.896,7.277,36.997
	l0.036,0.09l0.543,1.34l0.401,0.957l0.158,0.372c1.525,3.575,3.297,7.124,5.224,10.653
	c56.802-104.159,286.588-187.945,585.285-216.331c0.15-0.014,0.3-0.028,0.45-0.042c3.701-0.351,7.412-0.693,11.134-1.027
	c0.132-0.012,0.264-0.024,0.397-0.036c3.723-0.333,7.457-0.658,11.2-0.974c0.156-0.013,0.313-0.027,0.469-0.04
	c1.787-0.151,3.577-0.299,5.369-0.445c0.294-0.024,0.587-0.048,0.881-0.072c3.527-0.287,7.064-0.567,10.609-0.839
	c0.428-0.033,0.856-0.065,1.285-0.098c1.744-0.133,3.489-0.264,5.237-0.393l0.631-0.047c1.085-0.079,2.171-0.159,3.257-0.237
	l0.252-0.018c3.46-0.249,6.928-0.491,10.403-0.725l0.418-0.028c1.009-0.068,2.02-0.134,3.03-0.201l0.818-0.054
	c0.995-0.065,1.99-0.13,2.985-0.194l0.948-0.06c1-0.064,2.001-0.127,3.003-0.19l0.701-0.044c3.151-0.196,6.308-0.386,9.471-0.57
	l1.28-0.074c0.839-0.048,1.678-0.096,2.517-0.143c0.561-0.032,1.121-0.063,1.682-0.094c0.75-0.042,1.499-0.084,2.249-0.125
	c0.666-0.036,1.333-0.072,2.001-0.108c0.7-0.038,1.399-0.076,2.099-0.113c0.668-0.035,1.337-0.07,2.005-0.105
	c1.646-0.086,3.293-0.17,4.942-0.253l0.793-0.04c0.814-0.04,1.628-0.08,2.443-0.12c0.632-0.031,1.264-0.062,1.897-0.092
	c0.689-0.033,1.377-0.066,2.066-0.098c0.76-0.036,1.52-0.071,2.28-0.107c0.597-0.027,1.194-0.055,1.791-0.082
	c0.802-0.036,1.603-0.072,2.405-0.108c0.692-0.03,1.384-0.061,2.077-0.091c1.237-0.054,2.475-0.107,3.714-0.159
	c0.665-0.028,1.331-0.055,1.997-0.082c0.668-0.027,1.335-0.055,2.003-0.082c0.796-0.032,1.593-0.063,2.39-0.095
	c0.631-0.025,1.262-0.049,1.893-0.073c0.697-0.027,1.393-0.054,2.09-0.08c0.793-0.029,1.586-0.06,2.379-0.088
	c0.584-0.021,1.166-0.043,1.75-0.064c1.102-0.04,2.204-0.079,3.307-0.117c0.574-0.019,1.148-0.039,1.723-0.058
	c1.087-0.036,2.175-0.073,3.264-0.108c0.583-0.019,1.167-0.037,1.75-0.056c0.804-0.026,1.609-0.051,2.415-0.076
	c0.642-0.02,1.284-0.039,1.926-0.058c0.866-0.026,1.732-0.051,2.599-0.077c0.519-0.015,1.038-0.03,1.557-0.044
	c1.01-0.028,2.02-0.056,3.031-0.083l1.307-0.035c1.372-0.036,2.745-0.072,4.119-0.105l1.387-0.034
	c0.968-0.024,1.938-0.046,2.907-0.069c0.579-0.013,1.159-0.026,1.738-0.039c0.828-0.019,1.655-0.036,2.483-0.054
	c0.61-0.013,1.219-0.026,1.829-0.038c0.972-0.02,1.945-0.039,2.918-0.058l1.273-0.025c1.374-0.026,2.747-0.051,4.123-0.075
	l0.441-0.007c1.332-0.023,2.664-0.044,3.998-0.064c0.547-0.009,1.094-0.016,1.641-0.025c0.88-0.012,1.762-0.025,2.644-0.038
	c0.612-0.008,1.224-0.016,1.836-0.024c0.911-0.012,1.822-0.023,2.734-0.034l1.408-0.016c1.097-0.012,2.196-0.024,3.294-0.034
	l1.175-0.012c1.418-0.013,2.838-0.026,4.258-0.036l1.013-0.008c1.138-0.008,2.278-0.016,3.416-0.022l1.241-0.006
	c1.071-0.005,2.141-0.011,3.212-0.016l1.401-0.005c1.063-0.004,2.125-0.007,3.189-0.009l1.138-0.003
	c1.478-0.003,2.957-0.004,4.436-0.004c2.203,0,4.403,0.004,6.601,0.01c0.492,0.001,0.984,0.003,1.476,0.004
	c2.145,0.007,4.289,0.016,6.431,0.028l1.027,0.007c1.932,0.012,3.861,0.026,5.789,0.043l1.301,0.011
	c2.146,0.019,4.291,0.042,6.433,0.067l1.23,0.015c2.042,0.025,4.083,0.052,6.121,0.081l0.605,0.009
	c2.181,0.033,4.359,0.069,6.534,0.107l1.443,0.026c2.095,0.038,4.189,0.078,6.28,0.121l0.244,0.005
	c2.202,0.046,4.4,0.095,6.597,0.147l1.197,0.028c2.189,0.052,4.375,0.107,6.559,0.166l0.617,0.017
	c2.03,0.055,4.058,0.113,6.084,0.172l1.132,0.033c2.18,0.065,4.357,0.133,6.532,0.204l0.768,0.026
	c2.177,0.071,4.352,0.146,6.524,0.223l0.285,0.01c2.228,0.079,4.453,0.162,6.676,0.248l0.978,0.038
	c4.467,0.174,8.922,0.36,13.367,0.557l0.834,0.038c4.54,0.204,9.069,0.42,13.585,0.648l0.45,0.022
	c2.305,0.117,4.606,0.238,6.905,0.361l0.024,0.001c4.715,0.254,9.417,0.52,14.105,0.801l0.044,0.003
	c4.678,0.28,9.343,0.573,13.993,0.879l0.074,0.005c1.5,0.099,2.999,0.199,4.496,0.301c0.14,0.01,0.28,0.019,0.421,0.029
	c1.254,0.085,2.508,0.172,3.76,0.259c0.443,0.031,0.886,0.062,1.33,0.093c0.992,0.07,1.983,0.14,2.973,0.211
	c0.452,0.033,0.904,0.065,1.356,0.097c1.137,0.082,2.273,0.164,3.408,0.248c0.258,0.019,0.517,0.039,0.776,0.057
	c4.43,0.328,8.847,0.668,13.25,1.02c0.177,0.014,0.355,0.028,0.533,0.043c1.317,0.106,2.633,0.212,3.948,0.32
	c0.149,0.012,0.298,0.024,0.448,0.036c1.388,0.114,2.775,0.229,4.161,0.346c0.07,0.006,0.14,0.011,0.21,0.017
	c310.241,26.089,550.742,111.503,609.138,218.385C1957.286,767.966,1962.089,751.156,1962.089,733.962z"/>
<path style="fill:#F59E20;" d="M1570.201,598.721l0.133-0.019c-70.661-14.669-148.403-25.84-231.1-32.795
	c-0.07-0.006-0.14-0.011-0.21-0.017c-1.386-0.117-2.773-0.232-4.161-0.346c-0.15-0.012-0.299-0.024-0.448-0.036
	c-1.315-0.108-2.631-0.215-3.948-0.32c-0.178-0.015-0.355-0.029-0.533-0.043c-4.403-0.352-8.82-0.692-13.25-1.02
	c-0.258-0.019-0.517-0.038-0.776-0.057c-1.135-0.083-2.271-0.166-3.408-0.248c-0.452-0.032-0.904-0.065-1.356-0.097
	c-0.991-0.071-1.981-0.142-2.973-0.211c-0.444-0.031-0.887-0.062-1.33-0.093c-1.252-0.087-2.506-0.174-3.76-0.259
	c-0.14-0.01-0.28-0.019-0.421-0.029c-1.497-0.101-2.996-0.202-4.496-0.301l-0.074-0.005c-4.65-0.307-9.315-0.599-13.993-0.879
	l-0.044-0.003c-4.689-0.28-9.39-0.547-14.105-0.801l-0.024-0.001c-2.299-0.123-4.6-0.244-6.905-0.361l-0.45-0.022
	c-4.517-0.228-9.045-0.445-13.585-0.648l-0.834-0.038c-4.444-0.198-8.9-0.384-13.367-0.557l-0.978-0.038
	c-2.223-0.086-4.448-0.169-6.676-0.248l-0.285-0.01c-2.173-0.077-4.347-0.152-6.524-0.223l-0.768-0.026
	c-2.175-0.071-4.352-0.139-6.532-0.204l-1.132-0.033c-2.026-0.06-4.054-0.117-6.084-0.172l-0.617-0.017
	c-2.184-0.058-4.371-0.113-6.559-0.166l-1.197-0.028c-2.197-0.052-4.395-0.102-6.597-0.147l-0.244-0.005
	c-2.091-0.043-4.184-0.083-6.28-0.121l-1.443-0.026c-2.176-0.038-4.353-0.074-6.534-0.107l-0.605-0.009
	c-2.038-0.029-4.079-0.057-6.121-0.081l-1.23-0.015c-2.142-0.025-4.287-0.048-6.433-0.067l-1.301-0.011
	c-1.927-0.017-3.857-0.031-5.789-0.043l-1.027-0.007c-2.141-0.012-4.286-0.021-6.431-0.028c-0.492-0.002-0.984-0.003-1.476-0.004
	c-2.198-0.006-4.399-0.01-6.601-0.01c-1.48,0-2.958,0.002-4.436,0.004l-1.138,0.003c-1.064,0.002-2.126,0.005-3.189,0.009
	l-1.401,0.005c-1.071,0.005-2.142,0.01-3.212,0.016l-1.241,0.006c-1.139,0.007-2.278,0.014-3.416,0.022l-1.013,0.008
	c-1.421,0.011-2.84,0.023-4.258,0.036l-1.175,0.012c-1.099,0.011-2.197,0.022-3.294,0.034l-1.408,0.016
	c-0.912,0.011-1.823,0.022-2.734,0.034c-0.612,0.008-1.224,0.016-1.836,0.024c-0.882,0.012-1.764,0.025-2.644,0.038
	c-0.547,0.009-1.094,0.016-1.641,0.025c-1.334,0.02-2.666,0.042-3.998,0.064l-0.441,0.007c-1.376,0.023-2.749,0.049-4.123,0.075
	l-1.273,0.025c-0.973,0.019-1.946,0.039-2.918,0.058c-0.61,0.012-1.219,0.025-1.829,0.038c-0.829,0.018-1.656,0.035-2.483,0.054
	c-0.579,0.013-1.159,0.026-1.738,0.039c-0.969,0.023-1.939,0.045-2.907,0.069l-1.387,0.034c-1.374,0.033-2.747,0.069-4.119,0.105
	l-1.307,0.035c-1.011,0.027-2.021,0.055-3.031,0.083c-0.519,0.014-1.038,0.029-1.557,0.044c-0.867,0.025-1.733,0.051-2.599,0.077
	c-0.642,0.019-1.284,0.039-1.926,0.058c-0.805,0.025-1.61,0.05-2.415,0.076c-0.584,0.019-1.167,0.037-1.75,0.056
	c-1.089,0.035-2.177,0.072-3.264,0.108c-0.575,0.019-1.148,0.039-1.723,0.058c-1.103,0.038-2.205,0.077-3.307,0.117
	c-0.584,0.021-1.166,0.042-1.75,0.064c-0.793,0.028-1.587,0.058-2.379,0.088c-0.697,0.026-1.393,0.053-2.09,0.08
	c-0.631,0.024-1.262,0.049-1.893,0.073c-0.797,0.032-1.593,0.063-2.39,0.095c-0.668,0.027-1.336,0.055-2.003,0.082
	c-0.666,0.027-1.332,0.054-1.997,0.082c-1.239,0.052-2.477,0.105-3.714,0.159c-0.693,0.03-1.385,0.061-2.077,0.091
	c-0.802,0.036-1.603,0.072-2.405,0.108c-0.597,0.027-1.194,0.055-1.791,0.082c-0.76,0.035-1.521,0.071-2.28,0.107
	c-0.689,0.032-1.378,0.065-2.066,0.098c-0.633,0.03-1.264,0.061-1.897,0.092c-0.815,0.04-1.629,0.08-2.443,0.12l-0.793,0.04
	c-1.649,0.083-3.296,0.167-4.942,0.253c-0.668,0.035-1.337,0.07-2.005,0.105c-0.7,0.037-1.4,0.076-2.099,0.113
	c-0.667,0.036-1.334,0.072-2.001,0.108c-0.75,0.041-1.5,0.083-2.249,0.125c-0.561,0.032-1.121,0.063-1.682,0.094
	c-0.839,0.047-1.678,0.095-2.517,0.143l-1.28,0.074c-3.163,0.184-6.32,0.374-9.471,0.57l-0.701,0.044
	c-1.002,0.063-2.003,0.126-3.003,0.19l-0.948,0.06c-0.996,0.064-1.991,0.129-2.985,0.194l-0.818,0.054
	c-1.011,0.067-2.021,0.133-3.03,0.201l-0.418,0.028c-3.476,0.234-6.943,0.476-10.403,0.725l-0.252,0.018
	c-1.086,0.078-2.172,0.158-3.257,0.237l-0.631,0.047c-1.748,0.129-3.494,0.26-5.237,0.393c-0.429,0.033-0.856,0.065-1.285,0.098
	c-3.544,0.272-7.081,0.551-10.609,0.839c-0.294,0.024-0.587,0.048-0.881,0.072c-1.791,0.146-3.581,0.295-5.369,0.445
	c-0.156,0.013-0.313,0.027-0.469,0.04c-3.743,0.316-7.477,0.641-11.2,0.974c-0.132,0.012-0.265,0.024-0.397,0.036
	c-3.722,0.334-7.433,0.676-11.134,1.027c-0.15,0.014-0.3,0.028-0.45,0.042c-231.431,21.998-421.477,77.259-521.759,149.481
	c-0.002,0.012-0.004,0.023-0.006,0.034c-29.125,20.982-50.743,43.382-63.526,66.827c12.085,22.164,32.002,43.406,58.748,63.387
	c0.076,0.056,0.151,0.112,0.226,0.168c0.381,0.284,0.763,0.568,1.147,0.851c0.08,0.06,0.162,0.12,0.242,0.179
	c0.361,0.267,0.724,0.533,1.088,0.799c0.212,0.155,0.424,0.309,0.637,0.464c0.251,0.183,0.502,0.365,0.755,0.548
	c0.487,0.352,0.975,0.704,1.466,1.055l0.048,0.035c0.587,0.42,1.177,0.84,1.771,1.259l0.287,0.202
	c0.543,0.383,1.088,0.765,1.637,1.147l0.384,0.266c0.539,0.374,1.079,0.748,1.623,1.122l0.272,0.185
	c1.515,1.038,3.049,2.072,4.6,3.102l1.286,0.852l0.74,0.484c0.491,0.322,0.983,0.643,1.478,0.965l0.66,0.427
	c0.561,0.363,1.124,0.725,1.69,1.086l0.427,0.272c0.651,0.415,1.305,0.83,1.962,1.244l0.247,0.155
	c138.612,87.17,411.632,146.469,725.696,146.469c275.108,0,518.672-45.487,668.032-115.344l0.107-0.05
	c0.925-0.432,1.846-0.867,2.764-1.301l0.102-0.048c0.855-0.405,1.706-0.811,2.554-1.218l0.33-0.157
	c0.901-0.432,1.799-0.866,2.693-1.3l1.297-0.634l1.27-0.621c0.608-0.299,1.213-0.599,1.818-0.899l0.701-0.347
	c0.678-0.337,1.352-0.675,2.025-1.012l0.443-0.222c0.715-0.36,1.427-0.72,2.138-1.082l0.272-0.138
	c0.888-0.452,1.771-0.905,2.652-1.358c0.102-0.053,0.205-0.106,0.308-0.159c58.253-30.074,99.631-64.194,119.609-100.834
	C1905.662,705.948,1764.735,639.095,1570.201,598.721z"/>
<path style="fill:#ED8E10;" d="M905.139,794.278c-15.093-15.44-12.725-32.838-3.027-47.744c-1.804-1.723-3.764-3.224-5.914-4.338
	c-12.138-6.288-30.005,1.681-42.302,5.513c-13.604,4.24-28.039,9.534-42.061,8.839c-3.487,2.164-7.161,4.062-10.848,5.857
	c-13.036,6.347-26.698,11.701-40.865,14.619c16.481,6.756,31.862,16.206,45.251,27.941c12.593,0.515,25.142,4.189,35.908,10.398
	c22.489,12.971,32.313,36.022,40.447,59.343c18.631-10.347,39.606-16.498,60.899-17.513c4.765-0.227,9.539-0.197,14.298,0.083
	c25.504,1.498,50.578,10.154,71.586,24.694c0.009-11.544-3.745-23.243-9.997-34.301c-3.001-5.309-6.136-10.613-12.658-11.345
	c-5.508-0.618-11.029,1.561-16.191,3.168c-11.859,3.692-20.674,1.768-31.4-4.313c-8.479-4.808-13.863-11.773-18.118-19.602
	c-3.112-1.385-6.197-2.828-9.253-4.316C921.601,806.735,912.364,801.669,905.139,794.278z"/>
<path style="fill:#ED8E10;" d="M398.599,763.254c9.882,18.837,33.294,28.025,53.674,25.323
	c25.168-3.337,49.174-16.255,75.119-11.597c27.693,4.971,41.346,24.396,50.997,46.906c3.872-6.948,9.485-13.435,15.815-19.009
	c14.586-12.845,31.587-22.869,49.798-29.651c-4.961-4.563-9.235-9.813-12.586-15.613c-2.293-0.183-4.548-0.537-6.707-1.115
	l-0.969-0.276c-1.283-0.389-2.527-0.861-3.722-1.426c-0.598-0.282-1.182-0.589-1.753-0.92c-0.428-0.249-0.849-0.511-1.26-0.787
	c-1.235-0.83-2.393-1.789-3.456-2.895c-0.848-0.881-1.604-1.832-2.272-2.836c-0.133-0.201-0.263-0.405-0.389-0.609
	c-0.379-0.616-0.726-1.25-1.041-1.901c-0.211-0.434-0.407-0.875-0.59-1.322c-0.183-0.447-0.352-0.9-0.508-1.36
	c-0.234-0.688-0.437-1.388-0.611-2.099l-0.185-0.816c-0.058-0.273-0.111-0.547-0.161-0.823c-0.147-0.826-0.257-1.661-0.33-2.502
	c-0.048-0.561-0.08-1.124-0.096-1.688c-0.016-0.564-0.016-1.129,0.001-1.694l0.036-0.847c0.079-1.411,0.257-2.817,0.527-4.2
	c0.108-0.553,0.232-1.101,0.369-1.645l0.218-0.812l0.237-0.804c0.74-2.401,1.724-4.704,2.893-6.919l0.397-0.735
	c1.612-2.927,3.543-5.698,5.652-8.335c0.878-1.099,1.788-2.174,2.719-3.228l1.125-1.254l1.141-1.234l0.894-0.942l0.153-0.161
	c0.375-0.39,0.752-0.776,1.132-1.162c0.219-0.222,0.439-0.443,0.66-0.663c0.12-0.119,0.239-0.238,0.359-0.357
	c2.936-2.919,6.006-5.7,9.199-8.333c3.875-5.368,8.643-10.151,14.208-14.1c5.273-3.741,11.075-7.351,17.644-7.944
	c1.808-0.163,3.555-0.078,5.272,0.145c13.953-5.542,28.793-8.84,43.793-9.555c0.654-0.031,1.309-0.056,1.963-0.078
	c1.521-1.035,3.018-2.111,4.496-3.22c21.987-16.503,42.599-34.95,69.221-43.733c20.994-6.925,41.787-4.816,62.915,0.29
	c25.391,6.137,50.241,16.563,76.83,13.187c45.516-5.779,82.857-40.82,130.502-35.774c5.884,0.623,11.77,1.491,17.649,2.551
	c15.924-6.379,32.878-10.175,50.017-10.992c5.325-0.254,10.659-0.22,15.977,0.093c34.343,2.017,67.987,15.648,93.825,38.402
	c18.157,15.99,30.245,39.719,10.535,59.882c-6.766,6.921-15.415,11.666-24.118,15.903c-16.295,7.935-33.452,14.497-51.29,17.489
	l-0.218,0.036c-0.609,0.101-1.22,0.198-1.831,0.291l-0.49,0.075c-0.534,0.079-1.069,0.154-1.604,0.226l-0.592,0.081
	c-0.701,0.092-1.403,0.179-2.107,0.259c-3.172,0.36-6.367,0.594-9.57,0.695c-0.105,0.003-0.21,0.005-0.315,0.008
	c-3.567,3.635-7.14,7.241-10.595,10.892c-2.166,2.288-4.455,4.693-6.738,7.211c1.607,1.539,3.183,3.11,4.726,4.715l0.694,0.73
	l0.586,0.617l0.692,0.743c0.46,0.497,0.917,0.998,1.371,1.504c0.454,0.505,0.904,1.015,1.349,1.529
	c3.788,4.368,7.257,9.042,9.927,14.1l0.463,0.897c0.757,1.501,1.443,3.035,2.045,4.604l0.35,0.946
	c0.228,0.634,0.441,1.273,0.639,1.918l0.287,0.972c0.184,0.651,0.35,1.309,0.499,1.972l0.21,0.999
	c0.414,2.12,0.648,4.288,0.689,6.454c0.145,7.737-2.17,15.463-7.482,20.984c-0.714,0.742-1.464,1.43-2.245,2.067
	c-0.469,0.382-0.949,0.745-1.44,1.092c-0.817,0.577-1.664,1.104-2.537,1.586l-1.06,0.556l-0.539,0.262l-1.094,0.491
	c-0.553,0.236-1.113,0.456-1.681,0.661l-1.145,0.391l-1.163,0.353l-1.179,0.316c-2.374,0.595-4.838,0.975-7.342,1.184l-1.083,0.078
	c2.088,3.077,4.279,6.129,6.457,9.21c11.348,16.06,13.152,32.554,6.654,51.203c-6.722,19.292-18.339,36.555-25.582,55.664
	c-4.579,12.084-7.806,25.975,2.447,36.087c6.907,6.811,16.607,10.595,25.631,13.61c12.893,4.307,26.345,7.269,39.926,8.123
	c13.019,0.819,26.928-0.151,38.956-5.599c12.403-5.617,17.554-14.699,22.811-26.564l-1.049-0.66
	c-0.511-0.323-1.021-0.647-1.531-0.972l-0.765-0.488c-0.766-0.488-1.531-0.974-2.298-1.456l-0.769-0.481
	c-0.512-0.319-1.027-0.635-1.542-0.948l-0.775-0.465c-0.646-0.385-1.296-0.764-1.95-1.132c-0.653-0.369-1.311-0.729-1.974-1.076
	c-0.331-0.174-0.664-0.345-0.998-0.513c-0.668-0.335-1.342-0.658-2.022-0.965c-1.701-0.768-3.444-1.441-5.245-1.981
	c-2.208-0.663-4.442-1.11-6.696-1.39c-0.564-0.07-1.128-0.129-1.693-0.178c-0.566-0.049-1.132-0.089-1.7-0.119
	c-0.568-0.03-1.137-0.051-1.706-0.064c-0.57-0.012-1.14-0.017-1.712-0.013c-1.274,0.008-2.553,0.055-3.834,0.132
	c-1.186,0.071-2.374,0.169-3.564,0.287l-0.251,0.025c-0.794,0.08-1.589,0.169-2.384,0.265c-0.839,0.102-1.679,0.211-2.519,0.325
	c-1.198,0.163-2.395,0.338-3.592,0.517l-0.377,0.056c-1.132,0.17-2.263,0.344-3.392,0.516c-1.438,0.219-2.874,0.435-4.306,0.638
	c-0.605,0.086-1.21,0.168-1.813,0.249l-0.334,0.044l-0.777,0.098l-1.024,0.12c-1.511,0.169-3.041,0.305-4.579,0.399
	c-0.622,0.037-1.245,0.068-1.868,0.091l-1.325,0.037l-1.277,0.013h-0.004c-1.29,0-2.577-0.035-3.857-0.112l-1.277-0.092
	c-0.637-0.053-1.272-0.117-1.903-0.193c-0.603-0.072-1.203-0.155-1.8-0.249c-0.484-0.077-0.966-0.16-1.445-0.252l-1.109-0.226
	c-0.771-0.168-1.533-0.359-2.286-0.57l-0.265-0.075l-1.048-0.319c-0.783-0.252-1.554-0.53-2.311-0.836l-0.88-0.372l-0.799-0.362
	c-0.551-0.262-1.094-0.538-1.627-0.832l-1.053-0.61c-0.52-0.317-1.031-0.651-1.53-1.003c-0.666-0.47-1.312-0.971-1.938-1.506
	c-0.312-0.267-0.62-0.543-0.922-0.828c-0.302-0.284-0.599-0.578-0.889-0.88c-2.297-2.387-4.043-5.179-5.281-8.204
	c-0.45-1.101-0.833-2.232-1.15-3.385c-0.239-0.865-0.44-1.744-0.606-2.631c-0.055-0.295-0.106-0.593-0.153-0.89
	c-0.095-0.595-0.174-1.195-0.237-1.796c-0.063-0.602-0.11-1.206-0.143-1.812c-0.032-0.606-0.05-1.213-0.051-1.821
	c-0.002-0.608,0.011-1.216,0.038-1.824c0.07-1.519,0.233-3.036,0.483-4.534c0.115-0.684,0.248-1.365,0.399-2.04
	c0.152-0.675,0.321-1.345,0.508-2.007l0.292-0.989c0.203-0.656,0.42-1.306,0.651-1.951c0.578-1.612,1.243-3.187,1.984-4.727
	c0.593-1.233,1.234-2.444,1.916-3.633c0.854-1.487,1.772-2.941,2.744-4.364c0.333-0.488,0.674-0.972,1.019-1.452l0.335-0.465
	c0.717-0.983,1.457-1.952,2.217-2.906c0.496-0.624,1.001-1.241,1.512-1.853c1.534-1.835,3.13-3.617,4.756-5.35l0.558-0.588
	l0.746-0.786c0.408-0.424,0.819-0.846,1.232-1.266c29.405-29.951,70.327-48.352,112.264-50.35c5.787-0.276,11.583-0.24,17.362,0.1
	c37.32,2.192,73.881,17.005,101.959,41.731c19.731,17.377,32.867,43.164,11.448,65.074c-7.352,7.521-16.752,12.677-26.209,17.282
	c-3.58,1.743-7.199,3.424-10.854,5.026c4.448,1.458,9.005,2.662,13.726,3.49c9.916,1.738,20.638,2.449,30.004-1.908
	c6.844-3.183,12.055-8.677,16.693-14.498c12.012-15.075,22.414-30.433,39.377-40.502c11.898-7.063,24.556-11.242,38.491-10.756
	c15.206,0.531,29.971,5.797,44.724,9.028c21.01,4.601,43.764,11.347,64.691,3.044c5.985-2.375,11.729-5.32,17.34-8.517l-0.316-0.081
	c-0.672-0.176-1.342-0.36-2.01-0.549c-1.335-0.38-2.663-0.789-3.98-1.226c-0.658-0.219-1.315-0.444-1.968-0.677l-0.978-0.355
	c-2.602-0.96-5.162-2.035-7.669-3.232c-0.626-0.3-1.25-0.606-1.87-0.92c-1.24-0.628-2.466-1.287-3.677-1.976l-0.786-0.452
	c-0.784-0.457-1.563-0.925-2.338-1.401c-0.517-0.317-1.032-0.638-1.546-0.96c-1.286-0.807-2.565-1.626-3.847-2.441
	c-1.281-0.815-2.565-1.623-3.859-2.408c-0.518-0.314-1.037-0.624-1.558-0.928c-0.521-0.305-1.046-0.604-1.572-0.898
	c-0.264-0.147-0.527-0.292-0.792-0.435c-1.324-0.717-2.666-1.39-4.036-2.001c-1.644-0.733-3.326-1.377-5.062-1.898
	c-0.807-0.242-1.616-0.456-2.429-0.642c-0.813-0.188-1.629-0.348-2.449-0.485c-0.818-0.137-1.64-0.249-2.465-0.34
	c-0.825-0.091-1.651-0.16-2.48-0.208c-1.243-0.073-2.491-0.102-3.743-0.094c-0.856,0.005-1.714,0.029-2.573,0.066
	c-0.788,0.035-1.578,0.082-2.369,0.14l-0.186,0.013c-1.597,0.121-3.199,0.284-4.802,0.476l-0.305,0.037
	c-1.81,0.221-3.621,0.476-5.431,0.744c-0.603,0.09-1.206,0.18-1.809,0.272c-1.391,0.211-2.78,0.425-4.167,0.633
	c-1.138,0.171-2.275,0.337-3.409,0.494l-1.429,0.193c-1.044,0.136-2.1,0.258-3.162,0.362l-0.639,0.06l-1.235,0.103l-0.094,0.008
	l-1.241,0.085l-0.677,0.039c-0.628,0.033-1.258,0.058-1.888,0.076l-0.678,0.016l-1.286,0.013c-1.079,0-2.157-0.024-3.23-0.077
	l-1.286-0.078l-1.28-0.107l-1.272-0.136c-0.845-0.101-1.684-0.223-2.516-0.368l-1.241-0.233l-1.115-0.243l-0.721-0.173l-1.205-0.322
	l-1.048-0.317l-0.728-0.239c-2.731-0.932-5.307-2.188-7.647-3.838c-0.668-0.472-1.317-0.975-1.946-1.513l-0.926-0.832l-0.893-0.884
	l-0.701-0.76l-0.666-0.785c-0.162-0.2-0.32-0.401-0.476-0.605c-0.622-0.815-1.191-1.665-1.708-2.544
	c-0.388-0.66-0.748-1.336-1.079-2.027c-0.736-1.535-1.332-3.141-1.795-4.794l-0.261-0.997c-0.283-1.159-0.503-2.338-0.661-3.529
	c-0.079-0.595-0.143-1.194-0.191-1.795c-0.048-0.6-0.081-1.203-0.099-1.808c-0.018-0.604-0.021-1.209-0.01-1.813
	c0.012-0.605,0.038-1.21,0.079-1.814c0.041-0.604,0.096-1.207,0.166-1.809c0.069-0.601,0.153-1.2,0.251-1.796l0.208-1.166
	c0.201-1.025,0.443-2.039,0.724-3.036l0.294-0.994c0.609-1.978,1.353-3.901,2.209-5.775l0.438-0.933
	c2.957-6.152,7.11-11.756,11.674-16.937c0.473-0.538,0.951-1.071,1.433-1.6c0.481-0.528,0.966-1.053,1.454-1.572l0.026-0.027
	l1.301-1.369c0.517-0.538,1.038-1.069,1.563-1.599c0.245-0.248,0.49-0.495,0.737-0.741c0.193-0.192,0.386-0.383,0.579-0.573
	c4.199-4.154,8.617-8.082,13.233-11.765c-7.78-1.538-15.676-0.476-23.546,1.44c-14.412,3.509-28.26,9.267-41.992,14.781
	c-31.232,12.54-63.53,28.12-97.269,32.276c-12.69,1.563-26.579,1.377-37.739-5.676c-11.849-7.488-16.467-21.21-17.171-34.59
	c-1.026-19.504,3.325-40.497,11.292-58.254c0.547-1.219,1.167-2.422,1.609-3.687c0.264-0.757,0.387-0.908,0.434-0.915
	c-0.026-0.069-0.066-0.286-0.083-0.972c0.04,1.661-0.3-1.632-0.391-1.999c-0.392-1.616-0.879-3.181-1.417-4.753
	c-4.004-11.691-9.197-22.761-14.793-33.75c-8.782-17.25-19.815-37.887-12.607-57.634l0.413-1.08l-25.179-9.809l27.106-20.316
	l16.393,8.226c12.498-8.687,28.545-13.265,42.32-12.387c22.441,1.43,40.108,15.342,59.183,25.624
	c14.62-5.295,29.995-8.506,45.509-9.417c5.48-0.321,10.978-0.356,16.465-0.095c11.957,0.57,23.826,2.548,35.338,5.804
	c14.172-7.238,28.504-14.085,44.362-17.152l0.747-0.111c-70.661-14.669-148.403-25.84-231.1-32.795
	c-0.07-0.006-0.14-0.011-0.21-0.017c-1.386-0.117-2.773-0.232-4.161-0.346c-0.15-0.012-0.299-0.024-0.448-0.036
	c-1.315-0.108-2.631-0.215-3.948-0.32c-0.178-0.015-0.355-0.029-0.533-0.043c-4.403-0.352-8.82-0.692-13.25-1.02
	c-0.258-0.019-0.517-0.038-0.776-0.057c-1.135-0.083-2.271-0.166-3.408-0.248c-0.452-0.032-0.904-0.065-1.356-0.097
	c-0.991-0.071-1.981-0.142-2.973-0.211c-0.444-0.031-0.887-0.062-1.33-0.093c-1.252-0.087-2.506-0.174-3.76-0.259
	c-0.14-0.01-0.28-0.019-0.421-0.029c-1.497-0.101-2.996-0.202-4.496-0.301l-0.074-0.005c-4.65-0.307-9.315-0.599-13.993-0.879
	l-0.044-0.003c-4.689-0.28-9.39-0.547-14.105-0.801l-0.024-0.001c-2.299-0.123-4.6-0.244-6.905-0.361l-0.45-0.022
	c-4.517-0.228-9.045-0.445-13.585-0.648l-0.834-0.038c-4.444-0.198-8.9-0.384-13.367-0.557l-0.978-0.038
	c-2.223-0.086-4.448-0.169-6.676-0.248l-0.285-0.01c-2.173-0.077-4.347-0.152-6.524-0.223l-0.768-0.026
	c-2.175-0.071-4.352-0.139-6.532-0.204l-1.132-0.033c-2.026-0.06-4.054-0.117-6.084-0.172l-0.617-0.017
	c-2.184-0.058-4.371-0.113-6.559-0.166l-1.197-0.028c-2.197-0.052-4.395-0.102-6.597-0.147l-0.244-0.005
	c-2.091-0.043-4.184-0.083-6.28-0.121l-1.443-0.026c-2.176-0.038-4.353-0.074-6.534-0.107l-0.605-0.009
	c-2.038-0.029-4.079-0.057-6.121-0.081l-1.23-0.015c-2.142-0.025-4.287-0.048-6.433-0.067l-1.301-0.011
	c-1.927-0.017-3.857-0.031-5.789-0.043l-1.027-0.007c-2.141-0.012-4.286-0.021-6.431-0.028c-0.492-0.002-0.984-0.003-1.476-0.004
	c-2.198-0.006-4.399-0.01-6.601-0.01c-1.48,0-2.958,0.002-4.436,0.004l-1.138,0.003c-1.064,0.002-2.126,0.005-3.189,0.009
	l-1.401,0.005c-1.071,0.005-2.142,0.01-3.212,0.016l-1.241,0.006c-1.139,0.007-2.278,0.014-3.416,0.022l-1.013,0.008
	c-1.421,0.011-2.84,0.023-4.258,0.036l-1.175,0.012c-1.099,0.011-2.197,0.022-3.294,0.034l-1.408,0.016
	c-0.912,0.011-1.823,0.022-2.734,0.034c-0.612,0.008-1.224,0.016-1.836,0.024c-0.882,0.012-1.764,0.025-2.644,0.038
	c-0.547,0.009-1.094,0.016-1.641,0.025c-1.334,0.02-2.666,0.042-3.998,0.064l-0.441,0.007c-1.376,0.023-2.749,0.049-4.123,0.075
	l-1.273,0.025c-0.973,0.019-1.946,0.039-2.918,0.058c-0.61,0.012-1.219,0.025-1.829,0.038c-0.829,0.018-1.656,0.035-2.483,0.054
	c-0.579,0.013-1.159,0.026-1.738,0.039c-0.969,0.023-1.939,0.045-2.907,0.069l-1.387,0.034c-1.374,0.033-2.747,0.069-4.119,0.105
	l-1.307,0.035c-1.011,0.027-2.021,0.055-3.031,0.083c-0.519,0.014-1.038,0.029-1.557,0.044c-0.867,0.025-1.733,0.051-2.599,0.077
	c-0.642,0.019-1.284,0.039-1.926,0.058c-0.805,0.025-1.61,0.05-2.415,0.076c-0.584,0.019-1.167,0.037-1.75,0.056
	c-1.089,0.035-2.177,0.072-3.264,0.108c-0.575,0.019-1.148,0.039-1.723,0.058c-1.103,0.038-2.205,0.077-3.307,0.117
	c-0.584,0.021-1.166,0.042-1.75,0.064c-0.793,0.028-1.587,0.058-2.379,0.088c-0.697,0.026-1.393,0.053-2.09,0.08
	c-0.631,0.024-1.262,0.049-1.893,0.073c-0.797,0.032-1.593,0.063-2.39,0.095c-0.668,0.027-1.336,0.055-2.003,0.082
	c-0.666,0.027-1.332,0.054-1.997,0.082c-1.239,0.052-2.477,0.105-3.714,0.159c-0.693,0.03-1.385,0.061-2.077,0.091
	c-0.802,0.036-1.603,0.072-2.405,0.108c-0.597,0.027-1.194,0.055-1.791,0.082c-0.76,0.035-1.521,0.071-2.28,0.107
	c-0.689,0.032-1.378,0.065-2.066,0.098c-0.633,0.03-1.264,0.061-1.897,0.092c-0.815,0.04-1.629,0.08-2.443,0.12l-0.793,0.04
	c-1.649,0.083-3.296,0.167-4.942,0.253c-0.668,0.035-1.337,0.07-2.005,0.105c-0.7,0.037-1.4,0.076-2.099,0.113
	c-0.667,0.036-1.334,0.072-2.001,0.108c-0.75,0.041-1.5,0.083-2.249,0.125c-0.561,0.032-1.121,0.063-1.682,0.094
	c-0.839,0.047-1.678,0.095-2.517,0.143l-1.28,0.074c-3.163,0.184-6.32,0.374-9.471,0.57l-0.701,0.044
	c-1.002,0.063-2.003,0.126-3.003,0.19l-0.948,0.06c-0.996,0.064-1.991,0.129-2.985,0.194l-0.818,0.054
	c-1.011,0.067-2.021,0.133-3.03,0.201l-0.418,0.028c-3.476,0.234-6.943,0.476-10.403,0.725l-0.252,0.018
	c-1.086,0.078-2.172,0.158-3.257,0.237l-0.631,0.047c-1.748,0.129-3.494,0.26-5.237,0.393c-0.429,0.033-0.856,0.065-1.285,0.098
	c-3.544,0.272-7.081,0.551-10.609,0.839c-0.294,0.024-0.587,0.048-0.881,0.072c-1.791,0.146-3.581,0.295-5.369,0.445
	c-0.156,0.013-0.313,0.027-0.469,0.04c-3.743,0.316-7.477,0.641-11.2,0.974c-0.132,0.012-0.265,0.024-0.397,0.036
	c-3.722,0.334-7.433,0.676-11.134,1.027c-0.15,0.014-0.3,0.028-0.45,0.042c-231.431,21.998-421.477,77.259-521.759,149.481
	C390.634,733.387,391.319,749.377,398.599,763.254z"/>
<path style="fill:#672828;" d="M1584.39,1421.319c-37.938-8.928-72.484-27.798-105.433-48.067
	c-33.189-20.417-65.393-42.936-100.979-59.106c-38.635-17.555-78.622-24.277-120.859-19.302
	c-49.701,5.853-95.52,26.013-139.157,49.585c-44.055,23.799-86.251,51.645-133.579,68.703
	c-97.698,35.212-205.557,32.194-302.352-4.567c-171.602-65.17-291.335-221.249-374.257-378.746
	c-21.716-41.246-41.181-84.176-57.083-128.332c30.083,116.966,93.418,264.808,209.986,391.518c0.011,0.012,0.021,0.024,0.033,0.036
	c1.872,2.035,3.758,4.064,5.658,6.087c0.132,0.141,0.264,0.281,0.395,0.421c0.831,0.883,1.664,1.765,2.499,2.646
	c0.103,0.109,0.207,0.218,0.31,0.328c1.863,1.963,3.74,3.92,5.63,5.872c0.199,0.206,0.4,0.411,0.599,0.617
	c0.717,0.739,1.436,1.477,2.157,2.214c0.256,0.261,0.511,0.523,0.767,0.785c0.913,0.93,1.826,1.86,2.745,2.788l0.049,0.049
	c2.058,2.079,4.132,4.152,6.221,6.218l0.167,0.166c2.058,2.034,4.132,4.062,6.22,6.082l0.197,0.19
	c1.008,0.974,2.018,1.946,3.033,2.917l0.375,0.358c0.963,0.921,1.929,1.84,2.899,2.757l0.2,0.19
	c0.965,0.913,1.934,1.823,2.905,2.733l0.656,0.614c0.941,0.879,1.884,1.757,2.831,2.633l0.655,0.604
	c0.796,0.736,1.595,1.469,2.395,2.203l0.726,0.665c0.922,0.843,1.847,1.684,2.775,2.524l0.848,0.766
	c0.794,0.717,1.589,1.432,2.387,2.147l0.949,0.849c0.799,0.714,1.601,1.426,2.405,2.138l1.067,0.944
	c0.883,0.778,1.766,1.556,2.653,2.332l1.06,0.924c0.638,0.556,1.278,1.111,1.918,1.666l1.221,1.057
	c0.855,0.738,1.712,1.474,2.572,2.209l1.226,1.046c0.668,0.57,1.338,1.138,2.009,1.706c0.526,0.445,1.052,0.89,1.58,1.334
	c0.653,0.549,1.307,1.099,1.962,1.647c0.484,0.405,0.968,0.809,1.454,1.213c0.836,0.696,1.673,1.391,2.513,2.085l1.356,1.116
	c0.534,0.439,1.07,0.878,1.606,1.316c0.68,0.556,1.362,1.111,2.044,1.666c0.63,0.511,1.26,1.023,1.892,1.533
	c0.532,0.43,1.066,0.859,1.6,1.288c0.526,0.422,1.052,0.843,1.579,1.264c0.859,0.687,1.721,1.372,2.584,2.056l1.235,0.978
	c0.606,0.478,1.212,0.955,1.82,1.432c0.568,0.445,1.137,0.889,1.706,1.333c0.792,0.618,1.586,1.235,2.382,1.85l1.327,1.025
	c0.937,0.722,1.877,1.443,2.819,2.163l1.317,1.005c0.603,0.458,1.207,0.916,1.813,1.374l1.337,1.007
	c0.995,0.749,1.993,1.496,2.993,2.242l1.146,0.853c0.665,0.494,1.331,0.987,1.999,1.48l0.331,0.243
	c1.338,0.986,2.681,1.969,4.028,2.949l0.922,0.67c1.281,0.929,2.567,1.856,3.857,2.78l0.568,0.407
	c0.714,0.511,1.43,1.02,2.146,1.529l0.744,0.527c1.284,0.909,2.571,1.816,3.863,2.719l0.722,0.505
	c0.735,0.513,1.471,1.025,2.209,1.537l0.081,0.056c1.489,1.032,2.985,2.059,4.486,3.084l0.818,0.557
	c1.47,1.001,2.945,1.999,4.425,2.993l0.144,0.097c0.788,0.53,1.579,1.057,2.37,1.584l0.463,0.308
	c1.431,0.952,2.867,1.899,4.308,2.844l0.607,0.398c2.363,1.546,4.739,3.084,7.128,4.611l0.685,0.437
	c2.41,1.537,4.833,3.066,7.27,4.585l0.355,0.22c1.558,0.97,3.122,1.936,4.692,2.899l0.413,0.253c2.483,1.52,4.98,3.031,7.49,4.531
	l0.566,0.338c2.533,1.511,5.081,3.012,7.644,4.503l0.128,0.074c1.633,0.95,3.272,1.895,4.917,2.836l0.602,0.344
	c2.552,1.458,5.12,2.905,7.701,4.342l0.515,0.286c4.342,2.413,8.724,4.797,13.146,7.151l0.587,0.312
	c2.652,1.409,5.319,2.807,8.001,4.193l0.41,0.212c1.767,0.913,3.54,1.821,5.319,2.724l0.114,0.057
	c2.732,1.385,5.48,2.759,8.242,4.122l0.508,0.251c2.737,1.348,5.49,2.685,8.257,4.01l0.546,0.26c1.727,0.826,3.461,1.648,5.2,2.465
	l0.376,0.177c0.941,0.441,1.884,0.881,2.828,1.32l0.086,0.04c1.81,0.841,3.626,1.675,5.449,2.506l0.686,0.312
	c2.785,1.266,5.583,2.52,8.397,3.763l0.652,0.287c1.699,0.749,3.404,1.493,5.114,2.233l0.626,0.271
	c0.915,0.395,1.831,0.789,2.749,1.182l0.782,0.333c1.591,0.678,3.187,1.354,4.788,2.025l1.131,0.474
	c2.753,1.15,5.52,2.288,8.301,3.416l1.124,0.454c1.572,0.635,3.149,1.266,4.729,1.893l0.988,0.392
	c0.902,0.357,1.805,0.713,2.71,1.068l0.833,0.325c1.662,0.649,3.33,1.295,5.001,1.936l1.055,0.404
	c1.719,0.656,3.442,1.308,5.17,1.957l0.683,0.256c0.9,0.337,1.802,0.672,2.705,1.006l1.253,0.462
	c1.544,0.569,3.092,1.135,4.644,1.697l1.223,0.442c0.898,0.323,1.796,0.646,2.696,0.967c0.484,0.173,0.969,0.344,1.453,0.516
	c1.466,0.52,2.936,1.037,4.408,1.551l1.417,0.493c1.462,0.508,2.928,1.011,4.397,1.513c0.519,0.177,1.037,0.355,1.557,0.531
	c0.851,0.288,1.702,0.575,2.555,0.862c0.584,0.196,1.168,0.391,1.753,0.586c1.369,0.457,2.742,0.911,4.117,1.362
	c0.593,0.195,1.184,0.389,1.778,0.583c0.85,0.277,1.702,0.554,2.555,0.829c0.793,0.256,1.588,0.509,2.383,0.764
	c1.161,0.371,2.324,0.741,3.488,1.108c0.624,0.197,1.249,0.393,1.875,0.589c1.198,0.375,2.398,0.748,3.601,1.118
	c0.816,0.251,1.632,0.503,2.45,0.753c0.788,0.241,1.579,0.48,2.369,0.719c0.769,0.233,1.54,0.464,2.31,0.695
	c1.182,0.354,2.365,0.706,3.551,1.056c0.757,0.224,1.515,0.447,2.275,0.669c0.776,0.227,1.552,0.454,2.331,0.679
	c1.235,0.358,2.474,0.714,3.714,1.068c0.761,0.217,1.525,0.432,2.287,0.648c0.794,0.224,1.588,0.447,2.384,0.669
	c0.962,0.269,1.924,0.537,2.89,0.803c1.036,0.286,2.073,0.571,3.113,0.854c0.78,0.213,1.562,0.424,2.344,0.635
	c0.865,0.233,1.731,0.465,2.599,0.696c1.115,0.297,2.232,0.593,3.351,0.887c0.84,0.22,1.68,0.441,2.521,0.659
	c0.769,0.2,1.538,0.4,2.309,0.598c1.297,0.333,2.597,0.665,3.899,0.994c0.714,0.18,1.429,0.359,2.144,0.538
	c0.915,0.229,1.833,0.457,2.751,0.684c0.864,0.214,1.728,0.427,2.594,0.638c1.185,0.289,2.373,0.577,3.563,0.863
	c0.697,0.168,1.395,0.334,2.093,0.5c1.061,0.252,2.124,0.503,3.188,0.752c0.98,0.23,1.961,0.458,2.944,0.685
	c0.961,0.222,1.923,0.444,2.887,0.663c0.721,0.165,1.442,0.329,2.164,0.492c1.375,0.31,2.752,0.618,4.132,0.923
	c0.701,0.155,1.404,0.308,2.106,0.462c1.039,0.227,2.079,0.453,3.12,0.677c0.586,0.126,1.169,0.254,1.756,0.378
	c1.464,0.313,2.932,0.622,4.402,0.929c0.655,0.137,1.311,0.273,1.967,0.409c1.343,0.278,2.689,0.553,4.037,0.826
	c0.68,0.138,1.361,0.274,2.043,0.411c1.14,0.228,2.282,0.456,3.426,0.681c0.662,0.13,1.324,0.261,1.988,0.39
	c1.474,0.287,2.951,0.571,4.43,0.853c0.635,0.12,1.272,0.24,1.908,0.36c1.159,0.218,2.318,0.433,3.48,0.648
	c0.593,0.109,1.185,0.22,1.779,0.329c1.502,0.274,3.008,0.546,4.517,0.815c0.617,0.11,1.236,0.219,1.855,0.328
	c1.555,0.274,3.11,0.547,4.672,0.815c0.505,0.087,1.011,0.172,1.517,0.258c1.263,0.215,2.528,0.428,3.795,0.639
	c0.601,0.1,1.201,0.2,1.802,0.299c1.575,0.259,3.154,0.516,4.735,0.769c0.565,0.09,1.13,0.179,1.695,0.269
	c1.319,0.208,2.641,0.416,3.964,0.62c0.515,0.08,1.029,0.16,1.544,0.239c1.591,0.243,3.186,0.483,4.783,0.72
	c0.581,0.086,1.162,0.172,1.743,0.257c1.656,0.243,3.314,0.483,4.976,0.72l1.235,0.173c1.432,0.202,2.867,0.401,4.303,0.598
	c0.513,0.07,1.026,0.141,1.539,0.21c1.662,0.225,3.326,0.446,4.995,0.664c0.569,0.075,1.139,0.147,1.708,0.221
	c1.448,0.187,2.898,0.371,4.352,0.553l1.115,0.14c1.738,0.215,3.482,0.426,5.228,0.635c0.518,0.062,1.036,0.123,1.554,0.184
	c1.761,0.207,3.525,0.413,5.293,0.612l0.998,0.112c1.591,0.178,3.184,0.353,4.781,0.526l1.338,0.144
	c1.767,0.188,3.537,0.372,5.312,0.553l1.441,0.145c1.658,0.167,3.319,0.331,4.984,0.491l0.741,0.072
	c1.801,0.172,3.607,0.339,5.415,0.503c0.544,0.049,1.089,0.099,1.633,0.147c1.806,0.161,3.614,0.32,5.427,0.474l1.026,0.085
	c1.644,0.138,3.292,0.272,4.942,0.403l1.266,0.101c1.841,0.144,3.687,0.285,5.536,0.421l1.384,0.101
	c1.798,0.13,3.599,0.258,5.405,0.381l0.468,0.033c1.916,0.13,3.839,0.254,5.763,0.375l1.363,0.085
	c1.93,0.119,3.863,0.235,5.801,0.345l0.815,0.046c1.787,0.101,3.578,0.197,5.372,0.29l1.066,0.056
	c1.946,0.099,3.896,0.194,5.851,0.284l1.248,0.057c1.895,0.086,3.794,0.168,5.697,0.246l0.401,0.017
	c1.989,0.08,3.983,0.154,5.98,0.226l1.285,0.046c1.974,0.068,3.951,0.133,5.934,0.192l0.989,0.028
	c1.812,0.052,3.629,0.102,5.449,0.147l1.052,0.027c1.982,0.048,3.969,0.091,5.96,0.129l1.296,0.024
	c2.06,0.039,4.123,0.074,6.192,0.102v0.123c2.475-0.007,4.942-0.021,7.405-0.041c1.231,0.01,2.464,0.019,3.698,0.026
	s2.47,0.012,3.707,0.016v-0.123c1.584-0.022,3.164-0.047,4.742-0.074c0.531-0.009,1.061-0.02,1.592-0.03
	c1.026-0.019,2.051-0.039,3.075-0.061c0.653-0.014,1.304-0.028,1.956-0.043c0.93-0.021,1.86-0.043,2.789-0.066
	c0.645-0.016,1.289-0.032,1.933-0.049c0.973-0.025,1.944-0.052,2.915-0.079c0.6-0.018,1.2-0.034,1.799-0.052
	c1.114-0.033,2.227-0.069,3.338-0.105l1.305-0.041c1.575-0.053,3.147-0.108,4.717-0.167l0.521-0.02
	c1.364-0.051,2.727-0.105,4.087-0.161c0.503-0.02,1.004-0.042,1.506-0.064c1.069-0.045,2.137-0.091,3.203-0.138
	c0.496-0.022,0.991-0.045,1.486-0.068c1.145-0.053,2.288-0.107,3.43-0.162l1.179-0.057c1.25-0.062,2.499-0.126,3.746-0.192
	l0.957-0.049c4.729-0.253,9.435-0.532,14.115-0.837l0.785-0.052c1.369-0.089,2.735-0.182,4.099-0.276l0.503-0.035
	c1.433-0.1,2.862-0.202,4.29-0.307l0.459-0.033c1.365-0.101,2.727-0.204,4.088-0.309c0.429-0.033,0.856-0.068,1.285-0.101
	c0.969-0.076,1.939-0.152,2.907-0.23c0.341-0.027,0.681-0.056,1.022-0.083c1.056-0.086,2.112-0.173,3.166-0.262
	c0.321-0.027,0.641-0.055,0.961-0.083c1.038-0.088,2.075-0.177,3.111-0.268c0.374-0.033,0.747-0.066,1.121-0.1
	c1.03-0.091,2.059-0.184,3.087-0.278c0.3-0.028,0.599-0.055,0.899-0.083c1.069-0.099,2.136-0.198,3.202-0.3
	c0.318-0.031,0.636-0.061,0.953-0.091c1.076-0.103,2.15-0.207,3.223-0.313c0.258-0.026,0.516-0.052,0.773-0.077
	c1.214-0.121,2.426-0.243,3.636-0.367l0.289-0.03c1.334-0.137,2.667-0.277,3.997-0.418c0.018-0.002,0.035-0.003,0.052-0.005
	c163.948-17.459,295.769-67.569,401.216-135.436C1634.925,1428.4,1609.268,1427.173,1584.39,1421.319z"/>
<path style="fill:#F59E20;" d="M690.34,765.039c-0.83-0.527-1.661-1.051-2.497-1.565c-1.775-1.092-3.572-2.135-5.421-3.055
	c-0.462-0.23-0.928-0.452-1.398-0.665c-0.469-0.214-0.943-0.418-1.421-0.613c-0.956-0.389-1.929-0.737-2.924-1.035
	c-0.653-0.196-1.309-0.369-1.966-0.52c-0.658-0.151-1.319-0.282-1.982-0.392c-0.58-0.097-1.162-0.179-1.745-0.247
	c-0.875-0.102-1.753-0.173-2.635-0.218c-0.588-0.03-1.177-0.047-1.767-0.054c-0.295-0.003-0.59-0.004-0.886-0.002l-1.014,0.016
	c-0.7,0.018-1.4,0.049-2.102,0.092c-0.967,0.058-1.936,0.138-2.906,0.234l-0.196,0.019c-0.943,0.096-1.888,0.206-2.833,0.327
	l-0.264,0.034c-0.59,0.077-1.18,0.157-1.77,0.241l-1.167,0.168l-1.024,0.152c-1.32,0.198-2.639,0.402-3.954,0.601
	c-1.405,0.212-2.807,0.417-4.203,0.599c-3.041,0.396-6.204,0.641-9.347,0.613l-1.047-0.02l-1.044-0.041l-1.414-0.094
	c3.352,5.801,7.625,11.05,12.586,15.613c14.992-5.582,30.804-8.967,46.764-9.917L690.34,765.039z"/>
<path style="fill:#F59E20;" d="M666.93,670.871c-6.569,0.593-12.371,4.203-17.644,7.944c-5.566,3.95-10.333,8.733-14.208,14.1
	c11.125-9.175,23.714-16.574,37.124-21.9C670.485,670.793,668.738,670.708,666.93,670.871z"/>
<path style="fill:#F59E20;" d="M730.108,661.542c30.336,1.782,60.054,13.823,82.876,33.921
	c16.039,14.125,26.716,35.085,9.306,52.895c-3.11,3.182-6.673,5.842-10.456,8.19c14.022,0.695,28.457-4.599,42.061-8.839
	c12.297-3.832,30.165-11.802,42.302-5.513c2.15,1.114,4.11,2.615,5.914,4.338c3.826-5.881,8.792-11.374,14.278-16.204
	c27.591-24.298,63.52-38.855,100.194-41.01l0.377-0.019l-0.36-0.26l-0.892-0.693c-0.183-0.149-0.364-0.301-0.543-0.456
	c-0.537-0.465-1.058-0.958-1.559-1.479c-0.274-0.285-0.541-0.577-0.798-0.875c-0.257-0.297-0.507-0.601-0.747-0.91
	c-0.24-0.309-0.473-0.623-0.697-0.943c-0.224-0.32-0.439-0.645-0.647-0.975c-1.991-3.168-3.227-6.789-3.781-10.555
	c-0.092-0.628-0.166-1.26-0.22-1.895c-0.055-0.635-0.091-1.272-0.109-1.91c-0.045-1.596,0.024-3.2,0.202-4.79
	c0.142-1.272,0.354-2.534,0.632-3.777c0.139-0.621,0.295-1.237,0.467-1.847l0.269-0.91c1.396-4.53,3.56-8.753,6.182-12.716
	c1.049-1.586,2.172-3.13,3.348-4.635l1.079-1.351c1.647-2.024,3.383-3.978,5.158-5.87l1.177-1.239l0.006-0.007
	c0.404-0.421,0.811-0.838,1.22-1.253c0.287-0.292,0.575-0.58,0.864-0.869c0.086-0.086,0.171-0.172,0.257-0.257
	c14.813-14.751,32.69-26.369,52.099-34.145c-5.879-1.06-11.766-1.928-17.649-2.551c-47.645-5.046-84.986,29.995-130.502,35.774
	c-26.589,3.376-51.439-7.05-76.83-13.187c-21.128-5.106-41.921-7.215-62.915-0.29c-26.622,8.782-47.233,27.23-69.221,43.733
	c-1.477,1.109-2.975,2.185-4.496,3.22C722.009,661.25,726.064,661.305,730.108,661.542z M893.665,641.424l68.542,9.226
	l-11.157,31.174l-89.788-19.347L893.665,641.424z"/>
<path style="fill:#F59E20;" d="M1155.065,717.177c-0.017,0-0.035,0-0.052,0c-0.436,0.002-0.872,0.002-1.309-0.002
	c-0.456-0.003-0.912-0.009-1.369-0.018c-0.641-0.012-1.281-0.031-1.922-0.055c-1.921-0.072-3.84-0.194-5.752-0.369
	c-1.274-0.116-2.547-0.256-3.815-0.419c-1.268-0.164-2.532-0.35-3.792-0.562c-1.889-0.317-3.767-0.689-5.63-1.116
	c-1.726-0.396-3.437-0.844-5.134-1.338c-1.968-0.573-3.915-1.209-5.836-1.918c-1.192-0.439-2.375-0.906-3.547-1.399
	c-2.929-1.234-5.789-2.636-8.563-4.216c-0.721-0.411-1.438-0.834-2.15-1.265l-0.712-0.433c-1.184-0.727-2.358-1.473-3.533-2.22
	l-1.409-0.897c-1.174-0.747-2.351-1.488-3.536-2.206c-0.237-0.144-0.475-0.287-0.713-0.429c-0.476-0.284-0.954-0.563-1.434-0.837
	c-0.24-0.137-0.481-0.273-0.722-0.407c-0.482-0.269-0.967-0.532-1.455-0.788c-0.244-0.128-0.489-0.255-0.735-0.379
	c-0.843-0.427-1.697-0.831-2.562-1.208c-0.831-0.363-1.672-0.7-2.527-1.006c-0.588-0.211-1.181-0.409-1.782-0.59
	c-2.54-0.762-5.117-1.215-7.72-1.442c-1.562-0.136-3.132-0.19-4.71-0.18c-2.727,0.017-5.474,0.227-8.227,0.536
	c-0.666,0.075-1.333,0.155-2,0.241l-0.319,0.041c-0.668,0.087-1.336,0.178-2.004,0.273l-0.329,0.047
	c-0.013,0.002-0.026,0.004-0.039,0.005c30.128,6.434,58.471,21.299,80.725,42.61c2.283-2.518,4.573-4.923,6.738-7.211
	c3.456-3.651,7.028-7.257,10.595-10.892C1156.881,717.157,1155.973,717.172,1155.065,717.177z"/>
<path style="fill:#ED8E10;" d="M1770.543,853.37c-5.145,5.263-11.29,9.373-17.755,12.946c2.727,0.42,5.483,0.654,8.279,0.62
	c9.918-0.117,20.291-2.685,30.286-6.335l7.583-18.303l40.938-7.739c5.43-4.024,10.607-8.376,15.446-13.086
	c10.555-10.274,21.851-25.068,18.837-40.76c-0.73-3.801-2.337-7.428-4.451-10.664c-0.657-1.006-3.064-3.368-2.775-3.67l-1.096-0.335
	c-8.703-2.668-17.464-5.1-26.254-7.472c-21.197-5.72-41.419-11.623-63.751-9.55c-18.186,1.689-34.325,8.242-49.995,16.272
	c11.925,6.214,23.114,13.828,33.21,22.72C1778.862,805.466,1792.054,831.365,1770.543,853.37z"/>
<path style="fill:#ED8E10;" d="M665.926,901.734l-0.557-0.076c-0.567-0.076-1.132-0.156-1.698-0.24l-0.491-0.075
	c-0.637-0.097-1.274-0.198-1.909-0.303l-0.202-0.034c-18.386-3.083-36.072-9.848-52.868-18.026c-3.121-1.52-6.235-3.103-9.264-4.822
	c3.941,8.301,8.913,16.085,15.955,21.781c12.987,10.504,32.121,11.17,47.527,6.108c3.041-0.999,5.969-2.263,8.793-3.737
	c-1.035-0.091-2.069-0.192-3.1-0.309C667.382,901.919,666.654,901.828,665.926,901.734z"/>
<polygon style="fill:#689E2F;" points="453.02,833.29 502.36,855.218 540.064,845.355 479.538,810.85 "/>
<polygon style="fill:#689E2F;" points="962.207,650.65 893.665,641.424 861.261,662.477 951.05,681.824 "/>
<polygon style="fill:#689E2F;" points="1643.285,703.845 1733.073,723.192 1744.23,692.018 1675.688,682.793 "/>
<polygon style="fill:#689E2F;" points="736.388,943.042 792.491,955.13 799.462,935.652 756.635,929.888 "/>
<polygon style="fill:#689E2F;" points="1489.315,953.551 1524.138,947.75 1529.314,931.861 1480.471,935.703 "/>
<polygon style="fill:#52802F;" points="1063.277,972.331 1055.726,990.555 1117.276,983.718 1107.364,963.998 "/>
<polygon style="fill:#52802F;" points="1791.353,860.602 1789.575,864.892 1865.887,856.416 1853.597,831.965 1839.874,834.56 
	1798.937,842.299 "/>
<polygon style="fill:#52802F;" points="587.466,696.438 565.491,679.968 528.669,698.444 533.016,717.65 "/>
<polygon style="fill:#689E2F;" points="1401.205,791.328 1434.992,800.166 1479.207,780.516 1455.443,760.407 "/>
<polygon style="fill:#689E2F;" points="1224.317,790.51 1275.993,781.747 1283.8,758.496 1211.356,764.517 "/>
<polygon style="fill:#52802F;" points="1282.911,618.525 1308.09,628.334 1350.074,644.69 1355.435,620.999 1326.41,606.435 
	1310.017,598.209 "/>
<path style="fill:#873A13;" d="M1040.888,891.643c-3.934-3.465-8.071-6.692-12.378-9.673
	c-21.008-14.539-46.082-23.195-71.586-24.694c-4.759-0.279-9.533-0.31-14.298-0.083c-21.294,1.015-42.269,7.166-60.899,17.513
	c-5.355,2.974-10.368,6.18-15.283,9.83c-1.81,2.079-3.688,4.358-5.353,6.508c-6.934,8.953-15.403,22.848-7.972,33.909
	c10.276,15.294,27.947,6.212,40.176-0.593c3.168-1.763,12.695-7.849,15.925-3.877c2.91,3.578,1.075,12.858,1.276,17.116
	c0.314,6.689,1.998,13.484,7.835,17.513c8.04,5.55,17.564,2.664,25.312-1.732c3.833-2.174,7.508-4.708,11.88-5.64
	c3.426-0.731,3.322-0.664,5.095,2.393c4.622,7.964,8.795,14.858,17.875,18.279c8.913,3.357,19.471,2.632,29.504-0.125
	c7.06-2.565,13.989-5.539,20.736-8.824c7.787-3.792,15.528-8.038,21.583-14.232C1067.954,927.188,1057.137,905.952,1040.888,891.643
	z"/>
<path style="fill:#5E2805;" d="M978.493,968.411c-9.08-3.421-13.254-10.315-17.875-18.279c-1.774-3.057-1.67-3.124-5.095-2.393
	c-4.372,0.932-8.047,3.466-11.88,5.64c-7.748,4.396-17.272,7.282-25.312,1.732c-5.837-4.03-7.521-10.825-7.835-17.513
	c-0.201-4.259,1.634-13.539-1.276-17.116c-3.23-3.972-12.757,2.114-15.925,3.877c-12.229,6.805-29.901,15.888-40.176,0.593
	c-7.431-11.061,1.038-24.955,7.972-33.909c1.706-2.203,3.521-4.36,5.378-6.488c-4.995,3.691-9.754,7.701-14.208,12.029
	c-0.318,0.309-0.635,0.621-0.95,0.934c-0.226,0.223-0.449,0.448-0.673,0.674c-0.495,0.498-0.988,0.999-1.474,1.505l-0.614,0.646
	l-0.463,0.487l-1.157,1.25l-1.14,1.271l-1.12,1.292l-1.096,1.314l-0.538,0.664c-4.094,5.121-7.526,10.74-9.299,17.013
	c-0.771,2.727-1.176,5.6-1.177,8.461c0,0.858,0.036,1.715,0.109,2.567c0.074,0.852,0.184,1.699,0.334,2.535
	c0.075,0.419,0.159,0.834,0.253,1.248s0.198,0.823,0.311,1.23c0.303,1.085,0.677,2.144,1.123,3.169
	c0.223,0.512,0.464,1.016,0.724,1.51c0.39,0.741,0.821,1.459,1.295,2.151c0.474,0.691,0.991,1.356,1.551,1.99
	c0.187,0.212,0.378,0.419,0.575,0.623l0.732,0.724c0.175,0.166,0.353,0.327,0.533,0.485c1.26,1.108,2.628,2.043,4.078,2.831
	l0.611,0.321c0.498,0.253,1.002,0.492,1.517,0.711c0.617,0.264,1.247,0.503,1.886,0.722c0.64,0.219,1.29,0.415,1.949,0.591
	c0.659,0.176,1.327,0.333,2.002,0.469c0.675,0.137,1.357,0.255,2.044,0.355c1.376,0.2,2.774,0.331,4.182,0.4
	c1.747,0.087,3.51,0.081,5.265,0.004l1.17-0.062c0.473-0.029,0.945-0.065,1.417-0.103c1.259-0.104,2.507-0.238,3.735-0.398
	c0.408-0.053,0.818-0.109,1.227-0.166c0.561-0.078,1.123-0.158,1.686-0.24l0.329-0.049c0.92-0.136,1.84-0.276,2.762-0.417
	c1.829-0.279,3.661-0.559,5.494-0.807c0.651-0.089,1.302-0.173,1.953-0.252l1.036-0.12c0.691-0.077,1.382-0.146,2.071-0.207
	c0.689-0.061,1.379-0.112,2.066-0.153c0.688-0.041,1.375-0.071,2.061-0.088c0.686-0.017,1.37-0.022,2.053-0.012
	c1.708,0.024,3.406,0.138,5.09,0.37c0.674,0.093,1.346,0.205,2.014,0.337c1.004,0.198,2.002,0.443,2.994,0.741
	c2.373,0.712,4.624,1.703,6.807,2.848c1.31,0.688,2.596,1.43,3.869,2.203l1.27,0.78l1.264,0.794l0.63,0.4l1.261,0.803l1.262,0.801
	l0.632,0.398l1.026,0.638l0.879,0.538l1.042,0.621l0.882,0.511c0.667,0.38,1.341,0.744,2.019,1.101
	c0.669,0.353,1.344,0.694,2.024,1.025c0.681,0.331,1.365,0.656,2.055,0.966c0.519,0.233,1.041,0.459,1.565,0.68
	c0.848,0.357,1.705,0.694,2.565,1.02c0.735,0.278,1.472,0.549,2.215,0.805c0.807,0.277,1.619,0.542,2.434,0.793
	c0.816,0.251,1.636,0.489,2.46,0.715c1.099,0.301,2.204,0.578,3.315,0.833c0.556,0.128,1.113,0.249,1.672,0.365
	c1.676,0.35,3.364,0.649,5.061,0.9c0.565,0.084,1.132,0.162,1.699,0.235c2.27,0.292,4.554,0.499,6.844,0.625
	c1.717,0.094,3.438,0.143,5.159,0.147c1.721,0.005,3.441-0.035,5.159-0.117c1.145-0.055,2.289-0.13,3.43-0.222
	c1.141-0.092,2.28-0.203,3.415-0.332c0.638-0.073,1.274-0.151,1.91-0.235l0.446-0.061c0.501-0.068,1.002-0.138,1.502-0.212
	l0.42-0.063c0.558-0.085,1.116-0.174,1.672-0.266l0.16-0.026c8.666-1.459,17.15-3.87,25.433-6.894
	C998.143,971.038,987.482,971.797,978.493,968.411z"/>
<path style="fill:#5E2805;" d="M889.239,909.107c-0.254,0.525,0.46,0.995,0.789,0.521c17.269-25.242,50.25-38.701,80.248-32.737
	c0.617,0.098,0.697-0.713,0.199-0.925C942.084,857.096,896.275,875.711,889.239,909.107z"/>
<path style="fill:#5E2805;" d="M929.619,931.123c-0.27,0.488,0.335,1.023,0.726,0.608c17.061-19.345,43.221-29.857,68.925-27.686
	c0.637,0.002,0.581-0.744,0.103-0.94C974.716,888.117,937.003,903.188,929.619,931.123z"/>
<path style="fill:#5E2805;" d="M986.113,947.599l0.653,0.685c15.109-13.744,34.794-21.333,54.904-23.071
	C1023.807,912.096,991.167,925.946,986.113,947.599z"/>
<path style="fill:#873A13;" d="M1124.598,721.963c-19.221-14.221-41.487-24.347-64.869-29.34c-3.796,0.543-7.589,1.178-11.346,1.668
	c-4.973,0.648-10.233,0.938-15.298,0.457c-2.728-0.259-5.399-0.742-7.941-1.512l-1.08-0.348c-1.072-0.366-2.119-0.787-3.133-1.267
	l-1.004-0.5c-0.827-0.434-1.631-0.91-2.407-1.432l-0.919-0.648l0.36,0.26l-0.377,0.019c-36.674,2.155-72.603,16.712-100.194,41.01
	c-5.486,4.831-10.452,10.323-14.278,16.204c-9.697,14.905-12.065,32.304,3.027,47.744c7.225,7.391,16.462,12.458,25.755,16.982
	c3.056,1.488,6.141,2.931,9.253,4.316c5.138,2.287,10.376,4.341,15.659,6.255c11.922,3.252,24.452,4.095,35.039,0.107
	c10.836-4.082,15.816-12.308,21.331-21.812c2.117-3.647,1.993-3.728,6.08-2.856c5.217,1.112,9.602,4.136,14.176,6.731
	c9.245,5.245,20.61,8.69,30.205,2.066c6.965-4.809,8.975-12.917,9.349-20.899c0.239-5.081-1.95-16.155,1.522-20.424
	c3.854-4.74,15.222,2.523,19.003,4.627c14.593,8.12,35.681,18.959,47.942,0.708c8.867-13.198-1.239-29.778-9.514-40.464
	C1128.929,727.018,1126.787,724.475,1124.598,721.963z"/>
<path style="fill:#5E2805;" d="M1143.416,806.69l1.179-0.316l1.163-0.353l1.145-0.391c0.568-0.205,1.128-0.425,1.681-0.661
	l1.094-0.491l0.539-0.262l1.06-0.556c0.873-0.481,1.72-1.009,2.537-1.586c0.491-0.346,0.971-0.71,1.44-1.092
	c0.781-0.637,1.531-1.325,2.244-2.067c5.313-5.521,7.628-13.247,7.483-20.984c-0.041-2.166-0.275-4.334-0.689-6.454l-0.21-0.999
	c-0.149-0.663-0.315-1.321-0.499-1.972l-0.287-0.972c-0.198-0.645-0.412-1.284-0.639-1.918l-0.35-0.946
	c-0.602-1.569-1.288-3.104-2.045-4.604l-0.463-0.897c-2.67-5.057-6.139-9.732-9.927-14.1c-0.445-0.514-0.896-1.023-1.349-1.529
	c-0.453-0.505-0.911-1.006-1.371-1.504l-0.692-0.743l-0.586-0.617l-0.694-0.73c-6.352-6.607-13.289-12.631-20.656-18.075
	c2.216,2.54,4.381,5.114,6.417,7.742c8.275,10.685,18.381,27.265,9.514,40.464c-12.262,18.251-33.349,7.412-47.942-0.708
	c-3.781-2.104-15.15-9.366-19.003-4.627c-3.473,4.269-1.283,15.343-1.522,20.424c-0.375,7.982-2.384,16.09-9.349,20.899
	c-9.594,6.624-20.959,3.179-30.205-2.066c-4.573-2.595-8.959-5.619-14.176-6.731c-4.087-0.872-3.964-0.792-6.08,2.856
	c-5.515,9.503-10.495,17.729-21.331,21.812c-10.726,4.041-23.449,3.134-35.511-0.225c9.254,3.377,18.717,6.115,28.373,7.879
	c0.023,0.004,0.044,0.009,0.066,0.012c0.635,0.116,1.271,0.227,1.908,0.334l0.2,0.033c0.656,0.109,1.313,0.213,1.97,0.313
	l0.529,0.08c0.577,0.086,1.156,0.167,1.735,0.245l0.602,0.082c0.751,0.099,1.503,0.192,2.257,0.277l1.017,0.112
	c0.678,0.071,1.357,0.138,2.038,0.198c2.04,0.182,4.088,0.315,6.139,0.397c1.026,0.041,2.052,0.069,3.078,0.083l1.026,0.011
	c0.683,0.004,1.365,0.002,2.047-0.005l1.034-0.016c0.684-0.013,1.368-0.033,2.052-0.058c0.684-0.026,1.368-0.057,2.05-0.095
	c0.683-0.037,1.365-0.081,2.048-0.131c0.682-0.05,1.364-0.106,2.044-0.168l1.117-0.108c0.647-0.065,1.294-0.137,1.94-0.214
	c1.017-0.121,2.032-0.256,3.044-0.406l1.153-0.178c0.577-0.092,1.152-0.189,1.727-0.29l1.154-0.21l1.003-0.193l1.177-0.241
	c0.941-0.198,1.879-0.408,2.813-0.632c0.991-0.239,1.98-0.492,2.963-0.761c0.983-0.269,1.962-0.553,2.935-0.853
	c0.974-0.3,1.942-0.615,2.905-0.946l0.961-0.336c0.639-0.228,1.276-0.463,1.91-0.705l0.949-0.368c0.631-0.25,1.26-0.505,1.885-0.769
	c0.796-0.335,1.586-0.683,2.372-1.042l1.345-0.626c1.84-0.878,3.65-1.822,5.428-2.834c0.385-0.22,0.769-0.442,1.152-0.667
	c0.383-0.225,0.764-0.453,1.145-0.683c2.03-1.227,4.03-2.516,6.037-3.791c0.502-0.319,1.003-0.637,1.506-0.953
	c0.755-0.473,1.511-0.943,2.271-1.404c0.76-0.46,1.524-0.912,2.292-1.352c0.385-0.22,0.771-0.436,1.158-0.649
	c0.775-0.426,1.556-0.837,2.345-1.229c0.394-0.196,0.792-0.388,1.19-0.575c0.931-0.435,1.874-0.842,2.832-1.214
	c0.958-0.372,1.931-0.711,2.922-1.008c1.627-0.489,3.27-0.859,4.923-1.128c0.552-0.09,1.104-0.169,1.658-0.237
	c0.554-0.068,1.108-0.126,1.664-0.175c1.668-0.145,3.345-0.203,5.03-0.192l0.019,0.001c1.576,0.01,3.158,0.082,4.744,0.197
	c0.916,0.066,1.835,0.147,2.754,0.24c3.179,0.322,6.368,0.786,9.549,1.268l0.443,0.067c0.625,0.095,1.249,0.191,1.872,0.286
	l0.751,0.114c0.576,0.087,1.151,0.174,1.725,0.259c1.355,0.202,2.706,0.395,4.054,0.571c3.472,0.453,7.076,0.742,10.666,0.744
	c0.633,0,1.266-0.009,1.899-0.027l0.632-0.021l1.26-0.063l1.255-0.089C1138.578,807.666,1141.042,807.285,1143.416,806.69z"/>
<path style="fill:#5E2805;" d="M1045.038,724.446c18.691,7.144,34.17,16.008,51.373,27.347c0.513,0.506,1.243-0.021,0.942-0.623
	c-19.697-31.227-61.678-48.945-97.343-39.127l0.642,0.684C1016.948,715.88,1030.18,719.13,1045.038,724.446z"/>
<path style="fill:#5E2805;" d="M965.811,745.037c10.073,3.839,18.126,6.483,27.197,9.729c19.385,6.935,35.943,15.04,55.293,23.402
	c0.567,0.402,1.23-0.155,0.865-0.726c-9.644-12.275-22.905-21.486-37.299-27.47c-14.536-5.634-30.482-8.155-45.938-5.965
	C965.39,744.059,965.318,744.865,965.811,745.037z"/>
<path style="fill:#5E2805;" d="M981.752,797.103c-17.114-17.171-42.013-28.129-66.269-27.373l0.12,0.724
	c5.867,4.241,11.335,7.075,16.505,9.791c16.246,7.87,30.614,14.083,48.865,17.676C981.592,798.175,982.165,797.649,981.752,797.103z
	"/>
<path style="fill:#873A13;" d="M1399.062,861.487c-28.077-24.726-64.639-39.539-101.959-41.731c-5.779-0.34-11.575-0.377-17.362-0.1
	c-33.21,1.582-65.759,13.483-92.48,33.228c-2.255,2.585-4.458,5.203-6.529,7.876c-8.421,10.873-18.704,27.744-9.682,41.176
	c12.478,18.572,33.937,7.542,48.787-0.721c3.847-2.141,15.417-9.531,19.338-4.708c3.534,4.344,1.306,15.613,1.549,20.784
	c0.382,8.123,2.426,16.374,9.514,21.267c9.763,6.741,21.329,3.235,30.737-2.102c4.654-2.64,9.117-5.718,14.426-6.85
	c4.159-0.886,4.033-0.806,6.187,2.906c5.612,9.67,10.68,18.042,21.707,22.196c10.797,4.068,23.58,3.199,35.737-0.129
	c4.857-1.761,9.677-3.635,14.415-5.711c3.655-1.601,7.274-3.283,10.854-5.026c9.457-4.604,18.856-9.76,26.209-17.282
	C1431.929,904.65,1418.793,878.863,1399.062,861.487z"/>
<path style="fill:#5E2805;" d="M1323.296,954.708c-11.026-4.154-16.094-12.525-21.707-22.196c-2.154-3.712-2.028-3.793-6.187-2.906
	c-5.309,1.132-9.772,4.21-14.426,6.85c-9.408,5.337-20.973,8.843-30.737,2.102c-7.088-4.893-9.132-13.144-9.514-21.267
	c-0.243-5.171,1.985-16.44-1.549-20.784c-3.921-4.823-15.49,2.567-19.338,4.708c-14.85,8.263-36.309,19.293-48.787,0.721
	c-9.022-13.431,1.261-30.303,9.682-41.176c2.071-2.675,4.276-5.294,6.53-7.879c-7.023,5.189-13.661,10.897-19.786,17.125
	c-0.413,0.42-0.823,0.841-1.232,1.266l-0.746,0.786l-0.558,0.587c-1.626,1.734-3.223,3.516-4.757,5.351
	c-0.511,0.612-1.015,1.229-1.512,1.853c-0.76,0.954-1.5,1.923-2.217,2.906l-0.335,0.465c-0.345,0.48-0.686,0.964-1.019,1.452
	c-0.972,1.423-1.89,2.877-2.744,4.364c-0.682,1.19-1.324,2.4-1.916,3.633c-0.741,1.541-1.406,3.116-1.984,4.727
	c-0.231,0.645-0.448,1.295-0.651,1.951l-0.292,0.989c-0.187,0.662-0.356,1.332-0.508,2.007c-0.151,0.675-0.285,1.355-0.399,2.04
	c-0.251,1.498-0.414,3.015-0.483,4.534c-0.028,0.608-0.041,1.216-0.038,1.824c0.002,0.608,0.019,1.215,0.051,1.821
	c0.032,0.606,0.08,1.21,0.143,1.812c0.063,0.601,0.142,1.201,0.237,1.796c0.047,0.297,0.098,0.595,0.153,0.89
	c0.166,0.887,0.367,1.766,0.606,2.631c0.317,1.154,0.7,2.285,1.15,3.385c1.238,3.025,2.984,5.817,5.281,8.204
	c0.291,0.302,0.587,0.595,0.889,0.88c0.302,0.285,0.609,0.561,0.922,0.828c0.625,0.535,1.272,1.036,1.938,1.506
	c0.499,0.352,1.01,0.686,1.53,1.003l1.053,0.61c0.533,0.294,1.076,0.571,1.627,0.832l0.799,0.362l0.88,0.372
	c0.757,0.306,1.528,0.584,2.311,0.836l1.048,0.319l0.265,0.075c0.752,0.212,1.515,0.402,2.286,0.57l1.109,0.226
	c0.479,0.092,0.96,0.175,1.445,0.252c0.596,0.094,1.196,0.177,1.8,0.249c0.631,0.076,1.266,0.14,1.903,0.193l1.277,0.092
	c1.28,0.077,2.568,0.113,3.857,0.112h0.004l1.277-0.013l1.325-0.037c0.623-0.023,1.246-0.053,1.868-0.091
	c1.539-0.093,3.068-0.229,4.579-0.399l1.024-0.12l0.777-0.098l0.334-0.044c0.603-0.08,1.208-0.163,1.813-0.249
	c1.431-0.203,2.867-0.419,4.306-0.638c1.129-0.172,2.26-0.346,3.392-0.516l0.377-0.056c1.197-0.18,2.394-0.354,3.592-0.517
	c0.84-0.114,1.68-0.223,2.519-0.325c0.795-0.095,1.59-0.184,2.384-0.265l0.251-0.025c1.19-0.118,2.378-0.216,3.564-0.287
	c1.281-0.077,2.56-0.124,3.834-0.132c0.571-0.004,1.142,0,1.712,0.013c0.57,0.013,1.138,0.034,1.706,0.064
	c0.568,0.03,1.135,0.07,1.7,0.119c0.565,0.049,1.13,0.108,1.693,0.178c2.253,0.279,4.488,0.727,6.696,1.39
	c1.801,0.54,3.543,1.213,5.244,1.981c0.681,0.307,1.354,0.63,2.022,0.965c0.334,0.168,0.667,0.339,0.998,0.513
	c0.663,0.347,1.321,0.707,1.974,1.076c0.654,0.369,1.303,0.747,1.95,1.132l0.775,0.465c0.515,0.313,1.03,0.629,1.542,0.948
	l0.769,0.481c0.767,0.482,1.533,0.968,2.298,1.456l0.765,0.488c0.511,0.325,1.02,0.649,1.531,0.972l1.049,0.66
	c1.444,0.903,2.896,1.787,4.368,2.625c4.22,2.403,8.624,4.429,13.159,6.102c0.648,0.239,1.298,0.471,1.952,0.695
	c0.653,0.225,1.309,0.442,1.967,0.653c0.658,0.21,1.319,0.414,1.981,0.61c1.325,0.393,2.66,0.757,4.002,1.095
	c0.671,0.168,1.344,0.33,2.019,0.485l1.013,0.227c0.677,0.148,1.355,0.29,2.035,0.424c0.68,0.135,1.361,0.263,2.044,0.384
	c0.683,0.122,1.368,0.236,2.053,0.344c1.714,0.271,3.436,0.501,5.164,0.69c0.691,0.076,1.383,0.145,2.076,0.208
	c3.117,0.284,6.25,0.441,9.383,0.476l1.045,0.008c1.219,0.003,2.438-0.012,3.656-0.045c2.436-0.066,4.87-0.204,7.293-0.41
	c1.212-0.104,2.422-0.224,3.628-0.361l0.106-0.012c0.561-0.064,1.121-0.133,1.68-0.204l0.469-0.06
	c0.543-0.071,1.085-0.145,1.626-0.222l0.631-0.092l1.029-0.155c0.518-0.08,1.035-0.163,1.553-0.249l0.367-0.061
	c0.654-0.11,1.307-0.225,1.958-0.344c0.007-0.001,0.013-0.002,0.02-0.004c9.822-1.795,19.449-4.58,28.863-8.017
	C1347.157,957.897,1334.21,958.82,1323.296,954.708z"/>
<path style="fill:#5E2805;" d="M1313.317,843.574c0.574,0.123,0.885-0.671,0.423-0.995c-8.415-6.044-18.731-8.78-29.02-9.174
	c-30.096-1.138-63.482,18.474-69.808,49.289c-0.302,0.633,0.557,1.194,0.959,0.633
	C1237.104,852.696,1276.718,836.53,1313.317,843.574z"/>
<path style="fill:#5E2805;" d="M1348.524,876.548c0.776,0.003,0.703-0.907,0.125-1.143c-29.877-18.144-75.745,0.188-84.703,34.024
	l-0.058,0.255c-0.15,0.53,0.602,0.897,0.938,0.483C1285.547,886.676,1317.312,873.91,1348.524,876.548z"/>
<path style="fill:#5E2805;" d="M1399.558,901.359c-24.366-13.59-59.672,1.109-67.009,28.077c-0.314,0.606,0.255,1.239,0.793,0.833
	c18.347-16.689,42.248-25.908,66.669-28.013L1399.558,901.359z"/>
<path style="fill:#873A13;" d="M1759.045,788.015c-10.096-8.891-21.285-16.505-33.21-22.72
	c-21.381-11.141-45.128-17.779-69.189-19.192c-5.803-0.341-11.625-0.378-17.436-0.101c-33.474,1.596-65.946,13.332-92.837,33.291
	c-2.178,2.503-4.596,5.404-6.6,7.991c-8.457,10.92-18.785,27.865-9.723,41.354c12.531,18.653,34.083,7.576,48.997-0.724
	c3.864-2.15,15.483-9.572,19.422-4.728c3.549,4.363,1.311,15.681,1.556,20.874c0.383,8.158,2.437,16.444,9.555,21.359
	c9.806,6.769,21.421,3.248,30.869-2.112c4.674-2.652,9.157-5.742,14.488-6.879c4.177-0.891,4.051-0.809,6.214,2.919
	c5.636,9.712,10.726,18.12,21.8,22.292c10.927,4.116,23.882,3.206,36.174-0.201c8.549-3.106,16.927-6.735,25.096-10.712
	c2.879-1.402,5.753-2.856,8.567-4.411c6.465-3.573,12.61-7.683,17.755-12.946C1792.054,831.365,1778.862,805.466,1759.045,788.015z"
	/>
<path style="fill:#5E2805;" d="M1682.951,881.639c-11.074-4.172-16.163-12.579-21.8-22.292c-2.163-3.728-2.037-3.809-6.214-2.919
	c-5.332,1.137-9.814,4.227-14.488,6.879c-9.449,5.36-21.064,8.881-30.869,2.112c-7.119-4.915-9.172-13.201-9.555-21.359
	c-0.244-5.194,1.993-16.511-1.556-20.874c-3.939-4.844-15.558,2.578-19.422,4.728c-14.914,8.299-36.466,19.376-48.997,0.724
	c-9.062-13.489,1.266-30.434,9.723-41.354c2.08-2.686,4.294-5.316,6.558-7.913c-6.424,4.747-12.527,9.928-18.213,15.54
	c-0.193,0.191-0.387,0.382-0.579,0.573c-0.246,0.246-0.492,0.494-0.737,0.741c-0.525,0.53-1.046,1.062-1.563,1.599l-1.301,1.369
	l-0.025,0.027c-0.488,0.52-0.973,1.044-1.454,1.573c-0.482,0.529-0.96,1.062-1.433,1.6c-4.564,5.181-8.717,10.785-11.674,16.937
	l-0.438,0.933c-0.856,1.873-1.599,3.797-2.209,5.775l-0.294,0.994c-0.282,0.998-0.523,2.012-0.724,3.036l-0.208,1.166
	c-0.098,0.596-0.182,1.195-0.251,1.796c-0.07,0.601-0.125,1.205-0.166,1.809c-0.041,0.604-0.068,1.209-0.079,1.814
	c-0.011,0.604-0.008,1.21,0.01,1.813c0.018,0.604,0.051,1.207,0.099,1.808c0.048,0.601,0.111,1.199,0.191,1.795
	c0.158,1.191,0.377,2.37,0.661,3.529l0.261,0.997c0.463,1.653,1.058,3.259,1.795,4.794c0.331,0.691,0.691,1.367,1.079,2.027
	c0.518,0.879,1.087,1.729,1.708,2.544c0.155,0.204,0.314,0.405,0.476,0.605l0.666,0.785l0.702,0.76l0.892,0.884l0.926,0.832
	c0.628,0.538,1.278,1.041,1.946,1.513c2.34,1.651,4.916,2.906,7.647,3.838l0.728,0.239l1.048,0.317l1.205,0.322l0.721,0.173
	l1.115,0.243l1.241,0.233c0.831,0.145,1.671,0.266,2.516,0.368l1.272,0.136l1.28,0.107l1.286,0.078
	c1.073,0.053,2.151,0.078,3.23,0.077l1.286-0.013l0.678-0.016c0.63-0.018,1.26-0.043,1.888-0.076l0.677-0.039l1.241-0.085
	l0.094-0.008l1.235-0.103l0.639-0.06c1.063-0.104,2.118-0.226,3.162-0.362l1.429-0.193c1.135-0.157,2.271-0.323,3.409-0.494
	c1.386-0.208,2.776-0.422,4.167-0.633c0.603-0.092,1.206-0.182,1.809-0.272c1.81-0.268,3.622-0.523,5.431-0.744l0.305-0.037
	c1.603-0.192,3.205-0.355,4.802-0.476l0.186-0.013c0.791-0.058,1.58-0.105,2.369-0.14c0.859-0.038,1.717-0.061,2.573-0.066
	c1.252-0.008,2.5,0.021,3.743,0.094c0.829,0.049,1.656,0.118,2.48,0.208c0.824,0.091,1.646,0.204,2.465,0.34
	c0.819,0.137,1.636,0.297,2.449,0.485c0.813,0.187,1.623,0.4,2.43,0.642c1.736,0.521,3.419,1.165,5.062,1.898
	c1.37,0.61,2.712,1.284,4.036,2.001c0.265,0.143,0.528,0.288,0.792,0.435c0.526,0.293,1.05,0.593,1.572,0.898
	c0.521,0.304,1.041,0.614,1.558,0.928c1.294,0.785,2.578,1.593,3.859,2.408c1.282,0.815,2.561,1.635,3.847,2.441
	c0.514,0.323,1.03,0.643,1.546,0.96c0.775,0.476,1.554,0.944,2.338,1.401l0.786,0.452c1.211,0.69,2.437,1.348,3.677,1.976
	c0.62,0.314,1.243,0.621,1.87,0.92c2.506,1.196,5.067,2.272,7.669,3.232l0.978,0.355c0.653,0.233,1.31,0.458,1.968,0.677
	c1.317,0.437,2.644,0.846,3.98,1.226c0.668,0.19,1.338,0.373,2.01,0.549c0.589,0.155,1.181,0.303,1.773,0.447l0.488,0.117
	c0.862,0.206,1.729,0.4,2.597,0.583l1.241,0.254l1.025,0.198c0.979,0.184,1.961,0.353,2.945,0.51l0.282,0.044
	c0.643,0.1,1.287,0.196,1.932,0.286c0.691,0.095,1.383,0.184,2.076,0.267c0.693,0.083,1.387,0.159,2.082,0.229
	c1.737,0.174,3.48,0.309,5.225,0.405l1.089,0.055c0.684,0.032,1.369,0.057,2.054,0.077l1.049,0.025
	c0.699,0.014,1.399,0.021,2.098,0.024c4.897,0.013,9.794-0.268,14.64-0.819c0.609-0.07,1.217-0.144,1.824-0.221l0.422-0.054
	c0.552-0.072,1.104-0.147,1.655-0.226l0.602-0.087l1.216-0.184l1.313-0.211l0.48-0.079c10.548-1.78,20.874-4.718,30.957-8.398
	C1706.916,884.842,1693.913,885.768,1682.951,881.639z"/>
<path style="fill:#5E2805;" d="M1575.063,809.95c21.325-30.763,61.109-46.999,97.868-39.925c0.576,0.123,0.888-0.674,0.424-0.999
	c-8.451-6.07-18.811-8.818-29.145-9.213c-30.226-1.143-63.756,18.553-70.11,49.501
	C1573.797,809.949,1574.66,810.513,1575.063,809.95z"/>
<path style="fill:#5E2805;" d="M1623.347,836.165l-0.058,0.256c-0.15,0.532,0.605,0.901,0.943,0.486
	c20.809-23.593,52.711-36.413,84.059-33.765c0.779,0.004,0.706-0.91,0.126-1.147
	C1678.408,783.771,1632.344,802.182,1623.347,836.165z"/>
<path style="fill:#5E2805;" d="M1692.245,856.258c-0.316,0.608,0.256,1.244,0.796,0.836c18.427-16.76,42.431-26.019,66.957-28.134
	l-0.453-0.9C1735.072,814.411,1699.614,829.174,1692.245,856.258z"/>
<path style="fill:#873A13;" d="M1239.388,622.186c-25.837-22.754-59.482-36.385-93.825-38.402
	c-5.317-0.312-10.652-0.347-15.977-0.093c-17.139,0.817-34.093,4.613-50.017,10.992c-12.592,5.045-24.207,11.488-35.083,19.583
	c-1.982,2.28-4.184,4.894-6.009,7.25c-7.749,10.005-17.212,25.531-8.909,37.891c11.482,17.091,31.228,6.94,44.894-0.663
	c3.541-1.971,14.187-8.77,17.796-4.332c3.251,3.997,1.201,14.367,1.426,19.126c0.35,7.474,2.232,15.067,8.755,19.57
	c8.984,6.203,19.627,2.976,28.284-1.935c4.283-2.429,8.39-5.262,13.275-6.303c3.827-0.816,3.711-0.742,5.693,2.674
	c5.165,8.899,9.828,16.602,19.974,20.425c10.01,3.771,21.877,2.937,33.138-0.182c7.836-2.846,15.515-6.172,23.002-9.818
	c8.702-4.237,17.352-8.981,24.118-15.903C1269.632,661.906,1257.545,638.176,1239.388,622.186z"/>
<path style="fill:#5E2805;" d="M1169.666,707.97c-10.146-3.823-14.81-11.526-19.974-20.425c-1.982-3.416-1.866-3.49-5.693-2.674
	c-4.885,1.041-8.993,3.874-13.275,6.303c-8.657,4.912-19.3,8.138-28.284,1.935c-6.523-4.503-8.404-12.096-8.755-19.57
	c-0.225-4.759,1.826-15.129-1.426-19.126c-3.609-4.438-14.255,2.362-17.796,4.332c-13.665,7.603-33.412,17.753-44.894,0.663
	c-8.303-12.36,1.16-27.885,8.909-37.891c1.906-2.461,3.934-4.871,6.009-7.25c-6.01,4.441-11.714,9.295-17.016,14.562
	c-0.086,0.086-0.172,0.172-0.257,0.257c-0.289,0.288-0.577,0.578-0.864,0.869c-0.409,0.415-0.816,0.833-1.22,1.253l-0.006,0.007
	l-1.176,1.239c-1.776,1.892-3.511,3.847-5.159,5.87l-1.079,1.351c-1.176,1.505-2.298,3.049-3.348,4.635
	c-2.622,3.963-4.786,8.186-6.182,12.716l-0.269,0.91c-0.172,0.609-0.328,1.226-0.467,1.847c-0.278,1.242-0.49,2.505-0.632,3.777
	c-0.178,1.59-0.247,3.194-0.202,4.79c0.018,0.638,0.054,1.276,0.109,1.91c0.055,0.635,0.128,1.267,0.22,1.895
	c0.554,3.766,1.79,7.387,3.781,10.555c0.207,0.33,0.423,0.655,0.647,0.975c0.224,0.32,0.457,0.634,0.697,0.943
	c0.241,0.309,0.49,0.613,0.747,0.91c0.257,0.298,0.524,0.589,0.798,0.875c0.502,0.521,1.021,1.014,1.559,1.479
	c0.179,0.155,0.36,0.307,0.543,0.456l0.892,0.693l0.919,0.648c0.776,0.522,1.58,0.998,2.407,1.432l1.004,0.5
	c1.014,0.48,2.061,0.901,3.133,1.267l1.08,0.348c2.541,0.771,5.213,1.254,7.941,1.512c5.066,0.481,10.325,0.192,15.298-0.457
	c3.757-0.49,7.55-1.125,11.346-1.668c0.013-0.002,0.026-0.004,0.039-0.005l0.329-0.047c0.668-0.095,1.336-0.186,2.004-0.273
	l0.319-0.041c0.667-0.086,1.334-0.166,2-0.241c2.753-0.309,5.5-0.519,8.227-0.536c1.578-0.01,3.148,0.044,4.71,0.18
	c2.603,0.227,5.181,0.68,7.721,1.442c0.601,0.181,1.194,0.379,1.782,0.59c0.855,0.307,1.697,0.644,2.527,1.006
	c0.865,0.378,1.719,0.781,2.562,1.208c0.246,0.124,0.49,0.251,0.735,0.379c0.488,0.256,0.973,0.519,1.455,0.788
	c0.241,0.135,0.482,0.27,0.722,0.407c0.48,0.274,0.958,0.554,1.434,0.837c0.238,0.142,0.475,0.284,0.713,0.429
	c1.186,0.719,2.362,1.46,3.536,2.206l1.409,0.897c1.174,0.748,2.349,1.494,3.533,2.22l0.712,0.433
	c0.712,0.431,1.429,0.854,2.15,1.265c2.774,1.579,5.634,2.982,8.563,4.216c1.172,0.493,2.354,0.96,3.547,1.399
	c1.921,0.708,3.868,1.345,5.836,1.918c1.697,0.494,3.408,0.942,5.134,1.338c1.863,0.428,3.741,0.799,5.63,1.116
	c1.259,0.211,2.524,0.398,3.792,0.562c1.268,0.163,2.541,0.302,3.815,0.419c1.912,0.175,3.831,0.297,5.752,0.369
	c0.64,0.024,1.281,0.042,1.922,0.055c0.457,0.009,0.913,0.015,1.369,0.018c0.437,0.003,0.873,0.003,1.309,0.002h0.052
	c0.908-0.004,1.816-0.02,2.722-0.046c0.105-0.003,0.21-0.004,0.315-0.008c3.203-0.101,6.398-0.335,9.57-0.695
	c0.704-0.08,1.406-0.167,2.107-0.259l0.592-0.081c0.535-0.072,1.07-0.147,1.604-0.226l0.49-0.075
	c0.611-0.093,1.222-0.19,1.831-0.291l0.218-0.036c9.679-1.631,19.154-4.324,28.405-7.7
	C1191.624,710.905,1179.71,711.754,1169.666,707.97z"/>
<path style="fill:#5E2805;" d="M1070.813,642.284c19.297-28.208,56.151-43.247,89.672-36.582c0.724,0.095,0.757-0.784,0.222-1.034
	c-31.722-21.076-82.925-0.282-90.777,37.033l-0.037,0.211C1069.77,642.437,1070.546,642.725,1070.813,642.284z"/>
<path style="fill:#5E2805;" d="M1115.052,666.304l-0.056,0.244c-0.138,0.49,0.562,0.824,0.866,0.435
	c18.854-21.654,48.424-33.538,77.02-30.936c0.725,0.012,0.652-0.834,0.115-1.052
	C1165.503,618.297,1123.296,635.167,1115.052,666.304z"/>
<path style="fill:#5E2805;" d="M1178.181,684.714c-0.291,0.558,0.235,1.141,0.729,0.767c16.884-15.359,38.879-23.839,61.351-25.78
	l-0.416-0.824C1217.396,646.391,1184.964,659.892,1178.181,684.714z"/>
<path style="fill:#873A13;" d="M801.259,804.188c-1.799-2.322-4.042-5.121-5.992-7.37c-10.937-8.196-22.493-14.606-35.146-19.793
	l-0.012-0.005c-16.758-6.868-34.653-10.952-52.748-11.815c-5.487-0.261-10.984-0.227-16.465,0.095l-0.132,0.009
	c-15.96,0.951-31.772,4.335-46.764,9.917c-18.211,6.781-35.212,16.806-49.798,29.651c-6.33,5.574-11.943,12.061-15.815,19.009
	c-7.576,13.594-8.485,28.954,4.957,42.705c4.546,4.651,9.918,8.347,15.592,11.568c3.029,1.719,6.143,3.302,9.264,4.822
	c7.715,3.756,15.627,7.183,23.702,10.117c11.607,3.216,23.838,4.075,34.155,0.188c10.457-3.939,15.263-11.878,20.586-21.05
	c2.043-3.52,1.923-3.597,5.867-2.756c5.035,1.073,9.268,3.991,13.681,6.496c8.922,5.062,19.89,8.386,29.15,1.994
	c6.722-4.641,8.661-12.466,9.022-20.169c0.231-4.905-1.882-15.592,1.47-19.712c3.719-4.573,14.691,2.435,18.339,4.465
	c14.084,7.837,34.434,18.297,46.268,0.683C818.998,830.5,809.245,814.5,801.259,804.188z"/>
<path style="fill:#873A13;" d="M812.984,695.463c-22.822-20.098-52.541-32.139-82.876-33.921c-4.044-0.238-8.099-0.292-12.15-0.16
	c-0.654,0.021-1.309,0.047-1.963,0.078c-15,0.716-29.84,4.013-43.793,9.555c-11.24,4.464-21.845,10.463-31.554,17.665
	c-1.77,2.033-3.504,4.09-5.131,6.192c-6.845,8.838-15.204,22.552-7.87,33.47c10.143,15.096,27.585,6.131,39.656-0.586
	c3.128-1.74,12.531-7.747,15.719-3.827c2.872,3.531,1.061,12.691,1.259,16.894c0.31,6.602,1.972,13.309,7.733,17.287
	c7.936,5.479,17.337,2.629,24.984-1.709c3.783-2.146,7.411-4.648,11.726-5.568c3.381-0.721,3.278-0.655,5.03,2.362
	c4.562,7.861,8.681,14.665,17.644,18.042c8.872,3.342,19.493,2.919,29.374-0.186c6.508-2.045,20.215-8.646,20.215-8.646
	c3.686-1.795,7.361-3.693,10.848-5.857c3.783-2.348,7.346-5.009,10.456-8.19C839.7,730.549,829.023,709.588,812.984,695.463z"/>
<path style="fill:#5E2805;" d="M633.873,759.749l1.047,0.02c3.143,0.028,6.306-0.217,9.347-0.613
	c1.396-0.182,2.797-0.387,4.203-0.599c1.316-0.198,2.634-0.402,3.954-0.601l1.024-0.152l1.167-0.168
	c0.59-0.084,1.18-0.164,1.77-0.241l0.264-0.034c0.945-0.121,1.89-0.232,2.833-0.327l0.196-0.019c0.97-0.096,1.939-0.176,2.906-0.234
	c0.702-0.043,1.402-0.074,2.102-0.092l1.014-0.016c0.296-0.002,0.591-0.001,0.886,0.002c0.59,0.007,1.179,0.024,1.767,0.054
	c0.881,0.044,1.76,0.115,2.635,0.218c0.583,0.068,1.165,0.15,1.745,0.247c0.663,0.11,1.324,0.241,1.982,0.392
	c0.658,0.152,1.313,0.324,1.966,0.52c0.995,0.299,1.968,0.647,2.924,1.035c0.478,0.195,0.952,0.399,1.421,0.613
	c0.47,0.213,0.936,0.435,1.398,0.665c1.849,0.92,3.646,1.963,5.421,3.055c0.835,0.514,1.667,1.038,2.497,1.565l0.425,0.271
	l0.132-0.009c5.48-0.322,10.978-0.357,16.465-0.095c18.094,0.862,35.99,4.946,52.748,11.815c7.016-1.452,13.906-3.502,20.661-5.968
	c-9.978,2.778-20.502,3.528-29.374,0.186c-8.963-3.377-13.082-10.181-17.644-18.042c-1.751-3.017-1.648-3.083-5.03-2.362
	c-4.315,0.92-7.943,3.422-11.726,5.568c-7.647,4.338-17.048,7.188-24.984,1.709c-5.761-3.978-7.423-10.684-7.733-17.287
	c-0.198-4.204,1.613-13.363-1.259-16.894c-3.188-3.92-12.592,2.087-15.719,3.827c-12.071,6.717-29.513,15.682-39.656,0.586
	c-7.334-10.917,1.025-24.632,7.87-33.47c1.684-2.174,3.475-4.303,5.308-6.405c-5.276,3.899-10.286,8.16-14.946,12.78
	c-0.119,0.119-0.239,0.238-0.359,0.357c-0.221,0.221-0.441,0.442-0.66,0.663c-0.38,0.385-0.758,0.772-1.132,1.162l-0.153,0.161
	l-0.894,0.942l-1.142,1.234l-1.125,1.254c-0.93,1.054-1.84,2.129-2.719,3.228c-2.109,2.637-4.039,5.408-5.652,8.335l-0.397,0.735
	c-1.169,2.215-2.153,4.518-2.893,6.919l-0.237,0.804l-0.218,0.812c-0.137,0.544-0.26,1.093-0.369,1.645
	c-0.271,1.383-0.448,2.789-0.527,4.2l-0.036,0.847c-0.016,0.565-0.017,1.13-0.001,1.694c0.016,0.564,0.048,1.127,0.096,1.688
	c0.073,0.84,0.182,1.676,0.33,2.502c0.049,0.276,0.103,0.549,0.161,0.823l0.185,0.816c0.174,0.71,0.377,1.411,0.611,2.099
	c0.156,0.459,0.325,0.912,0.508,1.36c0.183,0.447,0.38,0.888,0.59,1.322c0.316,0.65,0.662,1.285,1.041,1.901
	c0.126,0.205,0.256,0.408,0.389,0.609c0.667,1.005,1.423,1.954,2.272,2.836c1.063,1.104,2.221,2.065,3.456,2.895
	c0.411,0.276,0.832,0.538,1.26,0.787c0.571,0.331,1.155,0.637,1.753,0.92c1.195,0.565,2.439,1.037,3.722,1.426l0.969,0.276
	c2.159,0.578,4.414,0.931,6.707,1.115l1.414,0.094L633.873,759.749z"/>
<path style="fill:#5E2805;" d="M743.288,680.903c0.608,0.096,0.687-0.705,0.196-0.913c-28.024-18.626-73.24-0.252-80.185,32.712
	c-0.25,0.518,0.454,0.981,0.779,0.515C681.124,688.3,713.677,675.016,743.288,680.903z"/>
<path style="fill:#5E2805;" d="M771.905,707.706c0.629,0.002,0.573-0.735,0.102-0.929c-24.329-14.78-61.56,0.099-68.851,27.657
	l0.716,0.6C720.714,715.939,746.534,705.562,771.905,707.706z"/>
<path style="fill:#5E2805;" d="M758.919,750.695l0.644,0.677c14.914-13.566,34.343-21.057,54.193-22.772
	C796.141,715.662,763.902,729.343,758.919,750.695z"/>
<path style="fill:#5E2805;" d="M795.066,796.716c2.139,2.451,4.229,4.935,6.193,7.472c7.986,10.312,17.739,26.313,9.181,39.05
	c-11.833,17.614-32.184,7.153-46.268-0.683c-3.649-2.03-14.62-9.039-18.339-4.465c-3.352,4.12-1.239,14.807-1.47,19.712
	c-0.362,7.703-2.301,15.528-9.022,20.169c-9.259,6.392-20.228,3.068-29.15-1.994c-4.414-2.504-8.646-5.423-13.681-6.496
	c-3.945-0.841-3.825-0.764-5.867,2.756c-5.323,9.172-10.129,17.11-20.586,21.05c-10.351,3.9-22.63,3.025-34.271-0.217
	c9.536,3.481,19.305,6.258,29.282,7.938l0.202,0.034c0.636,0.106,1.272,0.206,1.909,0.303l0.491,0.075
	c0.566,0.084,1.131,0.163,1.698,0.24l0.557,0.076c0.728,0.095,1.456,0.185,2.185,0.268c1.031,0.117,2.064,0.218,3.1,0.309
	c4.217,0.371,8.465,0.526,12.706,0.443c1.981-0.04,3.961-0.13,5.936-0.274c0.718-0.053,1.436-0.113,2.153-0.18
	c0.549-0.051,1.098-0.106,1.646-0.166c1.644-0.178,3.284-0.395,4.914-0.651c0.544-0.085,1.087-0.175,1.629-0.268
	c1.626-0.282,3.244-0.603,4.851-0.965c0.781-0.176,1.56-0.358,2.336-0.552c1.909-0.48,3.802-1.018,5.674-1.616
	c0.624-0.199,1.246-0.406,1.865-0.619c2.478-0.852,4.917-1.813,7.308-2.885c2.391-1.073,4.735-2.259,7.023-3.561
	c0.929-0.529,1.85-1.078,2.766-1.638c0.305-0.187,0.61-0.375,0.914-0.563c1.46-0.907,2.909-1.838,4.362-2.761l0.727-0.46
	c0.484-0.307,0.97-0.611,1.456-0.914c0.273-0.17,0.547-0.34,0.822-0.508c0.548-0.336,1.099-0.669,1.651-0.996
	c0.276-0.164,0.554-0.326,0.831-0.486c0.555-0.321,1.113-0.635,1.675-0.942c0.843-0.459,1.693-0.901,2.554-1.318
	c1.148-0.557,2.314-1.071,3.504-1.53c0.298-0.115,0.597-0.227,0.898-0.334c0.601-0.215,1.208-0.416,1.823-0.601
	c1.928-0.579,3.877-0.984,5.841-1.251c0.437-0.06,0.874-0.112,1.312-0.158c1.095-0.115,2.195-0.189,3.299-0.229
	c0.785-0.028,1.571-0.039,2.359-0.034c3.547,0.023,7.126,0.36,10.71,0.823c1.195,0.154,2.39,0.323,3.585,0.498
	c3.584,0.526,7.164,1.114,10.712,1.577c1.591,0.207,3.209,0.379,4.841,0.503l1.138,0.078l0.647,0.037l0.61,0.03
	c0.614,0.027,1.228,0.047,1.842,0.059l1.214,0.012c0.612,0.001,1.223-0.008,1.833-0.025l0.609-0.021l1.217-0.061l0.606-0.04
	l1.208-0.101c1.405-0.134,2.796-0.325,4.164-0.582c0.586-0.11,1.168-0.232,1.744-0.368l1.146-0.287
	c0.949-0.254,1.881-0.544,2.794-0.875l0.546-0.203c1.517-0.58,2.975-1.273,4.363-2.093l0.802-0.491l0.483-0.317l0.947-0.668
	l0.919-0.714l0.683-0.581l0.605-0.548l0.46-0.443l0.006-0.006l0.412-0.418c1.273-1.323,2.367-2.777,3.291-4.33
	c0.462-0.776,0.882-1.577,1.26-2.399c0.126-0.274,0.247-0.55,0.364-0.828c0.234-0.557,0.449-1.122,0.646-1.695
	c0.098-0.286,0.193-0.574,0.282-0.864c0.18-0.58,0.341-1.166,0.484-1.758c0.072-0.296,0.139-0.594,0.202-0.892
	c0.202-0.956,0.359-1.924,0.472-2.9c0.038-0.326,0.071-0.652,0.099-0.979c0.085-0.981,0.126-1.968,0.126-2.957
	c0-0.659-0.019-1.318-0.056-1.976c-0.037-0.659-0.092-1.317-0.166-1.972c-0.073-0.655-0.164-1.308-0.273-1.958
	c-0.218-1.298-0.505-2.581-0.861-3.838c-0.266-0.942-0.565-1.871-0.894-2.789c-0.438-1.222-0.93-2.423-1.469-3.603
	c-0.27-0.589-0.55-1.174-0.843-1.753c-0.293-0.579-0.595-1.153-0.909-1.722l-0.478-0.85c-0.324-0.564-0.658-1.123-1.001-1.677
	c-1.371-2.217-2.889-4.356-4.505-6.425c-0.404-0.517-0.815-1.03-1.23-1.538l-0.627-0.759c-0.73-0.875-1.477-1.737-2.233-2.587
	l-1.005-1.117c-0.441-0.484-0.885-0.964-1.332-1.44l-0.756-0.796l-0.472-0.496C808.876,807.789,802.179,801.972,795.066,796.716z"/>
<path style="fill:#5E2805;" d="M674.894,787.229l0.626,0.66c15.729,3.042,28.498,6.178,42.837,11.309
	c18.038,6.894,32.976,15.449,49.578,26.392c0.498,0.495,1.21-0.017,0.909-0.601C749.582,794.872,709.485,777.941,674.894,787.229z"
	/>
<path style="fill:#5E2805;" d="M686.345,823.835c-14.059-5.455-29.415-7.584-44.333-5.757c-0.524,0.04-0.601,0.823-0.123,0.989
	c9.723,3.706,17.5,6.259,26.257,9.393c18.707,6.693,34.686,14.515,53.361,22.585c0.552,0.394,1.2-0.146,0.835-0.7
	C712.833,838.707,700.274,829.616,686.345,823.835z"/>
<path style="fill:#5E2805;" d="M593.327,842.903l0.369,0.879c20.277,13.079,39.259,21.134,62.835,26.326
	c0.597,0.247,1.15-0.264,0.751-0.79C640.766,852.749,616.734,842.167,593.327,842.903z"/>
<path style="fill:#873A13;" d="M1583.784,649.142c-1.948-2.514-4.02-4.977-6.14-7.407c-15.735-11.64-33.582-20.443-52.419-25.771
	c-11.512-3.257-23.382-5.235-35.338-5.804c-5.488-0.262-10.985-0.227-16.465,0.095c-15.514,0.912-30.889,4.123-45.509,9.417
	c-18.735,6.784-36.229,16.989-51.185,30.16c-18.713,16.479-31.17,40.935-10.857,61.714c6.973,7.133,15.887,12.023,24.855,16.389
	c7.713,3.755,15.623,7.182,23.694,10.115c11.609,3.217,23.844,4.077,34.162,0.19c10.457-3.94,15.263-11.879,20.586-21.05
	c2.043-3.52,1.923-3.597,5.868-2.756c5.035,1.073,9.267,3.991,13.681,6.496c8.922,5.062,19.89,8.386,29.15,1.994
	c6.722-4.641,8.661-12.466,9.023-20.169c0.231-4.904-1.882-15.591,1.469-19.711c3.72-4.573,14.691,2.435,18.34,4.465
	c14.083,7.837,34.434,18.297,46.267,0.683C1601.522,675.455,1591.769,659.454,1583.784,649.142z"/>
<path style="fill:#5E2805;" d="M1583.784,649.142c7.985,10.312,17.739,26.313,9.181,39.05c-11.833,17.614-32.184,7.153-46.267-0.683
	c-3.649-2.031-14.621-9.039-18.34-4.465c-3.35,4.12-1.238,14.807-1.469,19.711c-0.362,7.704-2.301,15.529-9.023,20.169
	c-9.259,6.392-20.228,3.068-29.15-1.994c-4.414-2.504-8.646-5.423-13.681-6.496c-3.945-0.841-3.825-0.764-5.868,2.756
	c-5.323,9.171-10.129,17.11-20.586,21.05c-10.351,3.899-22.629,3.025-34.271-0.217c9.535,3.48,19.301,6.257,29.277,7.937
	l0.215,0.035c0.631,0.105,1.263,0.205,1.896,0.301l0.502,0.076c0.561,0.083,1.122,0.162,1.683,0.238l0.57,0.078
	c0.718,0.094,1.437,0.183,2.157,0.265l0.025,0.003c4.577,0.52,9.201,0.786,13.825,0.773c1.982-0.005,3.963-0.062,5.941-0.17
	c0.659-0.036,1.318-0.078,1.976-0.126c0.658-0.048,1.316-0.102,1.973-0.162c0.657-0.06,1.313-0.126,1.968-0.198
	c1.311-0.144,2.619-0.313,3.921-0.505c0.651-0.096,1.301-0.199,1.95-0.308c0.406-0.068,0.811-0.138,1.216-0.211
	c2.022-0.365,4.032-0.791,6.024-1.281c0.796-0.196,1.591-0.401,2.381-0.618c0.633-0.173,1.264-0.352,1.892-0.539
	c0.629-0.186,1.255-0.379,1.879-0.579c1.872-0.599,3.724-1.257,5.551-1.979c3.656-1.442,7.213-3.133,10.644-5.086l0.742-0.427
	c0.494-0.288,0.984-0.58,1.474-0.876l0.733-0.447c0.732-0.45,1.461-0.906,2.188-1.365l0.727-0.46
	c0.484-0.308,0.968-0.616,1.452-0.924l0.726-0.462c1.937-1.23,3.878-2.447,5.857-3.578l0.743-0.42
	c0.497-0.277,0.997-0.548,1.5-0.812c0.503-0.264,1.009-0.52,1.518-0.769c1.274-0.621,2.57-1.191,3.897-1.69
	c0.796-0.3,1.603-0.575,2.423-0.821c1.047-0.314,2.101-0.577,3.159-0.795c0.529-0.109,1.061-0.206,1.592-0.293
	c0.266-0.043,0.532-0.084,0.799-0.122c0.8-0.115,1.602-0.205,2.407-0.275c1.609-0.14,3.229-0.196,4.854-0.186l0.019,0.001
	c0.769,0.005,1.538,0.025,2.31,0.058c1.237,0.052,2.478,0.138,3.72,0.248c0.715,0.064,1.431,0.136,2.147,0.214l0.265,0.029
	c0.7,0.079,1.4,0.164,2.1,0.253l0.308,0.04c0.688,0.089,1.376,0.183,2.065,0.281c1.771,0.25,3.54,0.521,5.307,0.791
	c0.553,0.085,1.106,0.169,1.658,0.252c1.708,0.258,3.412,0.509,5.108,0.729c3.351,0.437,6.829,0.716,10.294,0.718
	c1.223,0.001,2.444-0.033,3.658-0.107l1.211-0.087c3.624-0.302,7.162-0.976,10.451-2.164l1.086-0.415
	c2.154-0.869,4.188-1.974,6.054-3.356l0.919-0.714l0.89-0.761l0.859-0.81l0.417-0.424c0.453-0.47,0.883-0.957,1.291-1.459
	c1.224-1.506,2.248-3.148,3.082-4.888c0.278-0.58,0.535-1.17,0.771-1.77c0.236-0.6,0.451-1.209,0.646-1.826
	c0.487-1.542,0.847-3.134,1.085-4.751c0.286-1.941,0.396-3.92,0.339-5.898c-0.007-0.247-0.017-0.494-0.029-0.741
	c-0.025-0.494-0.06-0.988-0.104-1.481c-0.022-0.246-0.048-0.492-0.075-0.738l-0.123-0.981c-0.137-0.979-0.314-1.951-0.528-2.911
	c-0.144-0.64-0.305-1.275-0.482-1.903c-0.266-0.943-0.565-1.872-0.894-2.789c-2.74-7.641-7.56-14.422-12.987-20.57l-0.717-0.804
	c-0.622-0.691-1.25-1.375-1.883-2.05l-0.046-0.049l-0.038-0.04l-1.203-1.266c-0.5-0.52-1.004-1.034-1.511-1.546
	c-0.229-0.232-0.459-0.464-0.69-0.694c-0.198-0.198-0.398-0.393-0.597-0.589c-5.349-5.274-11.09-10.144-17.131-14.608
	C1579.729,644.122,1581.819,646.606,1583.784,649.142z"/>
<path style="fill:#5E2805;" d="M1457.418,632.184l0.626,0.66c15.728,3.042,28.499,6.179,42.837,11.309
	c18.038,6.894,32.976,15.449,49.578,26.391c0.498,0.496,1.211-0.016,0.909-0.6C1532.106,639.826,1492.008,622.895,1457.418,632.184z
	"/>
<path style="fill:#5E2805;" d="M1468.869,668.789c-14.059-5.455-29.415-7.583-44.333-5.757c-0.524,0.04-0.601,0.823-0.123,0.989
	c9.723,3.706,17.5,6.259,26.256,9.393c18.708,6.693,34.687,14.514,53.362,22.584c0.578,0.395,1.189-0.144,0.835-0.7
	C1495.357,683.661,1482.798,674.57,1468.869,668.789z"/>
<path style="fill:#5E2805;" d="M1375.851,687.857l0.369,0.879c20.277,13.079,39.259,21.133,62.835,26.326
	c0.598,0.247,1.15-0.264,0.751-0.789C1423.291,697.703,1399.258,687.122,1375.851,687.857z"/>
</svg>
