<?xml version="1.0" encoding="utf-8"?>
<!-- Generator: Adobe Illustrator 27.5.0, SVG Export Plug-In . SVG Version: 6.00 Build 0)  -->
<svg version="1.1" xmlns="http://www.w3.org/2000/svg" xmlns:xlink="http://www.w3.org/1999/xlink" x="0px" y="0px"
	 viewBox="0 0 2200 2200" style="enable-background:new 0 0 2200 2200;" xml:space="preserve">
<g id="background">
	<rect style="fill:#FFFFFF;" width="2200" height="2200"/>
</g>
<g id="Objects">
	<g>
		<path style="fill:#F4B519;" d="M1747.968,915.81c-175.532-11.185-292.346-18.637-467.879-29.822
			c-66.212-152.795-132.415-305.581-198.617-458.366c-71.114,152.626-142.227,305.273-213.331,457.909
			c-177.958,11.334-281.844,6.932-459.802,18.276c122.553,129.88,349.598,339.798,349.598,339.798
			c-35.015,163.264-64.037,313.088-99.062,476.352c0,0,268.037-158.685,430.837-264.571
			c172.103,101.009,435.79,235.584,435.79,235.584c-35.234-164.239-62.91-307.752-98.124-471.99
			C1427.377,1218.979,1637.028,1033.392,1747.968,915.81z"/>
		<path style="fill:#E5921A;" d="M1228.711,583.979c19.489-63.574,38.977-127.147,58.466-190.721
			c2.48-8.09,2.433-20.535-3.567-27.205c-6.108-6.79-11.802,1.26-13.602,7.133c-19.489,63.574-38.977,127.147-58.466,190.721
			c-2.48,8.09-2.432,20.535,3.567,27.205C1221.217,597.903,1226.911,589.852,1228.711,583.979z"/>
		<path style="fill:#E5921A;" d="M1411.193,674.564c41.976-42.488,83.952-84.975,125.928-127.463
			c6.119-6.194,6.11-19.511,3.567-27.204c-2.057-6.223-7.198-13.615-13.602-7.133c-41.976,42.488-83.952,84.975-125.928,127.463
			c-6.12,6.194-6.11,19.511-3.567,27.205C1399.648,673.654,1404.789,681.046,1411.193,674.564z"/>
		<path style="fill:#E5921A;" d="M1471.387,784.37c0.107,4.767,0.688,9.766,2.912,14.06c1.18,2.28,3.911,6.474,7.03,5.824
			c56.379-11.746,112.759-23.491,169.138-35.237c8.13-1.694,10.1-12.82,9.942-19.884c-0.107-4.767-0.688-9.766-2.912-14.06
			c-1.181-2.28-3.911-6.474-7.03-5.824c-56.379,11.746-112.759,23.491-169.138,35.237
			C1473.199,766.18,1471.229,777.306,1471.387,784.37z"/>
		<path style="fill:#E5921A;" d="M893.185,1625.601c-10.876,48.851-21.751,97.703-32.627,146.554
			c-1.882,8.454-2.738,20.195,3.567,27.204c5.85,6.504,12.221-0.93,13.602-7.133c10.876-48.851,21.751-97.703,32.627-146.554
			c1.882-8.454,2.738-20.195-3.567-27.205C900.938,1611.964,894.566,1619.398,893.185,1625.601z"/>
		<path style="fill:#E5921A;" d="M1267.872,1625.601c-1.379-6.194-7.832-13.564-13.602-7.133
			c-6.243,6.958-5.419,18.884-3.567,27.204c10.875,48.851,21.751,97.703,32.627,146.554c1.379,6.193,7.832,13.564,13.602,7.133
			c6.243-6.958,5.419-18.884,3.567-27.204C1289.623,1723.303,1278.748,1674.452,1267.872,1625.601z"/>
		<path style="fill:#E5921A;" d="M1093.89,1615.753c-8.197,0-9.942,14.463-9.942,19.884c0,20.418,0,40.836,0,61.254
			c0,32.394,0,64.788,0,97.182c0,7.526,0,15.053,0,22.579c0,5.788,1.707,19.884,9.942,19.884c8.197,0,9.942-14.463,9.942-19.884
			c0-20.418,0-40.836,0-61.254c0-32.394,0-64.788,0-97.182c0-7.526,0-15.053,0-22.579
			C1103.832,1629.849,1102.125,1615.753,1093.89,1615.753z"/>
		<path style="fill:#E5921A;" d="M893.068,583.979c1.808,5.899,7.597,13.826,13.602,7.133c5.892-6.566,5.992-19.292,3.567-27.205
			c-19.489-63.574-38.977-127.147-58.466-190.721c-1.808-5.899-7.597-13.826-13.602-7.133c-5.892,6.566-5.992,19.292-3.567,27.205
			C854.091,456.832,873.58,520.405,893.068,583.979z"/>
		<path style="fill:#E5921A;" d="M735.749,674.564c6.124,6.199,11.875-0.786,13.602-7.133c2.103-7.725,2.71-20.851-3.567-27.205
			c-41.976-42.488-83.952-84.975-125.928-127.463c-6.124-6.199-11.875,0.786-13.602,7.133c-2.103,7.726-2.71,20.851,3.567,27.204
			C651.797,589.589,693.773,632.077,735.749,674.564z"/>
		<path style="fill:#E5921A;" d="M496.475,769.016c56.379,11.746,112.759,23.491,169.138,35.237c2.988,0.622,6.031-3.902,7.03-5.824
			c2.092-4.024,3.012-9.593,2.912-14.06c-0.159-7.101-1.573-18.14-9.942-19.884c-56.379-11.746-112.759-23.491-169.138-35.237
			c-2.988-0.622-6.031,3.902-7.03,5.824c-2.092,4.025-3.012,9.594-2.912,14.06C486.692,756.234,488.107,767.273,496.475,769.016z"/>
		<path style="fill:#E5921A;" d="M550.861,1149.009c-0.126-5.631-1.616-19.882-9.942-19.884
			c-66.494-0.016-132.987-0.032-199.481-0.048c-8.147-0.002-10.071,14.103-9.942,19.884c0.126,5.631,1.616,19.882,9.942,19.884
			c66.494,0.016,132.987,0.032,199.481,0.048C549.066,1168.895,550.99,1154.79,550.861,1149.009z"/>
		<path style="fill:#E5921A;" d="M549.524,1283.383c-52.931,27.667-105.862,55.334-158.794,83.001
			c-11.799,6.167-7.768,45.17,5.286,38.347c52.931-27.667,105.862-55.334,158.794-83.001
			C566.609,1315.563,562.578,1276.56,549.524,1283.383z"/>
		<path style="fill:#E5921A;" d="M615.664,1448.127c-27.766,50.454-55.532,100.908-83.299,151.363
			c-4.342,7.891-4.103,20.195,0,28.12c3.81,7.358,10.163,7.08,14.06,0c27.766-50.454,55.532-100.908,83.299-151.363
			c4.343-7.891,4.103-20.195,0-28.12C625.914,1440.769,619.56,1441.047,615.664,1448.127z"/>
		<path style="fill:#E5921A;" d="M1868.504,1148.961c-0.126-5.628-1.616-19.886-9.942-19.884
			c-66.494,0.016-132.987,0.032-199.481,0.048c-8.147,0.002-10.071,14.099-9.942,19.884c0.126,5.628,1.616,19.886,9.942,19.884
			c66.494-0.016,132.987-0.032,199.481-0.048C1866.709,1168.843,1868.634,1154.745,1868.504,1148.961z"/>
		<path style="fill:#E5921A;" d="M1809.269,1366.385c-52.931-27.667-105.862-55.334-158.794-83.001
			c-12.935-6.761-17.214,32.112-5.286,38.347c52.931,27.667,105.862,55.334,158.794,83.001
			C1816.919,1411.493,1821.197,1372.62,1809.269,1366.385z"/>
		<path style="fill:#E5921A;" d="M1579.302,1397.589c-1.388-2.522-3.703-5.824-7.03-5.824c-3.19,0-5.82,3.282-7.03,5.824
			c-3.807,7.998-4.391,20.141,0,28.12c27.766,50.454,55.532,100.908,83.299,151.363c1.388,2.522,3.703,5.824,7.03,5.824
			c3.19,0,5.82-3.282,7.03-5.824c3.807-7.998,4.391-20.141,0-28.12C1634.835,1498.497,1607.068,1448.043,1579.302,1397.589z"/>
	</g>
</g>
</svg>
